SplineFontDB: 3.0
FontName: Limelight-Regular
FullName: Limelight Regular
FamilyName: Limelight
Weight: Book
Copyright: Copyright (c) 2010 by Sorkin Type Co with Reserved Font Name Limelight.\n\nThis Font Software is licensed under the SIL Open Font License, Version 1.1.\nThis license is copied below, and is also available with a FAQ at:\nhttp://scripts.sil.org/OFL
Version: 1.002
ItalicAngle: 0
UnderlinePosition: -71
UnderlineWidth: 75
Ascent: 1638
Descent: 410
LayerCount: 2
Layer: 0 1 "Back"  1
Layer: 1 1 "Fore"  0
XUID: [1021 631 1661839179 7871395]
FSType: 0
OS2Version: 3
OS2_WeightWidthSlopeOnly: 0
OS2_UseTypoMetrics: 1
CreationTime: 1333847760
ModificationTime: 1333834283
PfmFamily: 17
TTFWeight: 400
TTFWidth: 5
LineGap: 0
VLineGap: 0
Panose: 2 0 0 0 0 0 0 0 0 0
OS2TypoAscent: 243
OS2TypoAOffset: 1
OS2TypoDescent: -224
OS2TypoDOffset: 1
OS2TypoLinegap: 0
OS2WinAscent: 17
OS2WinAOffset: 1
OS2WinDescent: 3
OS2WinDOffset: 1
HheadAscent: 17
HheadAOffset: 1
HheadDescent: -3
HheadDOffset: 1
OS2SubXSize: 1434
OS2SubYSize: 1331
OS2SubXOff: 0
OS2SubYOff: 287
OS2SupXSize: 1434
OS2SupYSize: 1331
OS2SupXOff: 0
OS2SupYOff: 977
OS2StrikeYSize: 88
OS2StrikeYPos: 648
OS2Vendor: 'STC '
OS2CodePages: 20000093.00000000
OS2UnicodeRanges: a00000af.4000204a.00000000.00000000
DEI: 91125
TtTable: prep
MPPEM
PUSHW_1
 122
GT
IF
PUSHB_2
 1
 1
INSTCTRL
EIF
PUSHW_2
 2048
 2048
MUL
DUP
PUSHB_1
 1
SWAP
WCVTP
DUP
PUSHB_1
 3
SWAP
WCVTF
PUSHB_1
 21
RCVT
DUP
DUP
PUSHB_1
 40
ADD
FLOOR
DUP
ROLL
NEQ
IF
PUSHB_1
 2
CINDEX
SUB
PUSHB_1
 1
RCVT
MUL
SWAP
DIV
PUSHB_1
 2
SWAP
WCVTP
PUSHB_4
 10
 11
 3
 2
CALL
PUSHB_4
 12
 17
 3
 2
CALL
PUSHB_4
 18
 23
 3
 2
CALL
EIF
PUSHB_3
 4
 40
 7
RCVT
GT
WCVTP
PUSHB_4
 12
 17
 4
 2
CALL
PUSHW_1
 511
SCANCTRL
PUSHB_1
 4
SCANTYPE
PUSHB_2
 5
 0
WCVTP
EndTTInstrs
TtTable: fpgm
PUSHB_1
 0
FDEF
DUP
ABS
PUSHB_1
 32
ADD
FLOOR
SWAP
PUSHB_1
 0
LT
IF
NEG
EIF
ENDF
PUSHB_1
 1
FDEF
DUP
ABS
DUP
PUSHB_1
 192
LT
PUSHB_1
 4
MINDEX
AND
PUSHB_1
 4
RCVT
OR
IF
POP
SWAP
POP
ELSE
ROLL
IF
DUP

StartChar: exclam
Encoding: 33 33 23
Width: 831
GlyphClass: 2
Flags: W
LayerCount: 2
Fore
SplineSet
399 453 m 0,0,1
 370 453 370 453 356 507.5 c 128,-1,2
 342 562 342 562 328 610.5 c 128,-1,3
 314 659 314 659 296 706 c 0,4,5
 257 808 257 808 213.5 885.5 c 128,-1,6
 170 963 170 963 149 1004.5 c 128,-1,7
 128 1046 128 1046 116 1076 c 0,8,9
 97 1128 97 1128 97 1181 c 128,-1,10
 97 1234 97 1234 119 1279.5 c 128,-1,11
 141 1325 141 1325 181 1359 c 0,12,13
 268 1433 268 1433 403 1433 c 0,14,15
 546 1433 546 1433 630 1363 c 0,16,17
 710 1296 710 1296 710 1183 c 0,18,19
 710 1124 710 1124 696.5 1087.5 c 128,-1,20
 683 1051 683 1051 662 1011 c 2,21,-1
 606 908 l 1,22,23
 517 750 517 750 480 620 c 0,24,25
 467 572 467 572 456 524 c 1,26,27
 438 453 438 453 399 453 c 0,0,1
196 152 m 0,28,29
 196 237 196 237 251 285 c 128,-1,30
 306 333 306 333 402 333 c 128,-1,31
 498 333 498 333 554 280 c 1,32,33
 604 231 604 231 604 151 c 0,34,35
 604 80 604 80 548 32 c 0,36,37
 490 -19 490 -19 397 -19 c 0,38,39
 254 -19 254 -19 210 83 c 0,40,41
 196 114 196 114 196 152 c 0,28,29
EndSplineSet
EndChar

StartChar: quotedbl
Encoding: 34 34 24
Width: 886
GlyphClass: 2
Flags: W
LayerCount: 2
Fore
SplineSet
668 827 m 0,0,1
 617 827 617 827 608 879 c 1,2,3
 587 1022 587 1022 554 1121 c 2,4,-1
 508 1257 l 2,5,6
 496 1294 496 1294 496 1320.5 c 128,-1,7
 496 1347 496 1347 506 1370 c 128,-1,8
 516 1393 516 1393 537 1410 c 0,9,10
 584 1448 584 1448 667 1448 c 128,-1,11
 750 1448 750 1448 795 1413.5 c 128,-1,12
 840 1379 840 1379 840 1323 c 0,13,14
 840 1299 840 1299 828 1262 c 2,15,-1
 797 1172 l 2,16,17
 744 1016 744 1016 723 882 c 1,18,19
 715 839 715 839 684 830 c 0,20,21
 675 827 675 827 668 827 c 0,0,1
218 827 m 0,22,23
 167 827 167 827 158 879 c 1,24,25
 137 1022 137 1022 104 1121 c 2,26,-1
 58 1257 l 2,27,28
 46 1294 46 1294 46 1320.5 c 128,-1,29
 46 1347 46 1347 56 1370 c 128,-1,30
 66 1393 66 1393 87 1410 c 0,31,32
 134 1448 134 1448 217 1448 c 128,-1,33
 300 1448 300 1448 345 1413.5 c 128,-1,34
 390 1379 390 1379 390 1323 c 0,35,36
 390 1299 390 1299 378 1262 c 2,37,-1
 347 1172 l 2,38,39
 294 1016 294 1016 273 882 c 1,40,41
 265 839 265 839 234 830 c 0,42,43
 225 827 225 827 218 827 c 0,22,23
EndSplineSet
EndChar

StartChar: numbersign
Encoding: 35 35 25
Width: 937
GlyphClass: 2
Flags: W
LayerCount: 2
Fore
SplineSet
636 629 m 1,0,-1
 772 637 l 1,1,2
 795 637 795 637 810 625 c 128,-1,3
 825 613 825 613 825 594 c 128,-1,4
 825 575 825 575 809.5 562.5 c 128,-1,5
 794 550 794 550 777 550 c 0,6,7
 738 550 738 550 716 553 c 1,8,-1
 622 556 l 1,9,-1
 545 148 l 1,10,11
 516 7 516 7 479 -13 c 0,12,13
 468 -19 468 -19 451.5 -19 c 128,-1,14
 435 -19 435 -19 424.5 -5 c 128,-1,15
 414 9 414 9 414 26 c 0,16,17
 414 50 414 50 426 79 c 2,18,-1
 444 124 l 2,19,20
 466 177 466 177 490 306 c 2,21,-1
 536 556 l 1,22,-1
 329 556 l 1,23,-1
 252 148 l 1,24,25
 223 7 223 7 187 -13 c 0,26,27
 176 -19 176 -19 159.5 -19 c 128,-1,28
 143 -19 143 -19 132.5 -5 c 128,-1,29
 122 9 122 9 122 26 c 0,30,31
 122 53 122 53 134 80 c 128,-1,32
 146 107 146 107 152.5 124 c 128,-1,33
 159 141 159 141 166 166 c 0,34,35
 185 233 185 233 199 306 c 2,36,-1
 244 556 l 1,37,-1
 164 553 l 1,38,39
 143 550 143 550 110.5 550 c 128,-1,40
 78 550 78 550 61.5 562.5 c 128,-1,41
 45 575 45 575 45 593 c 0,42,43
 45 633 45 633 91 633 c 2,44,-1
 116 633 l 1,45,-1
 173 629 l 1,46,-1
 258 629 l 1,47,-1
 296 838 l 1,48,-1
 169 832 l 1,49,50
 144 832 144 832 128 845 c 128,-1,51
 112 858 112 858 112 876 c 0,52,53
 112 917 112 917 157 917 c 1,54,-1
 256 912 l 1,55,-1
 310 912 l 1,56,-1
 377 1279 l 1,57,58
 404 1414 404 1414 434 1428 c 0,59,60
 444 1433 444 1433 458 1433 c 0,61,62
 500 1433 500 1433 500 1392 c 0,63,64
 500 1378 500 1378 492 1356 c 128,-1,65
 484 1334 484 1334 480 1321 c 128,-1,66
 476 1308 476 1308 472 1292 c 2,67,-1
 464 1261 l 2,68,69
 460 1245 460 1245 457 1231 c 2,70,-1
 396 912 l 1,71,-1
 601 912 l 1,72,-1
 669 1279 l 1,73,74
 689 1377 689 1377 702 1400 c 0,75,76
 721 1433 721 1433 751 1433 c 0,77,78
 793 1433 793 1433 793 1392 c 0,79,80
 793 1378 793 1378 785 1356 c 128,-1,81
 777 1334 777 1334 773 1321 c 128,-1,82
 769 1308 769 1308 765 1292 c 2,83,-1
 757 1261 l 2,84,85
 753 1245 753 1245 750 1231 c 2,86,-1
 689 912 l 1,87,88
 750 912 750 912 775 915 c 0,89,90
 817 920 817 920 838 920 c 0,91,92
 890 920 890 920 890 876 c 0,93,94
 890 858 890 858 875 845 c 128,-1,95
 860 832 860 832 843 832 c 0,96,97
 804 832 804 832 788 834 c 128,-1,98
 772 836 772 836 758 836 c 2,99,-1
 702 838 l 2,100,101
 687 839 687 839 675 839 c 1,102,-1
 636 629 l 1,0,-1
549 629 m 1,103,-1
 588 839 l 1,104,-1
 382 839 l 1,105,-1
 343 629 l 1,106,-1
 549 629 l 1,103,-1
EndSplineSet
EndChar

StartChar: dollar
Encoding: 36 36 26
Width: 1149
GlyphClass: 2
Flags: W
LayerCount: 2
Fore
SplineSet
407 0 m 1,0,1
 292 26 292 26 185 86 c 0,2,3
 123 120 123 120 123 165 c 0,4,5
 123 182 123 182 134.5 195.5 c 128,-1,6
 146 209 146 209 163 209 c 0,7,8
 186 209 186 209 226 175 c 0,9,10
 310 102 310 102 423 74 c 1,11,-1
 511 484 l 1,12,-1
 336 652 l 1,13,14
 148 834 148 834 116 981 c 0,15,16
 104 1033 104 1033 104 1096 c 128,-1,17
 104 1159 104 1159 134 1220.5 c 128,-1,18
 164 1282 164 1282 224 1330 c 0,19,20
 353 1433 353 1433 581 1433 c 0,21,22
 652 1433 652 1433 711 1424 c 1,23,24
 718 1460 718 1460 723.5 1485.5 c 128,-1,25
 729 1511 729 1511 732 1530 c 0,26,27
 741 1582 741 1582 777 1582 c 0,28,29
 791 1582 791 1582 803 1572 c 128,-1,30
 815 1562 815 1562 815 1544 c 0,31,32
 815 1521 815 1521 800 1459 c 1,33,-1
 785 1409 l 1,34,35
 794 1406 794 1406 802.5 1403.5 c 128,-1,36
 811 1401 811 1401 839 1390.5 c 128,-1,37
 867 1380 867 1380 896.5 1364.5 c 128,-1,38
 926 1349 926 1349 942 1335 c 0,39,40
 970 1312 970 1312 970 1287 c 0,41,42
 970 1241 970 1241 930 1241 c 0,43,44
 913 1241 913 1241 885 1265 c 0,45,46
 837 1307 837 1307 767 1332 c 1,47,-1
 691 972 l 1,48,49
 1022 697 1022 697 1062 524 c 0,50,51
 1075 469 1075 469 1075 391.5 c 128,-1,52
 1075 314 1075 314 1040 234 c 128,-1,53
 1005 154 1005 154 939 98 c 0,54,55
 801 -19 801 -19 564 -19 c 0,56,57
 523 -19 523 -19 481 -13 c 1,58,59
 475 -42 475 -42 471 -66 c 2,60,-1
 462 -117 l 1,61,62
 453 -188 453 -188 409 -188 c 0,63,64
 392 -188 392 -188 379 -176 c 128,-1,65
 366 -164 366 -164 366 -150 c 0,66,67
 366 -132 366 -132 378 -101 c 0,68,69
 395 -56 395 -56 407 0 c 1,0,1
696 1350 m 1,70,71
 642 1360 642 1360 576.5 1360 c 128,-1,72
 511 1360 511 1360 473.5 1331.5 c 128,-1,73
 436 1303 436 1303 436 1262 c 0,74,75
 436 1180 436 1180 626 1024 c 1,76,-1
 696 1350 l 1,70,71
497 60 m 1,77,78
 547 55 547 55 577 55 c 0,79,80
 675 55 675 55 721.5 84 c 128,-1,81
 768 113 768 113 768 146 c 128,-1,82
 768 179 768 179 761.5 199.5 c 128,-1,83
 755 220 755 220 735 248.5 c 128,-1,84
 715 277 715 277 676 318 c 2,85,-1
 574 422 l 1,86,-1
 497 60 l 1,77,78
EndSplineSet
EndChar

StartChar: percent
Encoding: 37 37 27
Width: 1592
GlyphClass: 2
Flags: W
LayerCount: 2
Fore
SplineSet
344 -19 m 0,0,1
 305 -19 305 -19 305 24 c 0,2,3
 305 47 305 47 323.5 70 c 128,-1,4
 342 93 342 93 359 112 c 0,5,6
 392 147 392 147 450 239 c 2,7,-1
 1110 1271 l 2,8,9
 1145 1327 1145 1327 1162 1363.5 c 128,-1,10
 1179 1400 1179 1400 1189 1413 c 128,-1,11
 1199 1426 1199 1426 1220 1426 c 128,-1,12
 1241 1426 1241 1426 1255 1415 c 128,-1,13
 1269 1404 1269 1404 1269 1390.5 c 128,-1,14
 1269 1377 1269 1377 1264.5 1366.5 c 128,-1,15
 1260 1356 1260 1356 1252 1344 c 2,16,-1
 1231 1314 l 2,17,18
 1219 1297 1219 1297 1203 1272 c 2,19,-1
 448 82 l 2,20,21
 403 11 403 11 382 -4 c 128,-1,22
 361 -19 361 -19 344 -19 c 0,0,1
458 788 m 0,23,24
 389 788 389 788 327.5 810.5 c 128,-1,25
 266 833 266 833 221 875 c 0,26,27
 125 965 125 965 125 1103 c 0,28,29
 125 1234 125 1234 223 1320 c 0,30,31
 320 1406 320 1406 462 1406 c 0,32,33
 598 1406 598 1406 690 1322 c 0,34,35
 786 1235 786 1235 786 1098 c 0,36,37
 786 965 786 965 690 876 c 0,38,39
 597 790 597 790 458 788 c 0,23,24
457 856 m 2,40,41
 565 856 565 856 636 917 c 0,42,43
 713 983 713 983 713 1096 c 0,44,45
 713 1202 713 1202 637 1271 c 0,46,47
 564 1338 564 1338 457 1338 c 2,48,-1
 450 1338 l 2,49,50
 446 1338 446 1338 441 1337 c 1,51,-1
 441 856 l 1,52,-1
 457 856 l 2,40,41
826 314 m 0,53,54
 826 382 826 382 851.5 437.5 c 128,-1,55
 877 493 877 493 922 534 c 0,56,57
 1018 620 1018 620 1161 620 c 0,58,59
 1296 620 1296 620 1388 536 c 0,60,61
 1484 449 1484 449 1484 311 c 0,62,63
 1484 178 1484 178 1388 89 c 0,64,65
 1294 1 1294 1 1159 1 c 1,66,67
 1015 -1 1015 -1 920 88 c 0,68,69
 826 176 826 176 826 314 c 0,53,54
1156 70 m 2,70,71
 1262 70 1262 70 1334 131 c 0,72,73
 1412 196 1412 196 1412 309 c 0,74,75
 1412 416 1412 416 1336 484 c 0,76,77
 1262 551 1262 551 1156 551 c 0,78,79
 1152 551 1152 551 1148 551 c 128,-1,80
 1144 551 1144 551 1140 550 c 1,81,-1
 1140 70 l 1,82,-1
 1156 70 l 2,70,71
EndSplineSet
EndChar

StartChar: ampersand
Encoding: 38 38 28
Width: 1422
GlyphClass: 2
Flags: W
LayerCount: 2
Fore
SplineSet
1330 787 m 0,0,1
 1330 749 1330 749 1261 749 c 0,2,3
 1240 749 1240 749 1219 750 c 2,4,-1
 1176 754 l 1,5,6
 1108 758 1108 758 1070 758 c 1,7,8
 1187 692 1187 692 1224 523 c 0,9,10
 1235 473 1235 473 1235 405.5 c 128,-1,11
 1235 338 1235 338 1195.5 258 c 128,-1,12
 1156 178 1156 178 1085 116 c 0,13,14
 929 -19 929 -19 692 -19 c 0,15,16
 442 -19 442 -19 296 99 c 0,17,18
 145 221 145 221 145 432 c 0,19,20
 145 555 145 555 226 657 c 0,21,22
 308 760 308 760 446 804 c 1,23,24
 291 868 291 868 239 1012 c 0,25,26
 223 1056 223 1056 223 1116 c 128,-1,27
 223 1176 223 1176 258.5 1236 c 128,-1,28
 294 1296 294 1296 361 1340 c 0,29,30
 503 1433 503 1433 741 1433 c 0,31,32
 800 1433 800 1433 857 1426.5 c 128,-1,33
 914 1420 914 1420 958 1407.5 c 128,-1,34
 1002 1395 1002 1395 1030 1380 c 0,35,36
 1085 1351 1085 1351 1085 1314 c 128,-1,37
 1085 1277 1085 1277 1043 1277 c 0,38,39
 1020 1277 1020 1277 1003.5 1291.5 c 128,-1,40
 987 1306 987 1306 960 1323 c 0,41,42
 898 1362 898 1362 794.5 1362 c 128,-1,43
 691 1362 691 1362 661 1357 c 1,44,-1
 661 61 l 1,45,46
 768 40 768 40 865.5 73.5 c 128,-1,47
 963 107 963 107 1024 156 c 0,48,49
 1158 264 1158 264 1158 413 c 0,50,51
 1158 568 1158 568 1079 664 c 0,52,53
 1002 756 1002 756 882 756 c 2,54,-1
 859 756 l 2,55,56
 785 756 785 756 785 803 c 0,57,58
 785 836 785 836 837 836 c 1,59,-1
 937 829 l 1,60,61
 1149 829 1149 829 1219.5 835 c 128,-1,62
 1290 841 1290 841 1310 825.5 c 128,-1,63
 1330 810 1330 810 1330 787 c 0,0,1
EndSplineSet
EndChar

StartChar: quotesingle
Encoding: 39 39 29
Width: 436
GlyphClass: 2
Flags: W
LayerCount: 2
Fore
SplineSet
218 827 m 0,0,1
 167 827 167 827 158 879 c 1,2,3
 137 1022 137 1022 104 1121 c 2,4,-1
 58 1257 l 2,5,6
 46 1294 46 1294 46 1320.5 c 128,-1,7
 46 1347 46 1347 56 1370 c 128,-1,8
 66 1393 66 1393 87 1410 c 0,9,10
 134 1448 134 1448 217 1448 c 128,-1,11
 300 1448 300 1448 345 1413.5 c 128,-1,12
 390 1379 390 1379 390 1323 c 0,13,14
 390 1299 390 1299 378 1262 c 2,15,-1
 347 1172 l 2,16,17
 294 1016 294 1016 273 882 c 1,18,19
 265 839 265 839 234 830 c 0,20,21
 225 827 225 827 218 827 c 0,0,1
EndSplineSet
EndChar

StartChar: parenleft
Encoding: 40 40 30
Width: 939
GlyphClass: 2
Flags: W
LayerCount: 2
Fore
SplineSet
848 1536 m 0,0,1
 848 1491 848 1491 767 1495 c 0,2,3
 691 1499 691 1499 599 1454 c 1,4,-1
 599 -75 l 1,5,6
 689 -118 689 -118 781 -122 c 1,7,8
 848 -126 848 -126 848 -162 c 128,-1,9
 848 -198 848 -198 780 -198 c 128,-1,10
 712 -198 712 -198 633.5 -170 c 128,-1,11
 555 -142 555 -142 480.5 -88.5 c 128,-1,12
 406 -35 406 -35 339 42.5 c 128,-1,13
 272 120 272 120 221 220 c 0,14,15
 111 434 111 434 111 698 c 0,16,17
 111 1055 111 1055 310 1314 c 1,18,19
 435 1479 435 1479 606 1542 c 0,20,21
 692 1573 692 1573 754 1573 c 0,22,23
 848 1573 848 1573 848 1536 c 0,0,1
EndSplineSet
EndChar

StartChar: parenright
Encoding: 41 41 31
Width: 939
GlyphClass: 2
Flags: W
LayerCount: 2
Fore
SplineSet
171 -121.5 m 128,-1,1
 251 -117 251 -117 340 -75 c 1,2,-1
 340 1454 l 1,3,4
 246 1499 246 1499 187 1496 c 128,-1,5
 128 1493 128 1493 109.5 1503 c 128,-1,6
 91 1513 91 1513 91 1532 c 0,7,8
 91 1573 91 1573 169 1573 c 128,-1,9
 247 1573 247 1573 333 1541.5 c 128,-1,10
 419 1510 419 1510 493.5 1452.5 c 128,-1,11
 568 1395 568 1395 629.5 1314.5 c 128,-1,12
 691 1234 691 1234 736 1137 c 0,13,14
 828 935 828 935 828 698 c 0,15,16
 828 434 828 434 718 220 c 0,17,18
 619 27 619 27 458 -88 c 1,19,20
 306 -198 306 -198 155 -198 c 0,21,22
 91 -198 91 -198 91 -162 c 128,-1,0
 91 -126 91 -126 171 -121.5 c 128,-1,1
EndSplineSet
EndChar

StartChar: asterisk
Encoding: 42 42 32
Width: 760
GlyphClass: 2
Flags: W
LayerCount: 2
Fore
SplineSet
584 888 m 0,0,1
 584 851 584 851 546 851 c 0,2,3
 516 851 516 851 502 873.5 c 128,-1,4
 488 896 488 896 477 917 c 2,5,-1
 380 1106 l 1,6,-1
 314 996 l 1,7,-1
 282 938 l 2,8,9
 271 917 271 917 261 895 c 0,10,11
 243 854 243 854 219 854 c 0,12,13
 172 854 172 854 172 894 c 0,14,15
 172 920 172 920 216 981 c 1,16,-1
 324 1137 l 1,17,18
 263 1134 263 1134 215 1133 c 128,-1,19
 167 1132 167 1132 148 1130 c 0,20,21
 116 1128 116 1128 93 1128 c 128,-1,22
 70 1128 70 1128 56.5 1140.5 c 128,-1,23
 43 1153 43 1153 43 1172.5 c 128,-1,24
 43 1192 43 1192 59.5 1203 c 128,-1,25
 76 1214 76 1214 94 1214 c 0,26,27
 124 1214 124 1214 148 1212 c 1,28,29
 179 1208 179 1208 222 1206 c 2,30,-1
 327 1201 l 1,31,-1
 222 1368 l 1,32,33
 191 1413 191 1413 191 1436 c 0,34,35
 191 1478 191 1478 234 1478 c 0,36,37
 259 1478 259 1478 281 1432 c 1,38,-1
 381 1235 l 1,39,-1
 471 1411 l 1,40,41
 489 1451 489 1451 503 1465 c 128,-1,42
 517 1479 517 1479 533 1479 c 0,43,44
 570 1479 570 1479 570 1444 c 0,45,46
 570 1419 570 1419 531 1354 c 1,47,-1
 436 1202 l 1,48,-1
 610 1210 l 1,49,50
 644 1213 644 1213 662 1213 c 0,51,52
 717 1213 717 1213 717 1170 c 128,-1,53
 717 1127 717 1127 662 1127 c 0,54,55
 644 1127 644 1127 622 1129 c 0,56,57
 566 1134 566 1134 435 1138 c 1,58,59
 548 956 548 956 553 950.5 c 128,-1,60
 558 945 558 945 566 934 c 0,61,62
 584 909 584 909 584 888 c 0,0,1
EndSplineSet
EndChar

StartChar: plus
Encoding: 43 43 33
Width: 1014
GlyphClass: 2
Flags: W
LayerCount: 2
Fore
SplineSet
531 365 m 1,0,-1
 539 208 l 2,1,2
 539 190 539 190 527.5 178 c 128,-1,3
 516 166 516 166 496 166 c 256,4,5
 476 166 476 166 462.5 180.5 c 128,-1,6
 449 195 449 195 451 219 c 1,7,-1
 456 369 l 1,8,-1
 456 527 l 1,9,10
 355 527 355 527 293 527 c 128,-1,11
 231 527 231 527 214 526 c 0,12,13
 168 523 168 523 146 521 c 128,-1,14
 124 519 124 519 110.5 533 c 128,-1,15
 97 547 97 547 97 566.5 c 128,-1,16
 97 586 97 586 108.5 597.5 c 128,-1,17
 120 609 120 609 136 609 c 0,18,19
 174 609 174 609 200 606 c 2,20,-1
 236 603 l 2,21,22
 258 601 258 601 292 601 c 2,23,-1
 456 601 l 1,24,-1
 456 759 l 1,25,-1
 451 910 l 1,26,27
 449 934 449 934 462.5 948 c 128,-1,28
 476 962 476 962 496 962 c 256,29,30
 516 962 516 962 527.5 950 c 128,-1,31
 539 938 539 938 539 920 c 2,32,-1
 531 766 l 1,33,-1
 531 601 l 1,34,-1
 694 601 l 2,35,36
 728 601 728 601 744 602 c 2,37,-1
 772 605 l 2,38,39
 816 609 816 609 842 609 c 0,40,41
 893 609 893 609 893 566 c 0,42,43
 893 547 893 547 877.5 533 c 128,-1,44
 862 519 862 519 846 520 c 0,45,46
 779 527 779 527 745 527 c 2,47,-1
 531 527 l 1,48,-1
 531 365 l 1,0,-1
EndSplineSet
EndChar

StartChar: comma
Encoding: 44 44 34
Width: 682
GlyphClass: 2
Flags: W
LayerCount: 2
Fore
SplineSet
446 15 m 1,0,1
 393 -19 393 -19 328.5 -19 c 128,-1,2
 264 -19 264 -19 223.5 -1.5 c 128,-1,3
 183 16 183 16 155 44 c 0,4,5
 97 104 97 104 97 181 c 0,6,7
 97 264 97 264 158 322 c 0,8,9
 221 381 221 381 316 381 c 0,10,11
 429 381 429 381 496 312 c 0,12,13
 561 246 561 246 561 140 c 0,14,15
 561 -21 561 -21 456 -146 c 1,16,17
 402 -212 402 -212 371.5 -224 c 128,-1,18
 341 -236 341 -236 324 -236 c 0,19,20
 277 -236 277 -236 277 -192 c 0,21,22
 277 -176 277 -176 288 -171 c 2,23,-1
 325 -155 l 2,24,25
 376 -132 376 -132 422 -65 c 1,26,27
 442 -34 442 -34 446 15 c 1,0,1
EndSplineSet
EndChar

StartChar: hyphen
Encoding: 45 45 35
Width: 737
GlyphClass: 2
Flags: W
LayerCount: 2
Fore
SplineSet
262 611 m 1,0,-1
 152 605 l 1,1,2
 128 605 128 605 112.5 617 c 128,-1,3
 97 629 97 629 97 648 c 0,4,5
 97 692 97 692 152 692 c 1,6,7
 152 692 152 692 295 683 c 1,8,-1
 400 683 l 1,9,-1
 559 692 l 1,10,11
 616 692 616 692 616 648.5 c 128,-1,12
 616 605 616 605 555 605 c 0,13,14
 538 605 538 605 523 606 c 2,15,-1
 492 608 l 1,16,17
 465 611 465 611 412 611 c 0,18,19
 337 611 337 611 262 611 c 1,0,-1
EndSplineSet
EndChar

StartChar: period
Encoding: 46 46 36
Width: 685
GlyphClass: 2
Flags: W
LayerCount: 2
Fore
SplineSet
112 109 m 0,0,1
 97 149 97 149 97 193 c 128,-1,2
 97 237 97 237 114.5 273.5 c 128,-1,3
 132 310 132 310 164 338 c 0,4,5
 232 399 232 399 334 399 c 0,6,7
 439 399 439 399 504 330 c 0,8,9
 564 267 564 267 564 182 c 256,10,11
 564 97 564 97 496 40 c 0,12,13
 426 -19 426 -19 328 -19 c 0,14,15
 162 -19 162 -19 112 109 c 0,0,1
EndSplineSet
EndChar

StartChar: slash
Encoding: 47 47 37
Width: 680
GlyphClass: 2
Flags: W
LayerCount: 2
Fore
SplineSet
123 -19 m 0,0,1
 82 -19 82 -19 82 29 c 0,2,3
 82 56 82 56 108 93 c 1,4,5
 130 137 130 137 157 227 c 2,6,-1
 464 1279 l 2,7,8
 504 1414 504 1414 536 1428 c 0,9,10
 547 1433 547 1433 561 1433 c 0,11,12
 599 1433 599 1433 599 1396 c 0,13,14
 599 1375 599 1375 588 1354.5 c 128,-1,15
 577 1334 577 1334 571.5 1322 c 128,-1,16
 566 1310 566 1310 560 1296 c 1,17,-1
 550 1267 l 2,18,19
 544 1252 544 1252 540 1239 c 2,20,-1
 218 148 l 2,21,22
 186 39 186 39 172 16 c 0,23,24
 151 -19 151 -19 123 -19 c 0,0,1
EndSplineSet
EndChar

StartChar: zero
Encoding: 48 48 38
Width: 1348
GlyphClass: 2
Flags: W
LayerCount: 2
Fore
SplineSet
670 -19 m 0,0,1
 533 -19 533 -19 425.5 28 c 128,-1,2
 318 75 318 75 243 169 c 0,3,4
 88 363 88 363 88 736 c 0,5,6
 88 1068 88 1068 244 1250 c 0,7,8
 400 1433 400 1433 687 1433 c 0,9,10
 963 1433 963 1433 1113 1248 c 1,11,12
 1260 1065 1260 1065 1260 722 c 0,13,14
 1260 360 1260 360 1102 167 c 1,15,16
 948 -19 948 -19 670 -19 c 0,0,1
677 50 m 2,17,18
 1032 50 1032 50 1143 414 c 0,19,20
 1182 541 1182 541 1182 719 c 128,-1,21
 1182 897 1182 897 1145 1020 c 128,-1,22
 1108 1143 1108 1143 1042 1220 c 0,23,24
 915 1368 915 1368 685 1368 c 2,25,-1
 674 1368 l 1,26,-1
 674 50 l 1,27,-1
 677 50 l 2,17,18
EndSplineSet
EndChar

StartChar: one
Encoding: 49 49 39
Width: 986
GlyphClass: 2
Flags: W
LayerCount: 2
Fore
SplineSet
280 1212 m 1,0,-1
 215 1193 l 2,1,2
 153 1175 153 1175 122 1159 c 0,3,4
 67 1129 67 1129 41 1130 c 0,5,6
 -2 1131 -2 1131 1 1167 c 1,7,8
 3 1204 3 1204 68 1219 c 1,9,10
 105 1229 105 1229 142 1240 c 2,11,-1
 791 1435 l 1,12,-1
 791 0 l 1,13,-1
 279 0 l 1,14,-1
 280 1212 l 1,0,-1
EndSplineSet
EndChar

StartChar: two
Encoding: 50 50 40
Width: 1248
GlyphClass: 2
Flags: W
LayerCount: 2
Fore
SplineSet
1111 50 m 0,0,1
 1111 0 1111 0 1010 0 c 2,2,-1
 38 0 l 1,3,4
 63 200 63 200 350 605 c 1,5,6
 681 1057 681 1057 705.5 1098 c 128,-1,7
 730 1139 730 1139 738 1158 c 0,8,9
 752 1188 752 1188 752 1219 c 128,-1,10
 752 1250 752 1250 738.5 1277.5 c 128,-1,11
 725 1305 725 1305 698 1324 c 0,12,13
 639 1366 639 1366 530 1366 c 0,14,15
 427 1366 427 1366 352 1334 c 0,16,17
 225 1279 225 1279 189 1219 c 1,18,19
 162 1177 162 1177 127 1177 c 128,-1,20
 92 1177 92 1177 92 1220 c 0,21,22
 92 1273 92 1273 188 1336 c 1,23,24
 340 1433 340 1433 549 1433 c 0,25,26
 804 1433 804 1433 958 1324 c 0,27,28
 1105 1220 1105 1220 1105 1058 c 0,29,30
 1105 965 1105 965 1079.5 903.5 c 128,-1,31
 1054 842 1054 842 1030 798 c 128,-1,32
 1006 754 1006 754 972 700 c 1,33,-1
 780 413 l 1,34,35
 642 210 642 210 587 72 c 1,36,-1
 880 72 l 2,37,38
 936 72 936 72 984 81 c 0,39,40
 1043 92 1043 92 1065.5 92 c 128,-1,41
 1088 92 1088 92 1099.5 78.5 c 128,-1,42
 1111 65 1111 65 1111 50 c 0,0,1
EndSplineSet
EndChar

StartChar: three
Encoding: 51 51 41
Width: 1298
GlyphClass: 2
Flags: W
LayerCount: 2
Fore
SplineSet
564 824 m 1,0,1
 588 824 588 824 610 826 c 1,2,-1
 610 1358 l 1,3,-1
 588 1360 l 2,4,5
 577 1361 577 1361 567 1361 c 128,-1,6
 557 1361 557 1361 524.5 1361 c 128,-1,7
 492 1361 492 1361 444 1354.5 c 128,-1,8
 396 1348 396 1348 357 1336 c 0,9,10
 279 1314 279 1314 247 1277 c 0,11,12
 217 1242 217 1242 190 1240 c 0,13,14
 136 1236 136 1236 134 1275 c 0,15,16
 130 1335 130 1335 302 1394 c 1,17,18
 423 1433 423 1433 570.5 1433 c 128,-1,19
 718 1433 718 1433 817.5 1407 c 128,-1,20
 917 1381 917 1381 982 1336 c 0,21,22
 1111 1248 1111 1248 1111 1096 c 0,23,24
 1111 947 1111 947 960 846 c 0,25,26
 908 811 908 811 838 788 c 1,27,28
 1068 714 1068 714 1140 533 c 0,29,30
 1163 473 1163 473 1163 392 c 128,-1,31
 1163 311 1163 311 1121.5 233 c 128,-1,32
 1080 155 1080 155 1002 99 c 0,33,34
 838 -19 838 -19 555 -19 c 0,35,36
 312 -19 312 -19 135 116 c 0,37,38
 73 163 73 163 52 218 c 0,39,40
 46 234 46 234 47 246 c 0,41,42
 50 288 50 288 85 285 c 1,43,44
 121 280 121 280 141 240.5 c 128,-1,45
 161 201 161 201 196 169.5 c 128,-1,46
 231 138 231 138 280 112 c 0,47,48
 389 55 389 55 518 55 c 2,49,-1
 610 55 l 1,50,-1
 610 746 l 1,51,52
 574 750 574 750 544 750 c 2,53,-1
 506 750 l 1,54,-1
 402 744 l 1,55,56
 333 744 333 744 333 783 c 0,57,58
 333 831 333 831 399 831 c 1,59,-1
 564 824 l 1,0,1
729 1334 m 1,60,61
 708 1341 708 1341 683 1346 c 1,62,-1
 729 1334 l 1,60,61
EndSplineSet
EndChar

StartChar: four
Encoding: 52 52 42
Width: 1477
GlyphClass: 2
Flags: W
LayerCount: 2
Fore
SplineSet
158 279 m 1,0,-1
 116 278 l 1,1,-1
 103 278 l 2,2,3
 78 278 78 278 56 293 c 128,-1,4
 34 308 34 308 34 333.5 c 128,-1,5
 34 359 34 359 38.5 374.5 c 128,-1,6
 43 390 43 390 53 407 c 128,-1,7
 63 424 63 424 78 446 c 2,8,-1
 736 1414 l 1,9,-1
 1149 1414 l 1,10,-1
 1149 354 l 1,11,12
 1272 354 1272 354 1294 360 c 0,13,14
 1328 368 1328 368 1345.5 368 c 128,-1,15
 1363 368 1363 368 1375 357 c 128,-1,16
 1387 346 1387 346 1387 328 c 0,17,18
 1387 288 1387 288 1326 284 c 1,19,20
 1288 279 1288 279 1219 279 c 2,21,-1
 1149 279 l 1,22,-1
 1149 0 l 1,23,-1
 637 0 l 1,24,-1
 637 279 l 1,25,26
 398 279 398 279 158 279 c 1,0,-1
637 354 m 1,27,-1
 637 1128 l 1,28,-1
 141 386 l 2,29,30
 128 366 128 366 134.5 360 c 128,-1,31
 141 354 141 354 173 354 c 2,32,-1
 637 354 l 1,27,-1
EndSplineSet
EndChar

StartChar: five
Encoding: 53 53 43
Width: 1259
GlyphClass: 2
Flags: W
LayerCount: 2
Fore
SplineSet
271 921 m 1,0,1
 427 990 427 990 579.5 990 c 128,-1,2
 732 990 732 990 838.5 948.5 c 128,-1,3
 945 907 945 907 1018 837 c 0,4,5
 1165 695 1165 695 1165 488 c 0,6,7
 1165 275 1165 275 1006 132 c 0,8,9
 839 -19 839 -19 566 -19 c 0,10,11
 374 -19 374 -19 191 96 c 1,12,13
 126 139 126 139 98 194 c 0,14,15
 90 209 90 209 90 221 c 0,16,17
 90 270 90 270 126 270 c 0,18,19
 161 270 161 270 185.5 229 c 128,-1,20
 210 188 210 188 246 157 c 128,-1,21
 282 126 282 126 332 102 c 0,22,23
 440 51 440 51 575 51 c 2,24,-1
 604 51 l 2,25,26
 618 51 618 51 631 53 c 1,27,-1
 631 914 l 1,28,29
 598 917 598 917 543.5 917 c 128,-1,30
 489 917 489 917 411.5 896 c 128,-1,31
 334 875 334 875 293 853 c 0,32,33
 239 824 239 824 220 824 c 128,-1,34
 201 824 201 824 191.5 837 c 128,-1,35
 182 850 182 850 184 864 c 2,36,-1
 237 1320 l 1,37,38
 239 1328 239 1328 239 1336 c 2,39,-1
 239 1353 l 2,40,41
 239 1405 239 1405 247 1413 c 0,42,43
 259 1424 259 1424 288 1424 c 1,44,-1
 435 1414 l 1,45,-1
 632 1414 l 2,46,47
 878 1414 878 1414 982 1434 c 0,48,49
 990 1435 990 1435 1005 1435 c 128,-1,50
 1020 1435 1020 1435 1032 1421 c 128,-1,51
 1044 1407 1044 1407 1044 1392 c 0,52,53
 1044 1345 1044 1345 932 1344 c 0,54,55
 903 1343 903 1343 877 1343 c 2,56,-1
 320 1343 l 1,57,-1
 271 921 l 1,0,1
EndSplineSet
EndChar

StartChar: six
Encoding: 54 54 44
Width: 1396
GlyphClass: 2
Flags: W
LayerCount: 2
Fore
SplineSet
1097 1256 m 1,0,1
 1010 1366 1010 1366 814 1366 c 0,2,3
 730 1366 730 1366 669 1352 c 1,4,-1
 669 55 l 1,5,6
 697 51 697 51 728 51 c 0,7,8
 961 51 961 51 1098 184 c 0,9,10
 1226 308 1226 308 1226 495 c 0,11,12
 1226 659 1226 659 1138 754 c 0,13,14
 1051 849 1051 849 904 849 c 0,15,16
 852 849 852 849 830 840 c 0,17,18
 768 817 768 817 740 828 c 0,19,20
 727 833 727 833 723.5 853 c 128,-1,21
 720 873 720 873 731 884.5 c 128,-1,22
 742 896 742 896 762 902 c 0,23,24
 811 919 811 919 900 919 c 128,-1,25
 989 919 989 919 1061 894 c 128,-1,26
 1133 869 1133 869 1187 816 c 0,27,28
 1304 701 1304 701 1304 485 c 0,29,30
 1304 254 1304 254 1131 112 c 0,31,32
 970 -19 970 -19 738 -19 c 0,33,34
 477 -19 477 -19 316 146 c 0,35,36
 136 330 136 330 136 675 c 0,37,38
 136 1027 136 1027 332 1236 c 0,39,40
 517 1433 517 1433 802 1433 c 0,41,42
 973 1433 973 1433 1100 1361 c 1,43,44
 1194 1306 1194 1306 1194 1249 c 0,45,46
 1194 1217 1194 1217 1156 1217 c 0,47,48
 1134 1217 1134 1217 1121 1230 c 2,49,-1
 1097 1256 l 1,0,1
EndSplineSet
EndChar

StartChar: seven
Encoding: 55 55 45
Width: 1224
GlyphClass: 2
Flags: W
LayerCount: 2
Fore
SplineSet
896 176 m 0,0,1
 896 74 896 74 900 0 c 1,2,-1
 335 0 l 1,3,4
 330 53 330 53 330 145.5 c 128,-1,5
 330 238 330 238 340.5 352 c 128,-1,6
 351 466 351 466 369 581 c 128,-1,7
 387 696 387 696 412 808.5 c 128,-1,8
 437 921 437 921 466 1021 c 0,9,10
 526 1226 526 1226 591 1343 c 1,11,-1
 563 1343 l 1,12,-1
 304 1344 l 1,13,-1
 233 1344 l 2,14,15
 201 1344 201 1344 180 1342 c 1,16,17
 178 1307 178 1307 173 1284.5 c 128,-1,18
 168 1262 168 1262 166 1247 c 0,19,20
 159 1195 159 1195 155 1178 c 0,21,22
 143 1136 143 1136 102 1146 c 0,23,24
 83 1150 83 1150 72 1167 c 128,-1,25
 61 1184 61 1184 64.5 1200 c 128,-1,26
 68 1216 68 1216 74 1234.5 c 128,-1,27
 80 1253 80 1253 86 1277 c 0,28,29
 103 1338 103 1338 103 1376 c 128,-1,30
 103 1414 103 1414 151 1414 c 2,31,-1
 1164 1414 l 1,32,33
 1064 1228 1064 1228 986 896 c 1,34,35
 896 520 896 520 896 176 c 0,0,1
EndSplineSet
EndChar

StartChar: eight
Encoding: 56 56 46
Width: 1362
GlyphClass: 2
Flags: W
LayerCount: 2
Fore
SplineSet
145 200.5 m 128,-1,1
 103 270 103 270 103 342 c 128,-1,2
 103 414 103 414 119.5 462.5 c 128,-1,3
 136 511 136 511 163 548 c 0,4,5
 219 624 219 624 298 636 c 0,6,7
 318 639 318 639 329.5 627 c 128,-1,8
 341 615 341 615 341 599.5 c 128,-1,9
 341 584 341 584 328.5 570 c 128,-1,10
 316 556 316 556 289 551 c 128,-1,11
 262 546 262 546 239.5 524.5 c 128,-1,12
 217 503 217 503 204 475 c 0,13,14
 181 425 181 425 181 355.5 c 128,-1,15
 181 286 181 286 215.5 228.5 c 128,-1,16
 250 171 250 171 312 131 c 0,17,18
 441 49 441 49 649 49 c 0,19,20
 752 49 752 49 838 94 c 0,21,22
 926 139 926 139 926 200 c 0,23,24
 926 254 926 254 880 306 c 1,25,26
 810 382 810 382 633.5 486.5 c 128,-1,27
 457 591 457 591 367 658.5 c 128,-1,28
 277 726 277 726 226 788 c 0,29,30
 135 896 135 896 135 1036 c 1,31,32
 137 1211 137 1211 301 1322 c 1,33,34
 463 1433 463 1433 722 1433 c 0,35,36
 888 1433 888 1433 1024 1367 c 0,37,38
 1125 1319 1125 1319 1167 1236 c 0,39,40
 1189 1194 1189 1194 1189 1134 c 128,-1,41
 1189 1074 1189 1074 1173.5 1028 c 128,-1,42
 1158 982 1158 982 1131 952 c 0,43,44
 1083 898 1083 898 994 877 c 0,45,46
 982 874 982 874 968.5 874 c 128,-1,47
 955 874 955 874 944 885 c 128,-1,48
 933 896 933 896 933 910.5 c 128,-1,49
 933 925 933 925 945.5 939.5 c 128,-1,50
 958 954 958 954 986 955.5 c 128,-1,51
 1014 957 1014 957 1037.5 968 c 128,-1,52
 1061 979 1061 979 1078 1000 c 0,53,54
 1116 1045 1116 1045 1116 1108 c 128,-1,55
 1116 1171 1116 1171 1097 1208 c 128,-1,56
 1078 1245 1078 1245 1046 1272 c 128,-1,57
 1014 1299 1014 1299 973.5 1318 c 128,-1,58
 933 1337 933 1337 890 1349 c 0,59,60
 811 1371 811 1371 728 1371 c 0,61,62
 577 1371 577 1371 512 1310 c 1,63,64
 488 1286 488 1286 488 1251.5 c 128,-1,65
 488 1217 488 1217 503.5 1181 c 128,-1,66
 519 1145 519 1145 556 1106 c 0,67,68
 636 1020 636 1020 793 931.5 c 128,-1,69
 950 843 950 843 1043 778 c 128,-1,70
 1136 713 1136 713 1190 656 c 0,71,72
 1286 553 1286 553 1286 422 c 1,73,74
 1284 256 1284 256 1167 148 c 0,75,76
 986 -19 986 -19 637 -19 c 0,77,78
 410 -19 410 -19 259 82 c 0,79,0
 187 131 187 131 145 200.5 c 128,-1,1
EndSplineSet
EndChar

StartChar: nine
Encoding: 57 57 47
Width: 1364
GlyphClass: 2
Flags: W
LayerCount: 2
Fore
SplineSet
727 1356 m 1,0,1
 699 1360 699 1360 668 1360 c 0,2,3
 426 1360 426 1360 292 1226 c 0,4,5
 172 1106 172 1106 172 914 c 0,6,7
 172 745 172 745 275 650 c 0,8,9
 369 562 369 562 532 556 c 0,10,11
 552 555 552 555 572 559 c 2,12,-1
 601 565 l 2,13,14
 669 579 669 579 673 531 c 0,15,16
 676 485 676 485 575 485 c 0,17,18
 564 485 564 485 553 485 c 128,-1,19
 542 485 542 485 497 487 c 128,-1,20
 452 489 452 489 373.5 511.5 c 128,-1,21
 295 534 295 534 232 585 c 0,22,23
 92 700 92 700 92 930 c 0,24,25
 92 1161 92 1161 266 1302 c 0,26,27
 428 1433 428 1433 660 1433 c 0,28,29
 920 1433 920 1433 1082 1268 c 1,30,31
 1260 1085 1260 1085 1260 740 c 0,32,33
 1260 386 1260 386 1064 178 c 1,34,35
 880 -19 880 -19 596 -19 c 0,36,37
 421 -19 421 -19 296 54 c 0,38,39
 203 108 203 108 203 166 c 0,40,41
 203 199 203 199 242 199 c 0,42,43
 263 199 263 199 276 185 c 2,44,-1
 299 158 l 1,45,46
 389 49 389 49 602 49 c 0,47,48
 666 49 666 49 727 63 c 1,49,-1
 727 1356 l 1,0,1
EndSplineSet
EndChar

StartChar: colon
Encoding: 58 58 48
Width: 685
GlyphClass: 2
Flags: W
LayerCount: 2
Fore
SplineSet
325 579 m 0,0,1
 272 579 272 579 229 594.5 c 128,-1,2
 186 610 186 610 157 638 c 0,3,4
 97 697 97 697 97 795 c 0,5,6
 97 877 97 877 164 936 c 0,7,8
 232 997 232 997 334 997 c 0,9,10
 439 997 439 997 504 928 c 0,11,12
 564 865 564 865 564 780 c 256,13,14
 564 695 564 695 496 638 c 0,15,16
 426 579 426 579 325 579 c 0,0,1
112 109 m 0,17,18
 97 149 97 149 97 193 c 128,-1,19
 97 237 97 237 114.5 273.5 c 128,-1,20
 132 310 132 310 164 338 c 0,21,22
 232 399 232 399 334 399 c 0,23,24
 439 399 439 399 504 330 c 0,25,26
 564 267 564 267 564 182 c 256,27,28
 564 97 564 97 496 40 c 0,29,30
 426 -19 426 -19 328 -19 c 0,31,32
 162 -19 162 -19 112 109 c 0,17,18
EndSplineSet
EndChar

StartChar: semicolon
Encoding: 59 59 49
Width: 685
GlyphClass: 2
Flags: W
LayerCount: 2
Fore
SplineSet
325 579 m 0,0,1
 272 579 272 579 229 594.5 c 128,-1,2
 186 610 186 610 157 638 c 0,3,4
 97 697 97 697 97 795 c 0,5,6
 97 877 97 877 164 936 c 0,7,8
 232 997 232 997 334 997 c 0,9,10
 439 997 439 997 504 928 c 0,11,12
 564 865 564 865 564 780 c 256,13,14
 564 695 564 695 496 638 c 0,15,16
 426 579 426 579 325 579 c 0,0,1
447 15 m 1,17,18
 394 -19 394 -19 329.5 -19 c 128,-1,19
 265 -19 265 -19 224.5 -1.5 c 128,-1,20
 184 16 184 16 156 44 c 0,21,22
 98 104 98 104 98 181 c 0,23,24
 98 264 98 264 159 322 c 0,25,26
 222 381 222 381 317 381 c 0,27,28
 430 381 430 381 498 312 c 0,29,30
 562 246 562 246 562 140 c 0,31,32
 562 -21 562 -21 458 -146 c 0,33,34
 403 -212 403 -212 372.5 -224 c 128,-1,35
 342 -236 342 -236 325 -236 c 0,36,37
 278 -236 278 -236 278 -192 c 0,38,39
 278 -176 278 -176 290 -171 c 2,40,-1
 326 -155 l 2,41,42
 377 -132 377 -132 423 -65 c 1,43,44
 443 -34 443 -34 447 15 c 1,17,18
EndSplineSet
EndChar

StartChar: less
Encoding: 60 60 50
Width: 935
GlyphClass: 2
Flags: W
LayerCount: 2
Fore
SplineSet
77 475 m 1,0,1
 30 511 30 511 30 536 c 0,2,3
 30 581 30 581 77 612 c 1,4,-1
 625 994 l 1,5,6
 679 1030 679 1030 706 1053 c 0,7,8
 745 1086 745 1086 770 1086 c 0,9,10
 818 1086 818 1086 818 1052 c 0,11,12
 818 1026 818 1026 775 999 c 0,13,14
 682 940 682 940 674 935 c 2,15,-1
 120 542 l 1,16,17
 620 178 620 178 643 163 c 2,18,-1
 755 89 l 2,19,20
 784 71 784 71 801 56.5 c 128,-1,21
 818 42 818 42 818 22.5 c 128,-1,22
 818 3 818 3 805.5 -8 c 128,-1,23
 793 -19 793 -19 778 -19 c 0,24,25
 750 -19 750 -19 721 4.5 c 128,-1,26
 692 28 692 28 652 57 c 2,27,-1
 77 475 l 1,0,1
EndSplineSet
EndChar

StartChar: equal
Encoding: 61 61 51
Width: 1014
GlyphClass: 2
Flags: W
LayerCount: 2
Fore
SplineSet
303 724 m 1,0,-1
 152 718 l 2,1,2
 128 718 128 718 112.5 730.5 c 128,-1,3
 97 743 97 743 97 762 c 0,4,5
 97 805 97 805 152 805 c 0,6,7
 165 805 165 805 180 804 c 2,8,-1
 211 802 l 1,9,10
 261 797 261 797 295 797 c 2,11,-1
 675 797 l 2,12,13
 736 797 736 797 764 800 c 0,14,15
 811 805 811 805 835 805 c 0,16,17
 893 805 893 805 893 762 c 0,18,19
 893 743 893 743 876.5 730.5 c 128,-1,20
 860 718 860 718 831 718 c 1,21,-1
 688 724 l 1,22,-1
 303 724 l 1,0,-1
262 332 m 1,23,-1
 152 326 l 1,24,25
 128 326 128 326 112.5 338.5 c 128,-1,26
 97 351 97 351 97 369 c 0,27,28
 97 414 97 414 152 414 c 1,29,-1
 295 405 l 1,30,-1
 675 405 l 1,31,-1
 835 414 l 1,32,33
 893 414 893 414 893 369 c 0,34,35
 893 351 893 351 876.5 338.5 c 128,-1,36
 860 326 860 326 831 326 c 1,37,-1
 731 332 l 1,38,39
 496 332 496 332 262 332 c 1,23,-1
EndSplineSet
EndChar

StartChar: greater
Encoding: 62 62 52
Width: 935
GlyphClass: 2
Flags: W
LayerCount: 2
Fore
SplineSet
114 -8 m 0,0,1
 102 3 102 3 102 22.5 c 128,-1,2
 102 42 102 42 119 56.5 c 128,-1,3
 136 71 136 71 156 84 c 0,4,5
 294 173 294 173 322 194 c 2,6,-1
 799 542 l 1,7,-1
 246 935 l 1,8,9
 174 980 174 980 163 987 c 128,-1,10
 152 994 152 994 134 1006 c 0,11,12
 102 1026 102 1026 102 1046 c 0,13,14
 102 1086 102 1086 142 1086 c 0,15,16
 174 1086 174 1086 201 1064 c 0,17,18
 246 1027 246 1027 295 994 c 2,19,-1
 843 612 l 1,20,21
 890 581 890 581 890 545 c 0,22,23
 890 511 890 511 843 475 c 1,24,-1
 232 31 l 2,25,26
 217 20 217 20 203 8 c 0,27,28
 148 -37 148 -37 114 -8 c 0,0,1
EndSplineSet
EndChar

StartChar: question
Encoding: 63 63 53
Width: 926
GlyphClass: 2
Flags: W
LayerCount: 2
Fore
SplineSet
674 502 m 0,0,1
 548 434 548 434 392 480 c 1,2,3
 258 518 258 518 198 630 c 0,4,5
 167 687 167 687 167 742.5 c 128,-1,6
 167 798 167 798 175 834 c 128,-1,7
 183 870 183 870 201 909 c 0,8,9
 236 986 236 986 296 1059 c 128,-1,10
 356 1132 356 1132 381.5 1168 c 128,-1,11
 407 1204 407 1204 423 1232 c 0,12,13
 452 1283 452 1283 452 1309 c 0,14,15
 452 1360 452 1360 394 1360 c 0,16,17
 307 1360 307 1360 236 1296 c 1,18,19
 210 1270 210 1270 190 1270 c 0,20,21
 149 1270 149 1270 149 1306 c 0,22,23
 149 1334 149 1334 184.5 1363 c 128,-1,24
 220 1392 220 1392 268 1408 c 0,25,26
 346 1433 346 1433 435.5 1433 c 128,-1,27
 525 1433 525 1433 591 1412 c 128,-1,28
 657 1391 657 1391 704 1354 c 0,29,30
 802 1275 802 1275 802 1160 c 128,-1,31
 802 1045 802 1045 742 927.5 c 128,-1,32
 682 810 682 810 611.5 721.5 c 128,-1,33
 541 633 541 633 530 613 c 128,-1,34
 519 593 519 593 519 577 c 0,35,36
 519 543 519 543 555 543 c 0,37,38
 604 543 604 543 636 567 c 0,39,40
 687 606 687 606 715 606 c 128,-1,41
 743 606 743 606 743 573 c 128,-1,42
 743 540 743 540 674 502 c 0,0,1
257 152 m 0,43,44
 257 237 257 237 313.5 285 c 128,-1,45
 370 333 370 333 465 333 c 256,46,47
 560 333 560 333 615 280 c 1,48,49
 665 230 665 230 665 151 c 0,50,51
 665 79 665 79 610 32 c 1,52,53
 552 -19 552 -19 459 -19 c 0,54,55
 317 -19 317 -19 271 83 c 0,56,57
 257 114 257 114 257 152 c 0,43,44
EndSplineSet
EndChar

StartChar: at
Encoding: 64 64 54
Width: 1935
GlyphClass: 2
Flags: W
LayerCount: 2
Fore
SplineSet
942 1021 m 0,0,1
 1063 1021 1063 1021 1159 950 c 1,2,-1
 1169 1007 l 1,3,-1
 1510 1007 l 1,4,-1
 1370 198 l 1,5,6
 1540 231 1540 231 1658 387 c 1,7,8
 1778 548 1778 548 1778 761 c 0,9,10
 1778 1039 1778 1039 1574 1188 c 0,11,12
 1378 1330 1378 1330 1041 1330 c 0,13,14
 813 1330 813 1330 608 1214 c 1,15,16
 407 1099 407 1099 288 911 c 0,17,18
 163 714 163 714 163 491 c 0,19,20
 163 149 163 149 402 -45 c 0,21,22
 618 -221 618 -221 919 -221 c 0,23,24
 1060 -221 1060 -221 1199 -163 c 0,25,26
 1242 -146 1242 -146 1261.5 -146 c 128,-1,27
 1281 -146 1281 -146 1293 -157 c 128,-1,28
 1305 -168 1305 -168 1305 -188 c 0,29,30
 1305 -247 1305 -247 1090 -280 c 0,31,32
 994 -295 994 -295 895.5 -295 c 128,-1,33
 797 -295 797 -295 693 -272.5 c 128,-1,34
 589 -250 589 -250 497.5 -205.5 c 128,-1,35
 406 -161 406 -161 330 -95 c 128,-1,36
 254 -29 254 -29 200 58 c 0,37,38
 84 241 84 241 84 485 c 0,39,40
 84 736 84 736 220 950 c 0,41,42
 351 1156 351 1156 574 1277 c 0,43,44
 800 1400 800 1400 1058 1400 c 0,45,46
 1411 1400 1411 1400 1628 1232 c 0,47,48
 1856 1055 1856 1055 1856 752 c 0,49,50
 1856 554 1856 554 1748 396 c 0,51,52
 1648 248 1648 248 1474 164 c 0,53,54
 1304 81 1304 81 1106 81 c 1,55,-1
 1009 91 l 1,56,-1
 1024 175 l 1,57,58
 899 103 899 103 802 103 c 128,-1,59
 705 103 705 103 641.5 128.5 c 128,-1,60
 578 154 578 154 534 202 c 0,61,62
 442 301 442 301 442 475 c 0,63,64
 442 706 442 706 570 857 c 0,65,66
 708 1021 708 1021 942 1021 c 0,0,1
789 178 m 1,67,68
 793 177 793 177 827.5 177 c 128,-1,69
 862 177 862 177 921.5 198.5 c 128,-1,70
 981 220 981 220 1039 260 c 1,71,-1
 1145 873 l 1,72,73
 1048 948 1048 948 933 948 c 2,74,-1
 929 948 l 1,75,-1
 789 178 l 1,67,68
EndSplineSet
EndChar

StartChar: A
Encoding: 65 65 55
Width: 1355
GlyphClass: 2
Flags: W
LayerCount: 2
Fore
SplineSet
427 178 m 2,0,1
 244 178 244 178 177 181 c 1,2,-1
 148 112 l 2,3,4
 135 83 135 83 124 51 c 0,5,6
 101 -11 101 -11 60 -11 c 0,7,8
 41 -11 41 -11 29 1 c 128,-1,9
 17 13 17 13 17 26 c 0,10,11
 17 48 17 48 36 75 c 0,12,13
 66 117 66 117 95 185 c 1,14,15
 9 193 9 193 9 235 c 128,-1,16
 9 277 9 277 58 277 c 0,17,18
 88 277 88 277 128 267 c 1,19,-1
 627 1479 l 1,20,-1
 1311 0 l 1,21,-1
 790 0 l 1,22,-1
 707 178 l 1,23,-1
 427 178 l 2,0,1
209 259 m 1,24,25
 305 251 305 251 381 251 c 2,26,-1
 674 251 l 1,27,-1
 424 790 l 1,28,-1
 209 259 l 1,24,25
EndSplineSet
EndChar

StartChar: B
Encoding: 66 66 56
Width: 1503
GlyphClass: 2
Flags: W
LayerCount: 2
Fore
SplineSet
177 1415 m 1,0,1
 447 1415 447 1415 606.5 1415 c 128,-1,2
 766 1415 766 1415 800 1414 c 0,3,4
 948 1407 948 1407 1009 1379.5 c 128,-1,5
 1070 1352 1070 1352 1106 1318 c 1,6,7
 1183 1242 1183 1242 1183 1134 c 0,8,9
 1183 1027 1183 1027 1108 946 c 0,10,11
 1085 921 1085 921 1055 903 c 1,12,13
 1218 873 1218 873 1322 766 c 0,14,15
 1435 650 1435 650 1435 483 c 0,16,17
 1435 313 1435 313 1330 190 c 1,18,19
 1183 20 1183 20 876 4 c 0,20,21
 798 0 798 0 722 0 c 2,22,-1
 177 0 l 1,23,-1
 177 1415 l 1,0,1
833 923 m 1,24,-1
 884 917 l 1,25,-1
 900 917 l 2,26,27
 979 917 979 917 1037 975 c 0,28,29
 1099 1037 1099 1037 1099 1127 c 0,30,31
 1099 1237 1099 1237 1004 1296 c 0,32,33
 956 1326 956 1326 908.5 1331.5 c 128,-1,34
 861 1337 861 1337 834 1339 c 0,35,36
 778 1343 778 1343 687 1343 c 1,37,-1
 687 74 l 1,38,-1
 798 74 l 2,39,40
 968 74 968 74 1075 116 c 1,41,42
 1203 160 1203 160 1278 258 c 0,43,44
 1349 351 1349 351 1349 453 c 128,-1,45
 1349 555 1349 555 1319 625 c 128,-1,46
 1289 695 1289 695 1232 744 c 0,47,48
 1116 845 1116 845 909 845 c 1,49,-1
 840 839 l 1,50,51
 808 839 808 839 793 852 c 128,-1,52
 778 865 778 865 778 882 c 0,53,54
 778 923 778 923 833 923 c 1,24,-1
EndSplineSet
EndChar

StartChar: C
Encoding: 67 67 57
Width: 1436
GlyphClass: 2
Flags: W
LayerCount: 2
Fore
SplineSet
1324 237 m 0,0,1
 1365 237 1365 237 1365 191 c 0,2,3
 1365 153 1365 153 1307 115 c 0,4,5
 1199 44 1199 44 1125 22 c 0,6,7
 986 -19 986 -19 833 -19 c 128,-1,8
 680 -19 680 -19 538.5 35.5 c 128,-1,9
 397 90 397 90 297 188 c 0,10,11
 88 394 88 394 88 720 c 0,12,13
 88 877 88 877 147 1008.5 c 128,-1,14
 206 1140 206 1140 310 1234 c 0,15,16
 530 1433 530 1433 863 1433 c 0,17,18
 1050 1433 1050 1433 1192 1369 c 0,19,20
 1343 1302 1343 1302 1343 1255 c 0,21,22
 1343 1236 1343 1236 1330.5 1222 c 128,-1,23
 1318 1208 1318 1208 1302 1208 c 0,24,25
 1270 1208 1270 1208 1244 1236.5 c 128,-1,26
 1218 1265 1218 1265 1173.5 1288 c 128,-1,27
 1129 1311 1129 1311 1076 1328 c 0,28,29
 968 1361 968 1361 879.5 1361 c 128,-1,30
 791 1361 791 1361 733 1349 c 1,31,-1
 733 67 l 1,32,33
 803 55 803 55 857 55 c 128,-1,34
 911 55 911 55 967 62 c 128,-1,35
 1023 69 1023 69 1077 85 c 0,36,37
 1198 121 1198 121 1259 191 c 0,38,39
 1281 217 1281 217 1294 227 c 128,-1,40
 1307 237 1307 237 1324 237 c 0,0,1
EndSplineSet
EndChar

StartChar: D
Encoding: 68 68 58
Width: 1578
GlyphClass: 2
Flags: W
LayerCount: 2
Fore
SplineSet
177 1415 m 1,0,-1
 593 1415 l 2,1,2
 884 1415 884 1415 1020 1374 c 1,3,4
 1175 1326 1175 1326 1259.5 1251 c 128,-1,5
 1344 1176 1344 1176 1392 1096 c 0,6,7
 1490 933 1490 933 1490 726 c 0,8,9
 1490 400 1490 400 1256 198 c 1,10,11
 1090 53 1090 53 865 19 c 0,12,13
 740 0 740 0 515 0 c 2,14,-1
 177 0 l 1,15,-1
 177 1415 l 1,0,-1
687 83 m 1,16,17
 703 82 703 82 716 82 c 2,18,-1
 739 82 l 2,19,20
 1010 82 1010 82 1202 251 c 0,21,22
 1405 429 1405 429 1405 724 c 0,23,24
 1405 910 1405 910 1316 1059 c 0,25,26
 1187 1276 1187 1276 908 1322 c 0,27,28
 817 1337 817 1337 687 1339 c 1,29,-1
 687 83 l 1,16,17
EndSplineSet
EndChar

StartChar: E
Encoding: 69 69 59
Width: 1196
GlyphClass: 2
Flags: W
LayerCount: 2
Fore
SplineSet
1054 86 m 0,0,1
 1105 86 1105 86 1105 46 c 0,2,3
 1105 28 1105 28 1083 14 c 128,-1,4
 1061 0 1061 0 1007 0 c 2,5,-1
 160 0 l 1,6,-1
 160 1415 l 1,7,8
 554 1415 554 1415 948 1415 c 1,9,-1
 1030 1418 l 1,10,11
 1105 1418 1105 1418 1105 1374 c 0,12,13
 1105 1357 1105 1357 1092.5 1342.5 c 128,-1,14
 1080 1328 1080 1328 1064 1328 c 0,15,16
 1038 1328 1038 1328 1009 1334 c 0,17,18
 966 1343 966 1343 891 1343 c 2,19,-1
 670 1343 l 1,20,-1
 670 1038 l 1,21,-1
 852 1038 l 1,22,23
 852 1038 852 1038 975 1043 c 0,24,25
 997 1043 997 1043 1012.5 1032.5 c 128,-1,26
 1028 1022 1028 1022 1028 1003 c 0,27,28
 1028 961 1028 961 972 961 c 1,29,-1
 929 962 l 1,30,31
 896 965 896 965 874 965 c 2,32,-1
 670 965 l 1,33,-1
 670 73 l 1,34,-1
 891 73 l 2,35,36
 965 73 965 73 996 79 c 0,37,38
 1033 86 1033 86 1054 86 c 0,0,1
EndSplineSet
EndChar

StartChar: F
Encoding: 70 70 60
Width: 1158
GlyphClass: 2
Flags: W
LayerCount: 2
Fore
SplineSet
1008 908 m 1,0,-1
 967 909 l 1,1,2
 945 911 945 911 911 911 c 2,3,-1
 687 911 l 1,4,-1
 687 0 l 1,5,-1
 177 0 l 1,6,-1
 177 1415 l 1,7,-1
 971 1415 l 1,8,-1
 1070 1418 l 1,9,-1
 1088 1418 l 2,10,11
 1163 1418 1163 1418 1163 1374 c 0,12,13
 1163 1357 1163 1357 1149.5 1342.5 c 128,-1,14
 1136 1328 1136 1328 1120 1328 c 0,15,16
 1094 1328 1094 1328 1070 1333 c 0,17,18
 1024 1343 1024 1343 950 1343 c 2,19,-1
 687 1343 l 1,20,-1
 687 983 l 1,21,-1
 888 983 l 1,22,23
 888 983 888 983 1012 988 c 1,24,25
 1066 988 1066 988 1066 948 c 128,-1,26
 1066 908 1066 908 1008 908 c 1,0,-1
EndSplineSet
EndChar

StartChar: G
Encoding: 71 71 61
Width: 1619
GlyphClass: 2
Flags: W
LayerCount: 2
Fore
SplineSet
1364 73 m 1,0,-1
 1366 142 l 1,1,-1
 1366 300 l 1,2,3
 1225 65 1225 65 950 1 c 0,4,5
 863 -19 863 -19 747.5 -19 c 128,-1,6
 632 -19 632 -19 508.5 29 c 128,-1,7
 385 77 385 77 292 168 c 0,8,9
 88 366 88 366 88 689 c 0,10,11
 88 998 88 998 304 1212 c 1,12,13
 529 1433 529 1433 869 1433 c 0,14,15
 1041 1433 1041 1433 1180 1369 c 1,16,17
 1265 1331 1265 1331 1300 1298.5 c 128,-1,18
 1335 1266 1335 1266 1335 1246.5 c 128,-1,19
 1335 1227 1335 1227 1323 1213 c 128,-1,20
 1311 1199 1311 1199 1289.5 1199 c 128,-1,21
 1268 1199 1268 1199 1242 1222 c 0,22,23
 1165 1290 1165 1290 1106.5 1311 c 128,-1,24
 1048 1332 1048 1332 1013 1341 c 128,-1,25
 978 1350 978 1350 950 1354 c 0,26,27
 907 1360 907 1360 848 1360 c 128,-1,28
 789 1360 789 1360 739 1350 c 1,29,-1
 739 56 l 1,30,31
 750 55 750 55 761 55 c 2,32,-1
 781 55 l 2,33,34
 1078 55 1078 55 1262 280 c 0,35,36
 1325 357 1325 357 1366 462 c 1,37,-1
 1366 558 l 1,38,39
 1366 558 1366 558 1361 648 c 1,40,41
 1361 701 1361 701 1403 701 c 0,42,43
 1425 701 1425 701 1437 686.5 c 128,-1,44
 1449 672 1449 672 1449 651 c 1,45,-1
 1443 568 l 1,46,-1
 1443 196 l 1,47,-1
 1449 41 l 2,48,49
 1449 17 1449 17 1435.5 3 c 128,-1,50
 1422 -11 1422 -11 1404 -11 c 0,51,52
 1360 -11 1360 -11 1360 35 c 0,53,54
 1360 47 1360 47 1364 73 c 1,0,-1
EndSplineSet
EndChar

StartChar: H
Encoding: 72 72 62
Width: 1461
GlyphClass: 2
Flags: W
LayerCount: 2
Fore
SplineSet
1268 145 m 1,0,-1
 1271 43 l 2,1,2
 1271 17 1271 17 1256 3 c 128,-1,3
 1241 -11 1241 -11 1221.5 -11 c 128,-1,4
 1202 -11 1202 -11 1190.5 2 c 128,-1,5
 1179 15 1179 15 1179 35 c 256,6,7
 1179 55 1179 55 1184 80 c 0,8,9
 1191 111 1191 111 1191 235 c 2,10,-1
 1191 965 l 1,11,-1
 688 965 l 1,12,-1
 688 0 l 1,13,-1
 177 0 l 1,14,-1
 177 1415 l 1,15,-1
 688 1415 l 1,16,-1
 688 1038 l 1,17,18
 904 1038 904 1038 1032.5 1038 c 128,-1,19
 1161 1038 1161 1038 1191 1039 c 1,20,-1
 1191 1213 l 2,21,22
 1191 1300 1191 1300 1188 1326 c 2,23,-1
 1184 1356 l 2,24,25
 1183 1370 1183 1370 1183 1380 c 0,26,27
 1183 1426 1183 1426 1225 1426 c 0,28,29
 1240 1426 1240 1426 1256 1414 c 128,-1,30
 1272 1402 1272 1402 1272 1374 c 2,31,-1
 1268 1246 l 1,32,-1
 1268 1043 l 1,33,-1
 1331 1052 l 1,34,35
 1349 1052 1349 1052 1361 1041.5 c 128,-1,36
 1373 1031 1373 1031 1373 1014 c 0,37,38
 1373 975 1373 975 1311 970 c 1,39,40
 1300 968 1300 968 1289.5 967.5 c 128,-1,41
 1279 967 1279 967 1268 966 c 1,42,-1
 1268 145 l 1,0,-1
EndSplineSet
EndChar

StartChar: I
Encoding: 73 73 63
Width: 829
GlyphClass: 2
Flags: W
LayerCount: 2
Fore
SplineSet
160 1415 m 1,0,-1
 670 1415 l 1,1,-1
 670 0 l 1,2,-1
 160 0 l 1,3,-1
 160 1415 l 1,0,-1
EndSplineSet
EndChar

StartChar: J
Encoding: 74 74 64
Width: 1140
GlyphClass: 2
Flags: W
LayerCount: 2
Fore
SplineSet
290 54.5 m 128,-1,1
 332 48 332 48 373.5 48 c 128,-1,2
 415 48 415 48 453 57 c 1,3,-1
 453 1415 l 1,4,-1
 964 1415 l 1,5,-1
 964 534 l 2,6,7
 964 271 964 271 831 134 c 0,8,9
 682 -19 682 -19 366 -19 c 0,10,11
 158 -19 158 -19 50 76 c 1,12,-1
 33 93 l 1,13,14
 -3 131 -3 131 0 159 c 1,15,16
 7 206 7 206 42 202 c 1,17,18
 76 196 76 196 95.5 163 c 128,-1,19
 115 130 115 130 144.5 109 c 128,-1,20
 174 88 174 88 211 74.5 c 128,-1,0
 248 61 248 61 290 54.5 c 128,-1,1
EndSplineSet
EndChar

StartChar: K
Encoding: 75 75 65
Width: 1453
GlyphClass: 2
Flags: W
LayerCount: 2
Fore
SplineSet
177 1415 m 1,0,-1
 687 1415 l 1,1,-1
 687 1001 l 1,2,-1
 1043 1270 l 2,3,4
 1118 1327 1118 1327 1152 1363 c 128,-1,5
 1186 1399 1186 1399 1194.5 1406.5 c 128,-1,6
 1203 1414 1203 1414 1210 1418 c 0,7,8
 1222 1426 1222 1426 1240.5 1426 c 128,-1,9
 1259 1426 1259 1426 1270 1415.5 c 128,-1,10
 1281 1405 1281 1405 1281 1392.5 c 128,-1,11
 1281 1380 1281 1380 1278 1371.5 c 128,-1,12
 1275 1363 1275 1363 1266 1352 c 0,13,14
 1246 1328 1246 1328 1190 1285 c 2,15,-1
 966 1115 l 1,16,-1
 1341 198 l 2,17,18
 1352 172 1352 172 1362 152 c 1,19,-1
 1378 116 l 1,20,-1
 1396 82 l 2,21,22
 1403 68 1403 68 1408 55 c 128,-1,23
 1413 42 1413 42 1412 30 c 128,-1,24
 1411 18 1411 18 1405 8 c 0,25,26
 1391 -14 1391 -14 1371 -14 c 0,27,28
 1343 -14 1343 -14 1329 2 c 0,29,30
 1311 24 1311 24 1302 51 c 2,31,-1
 1284 107 l 2,32,33
 1275 135 1275 135 1260 174 c 2,34,-1
 897 1063 l 1,35,-1
 687 904 l 1,36,-1
 687 0 l 1,37,-1
 177 0 l 1,38,-1
 177 1415 l 1,0,-1
EndSplineSet
EndChar

StartChar: L
Encoding: 76 76 66
Width: 1101
GlyphClass: 2
Flags: W
LayerCount: 2
Fore
SplineSet
1034 91 m 0,0,1
 1087 91 1087 91 1087 46 c 0,2,3
 1087 28 1087 28 1065.5 14 c 128,-1,4
 1044 0 1044 0 989 0 c 2,5,-1
 177 0 l 1,6,-1
 177 1415 l 1,7,-1
 687 1415 l 1,8,-1
 687 66 l 1,9,-1
 874 66 l 2,10,11
 937 66 937 66 982.5 78.5 c 128,-1,12
 1028 91 1028 91 1034 91 c 0,0,1
EndSplineSet
EndChar

StartChar: M
Encoding: 77 77 67
Width: 1923
GlyphClass: 2
Flags: W
LayerCount: 2
Fore
SplineSet
20 2 m 128,-1,1
 10 17 10 17 12 35 c 0,2,3
 17 66 17 66 31 92 c 128,-1,4
 45 118 45 118 51.5 131 c 128,-1,5
 58 144 58 144 65 160 c 2,6,-1
 103 248 l 1,7,-1
 514 1479 l 1,8,-1
 956 625 l 1,9,-1
 1385 1479 l 1,10,-1
 1898 0 l 1,11,-1
 1361 0 l 1,12,-1
 1113 764 l 1,13,-1
 729 -36 l 1,14,-1
 325 684 l 1,15,-1
 185 247 l 1,16,17
 152 174 152 174 138 123 c 128,-1,18
 124 72 124 72 115 44 c 0,19,20
 95 -19 95 -19 49 -15 c 0,21,0
 30 -13 30 -13 20 2 c 128,-1,1
EndSplineSet
EndChar

StartChar: N
Encoding: 78 78 68
Width: 1535
GlyphClass: 2
Flags: W
LayerCount: 2
Fore
SplineSet
267 143 m 1,0,-1
 270 43 l 2,1,2
 270 17 270 17 256 3 c 128,-1,3
 242 -11 242 -11 222.5 -11 c 128,-1,4
 203 -11 203 -11 190 2 c 128,-1,5
 177 15 177 15 177 30.5 c 128,-1,6
 177 46 177 46 179.5 59.5 c 128,-1,7
 182 73 182 73 184 90 c 0,8,9
 189 119 189 119 189 235 c 2,10,-1
 189 1479 l 1,11,-1
 1276 617 l 1,12,-1
 1276 1213 l 2,13,14
 1276 1281 1276 1281 1272 1310 c 0,15,16
 1267 1357 1267 1357 1267 1376 c 0,17,18
 1267 1426 1267 1426 1310 1426 c 0,19,20
 1327 1426 1327 1426 1342.5 1414 c 128,-1,21
 1358 1402 1358 1402 1358 1379 c 2,22,-1
 1358 1344 l 1,23,-1
 1354 1199 l 1,24,-1
 1354 -55 l 1,25,-1
 267 798 l 1,26,-1
 267 143 l 1,0,-1
EndSplineSet
EndChar

StartChar: O
Encoding: 79 79 69
Width: 1673
GlyphClass: 2
Flags: W
LayerCount: 2
Fore
SplineSet
167.5 414.5 m 128,-1,1
 109 552 109 552 109 714.5 c 128,-1,2
 109 877 109 877 164.5 1006.5 c 128,-1,3
 220 1136 220 1136 318 1231 c 0,4,5
 528 1433 528 1433 845 1433 c 0,6,7
 1160 1433 1160 1433 1361 1234 c 0,8,9
 1565 1032 1565 1032 1565 710 c 0,10,11
 1565 389 1565 389 1356 182 c 1,12,13
 1225 54 1225 54 1034 5 c 0,14,15
 939 -19 939 -19 813.5 -19 c 128,-1,16
 688 -19 688 -19 556 32.5 c 128,-1,17
 424 84 424 84 325 180.5 c 128,-1,0
 226 277 226 277 167.5 414.5 c 128,-1,1
844 1360 m 0,18,19
 789 1360 789 1360 741 1352 c 1,20,-1
 741 62 l 1,21,22
 787 54 787 54 844 54 c 0,23,24
 1111 54 1111 54 1294 232 c 0,25,26
 1485 417 1485 417 1485 710 c 0,27,28
 1485 989 1485 989 1306 1174 c 0,29,30
 1125 1360 1125 1360 844 1360 c 0,18,19
EndSplineSet
EndChar

StartChar: P
Encoding: 80 80 70
Width: 1517
GlyphClass: 2
Flags: W
LayerCount: 2
Fore
SplineSet
839 415 m 1,0,-1
 928 411 l 1,1,2
 1122 411 1122 411 1248 539 c 0,3,4
 1376 668 1376 668 1382 873 c 1,5,6
 1393 1189 1393 1189 1078 1300 c 0,7,8
 960 1342 960 1342 771 1342 c 2,9,-1
 687 1342 l 1,10,-1
 687 0 l 1,11,-1
 177 0 l 1,12,-1
 177 1415 l 1,13,-1
 560 1415 l 2,14,15
 870 1415 870 1415 934 1406 c 128,-1,16
 998 1397 998 1397 1067.5 1383 c 128,-1,17
 1137 1369 1137 1369 1217.5 1322 c 128,-1,18
 1298 1275 1298 1275 1354 1210 c 0,19,20
 1467 1078 1467 1078 1463 900 c 0,21,22
 1457 673 1457 673 1330 522 c 0,23,24
 1201 370 1201 370 974 334 c 1,25,26
 908 325 908 325 870 325 c 0,27,28
 780 325 780 325 780 374 c 0,29,30
 780 392 780 392 796 403.5 c 128,-1,31
 812 415 812 415 839 415 c 1,0,-1
EndSplineSet
EndChar

StartChar: Q
Encoding: 81 81 71
Width: 1632
GlyphClass: 2
Flags: W
LayerCount: 2
Fore
SplineSet
1234 101 m 1,0,1
 1050 -19 1050 -19 814 -19 c 0,2,3
 667 -19 667 -19 535 32.5 c 128,-1,4
 403 84 403 84 304 180 c 0,5,6
 88 391 88 391 88 724 c 0,7,8
 88 1029 88 1029 297.5 1231 c 128,-1,9
 507 1433 507 1433 824 1433 c 0,10,11
 1139 1433 1139 1433 1340 1234 c 0,12,13
 1544 1032 1544 1032 1544 710 c 0,14,15
 1544 529 1544 529 1477 385.5 c 128,-1,16
 1410 242 1410 242 1292 145 c 1,17,-1
 1386 71 l 1,18,19
 1454 20 1454 20 1475 15 c 128,-1,20
 1496 10 1496 10 1518 8 c 0,21,22
 1563 5 1563 5 1563 -28 c 0,23,24
 1563 -69 1563 -69 1509 -69 c 0,25,26
 1467 -69 1467 -69 1428.5 -45.5 c 128,-1,27
 1390 -22 1390 -22 1346 12 c 2,28,-1
 1234 101 l 1,0,1
823 1360 m 0,29,30
 768 1360 768 1360 720 1352 c 1,31,-1
 720 62 l 1,32,33
 766 54 766 54 842 54 c 0,34,35
 1014 54 1014 54 1171 152 c 1,36,37
 1064 230 1064 230 976 230 c 0,38,39
 947 230 947 230 932 241.5 c 128,-1,40
 917 253 917 253 917 270 c 0,41,42
 917 310 917 310 971 310 c 0,43,44
 1076 310 1076 310 1231 194 c 1,45,46
 1337 280 1337 280 1400.5 410.5 c 128,-1,47
 1464 541 1464 541 1464 694.5 c 128,-1,48
 1464 848 1464 848 1417 967 c 128,-1,49
 1370 1086 1370 1086 1285 1174 c 0,50,51
 1104 1360 1104 1360 823 1360 c 0,29,30
EndSplineSet
EndChar

StartChar: R
Encoding: 82 82 72
Width: 1501
GlyphClass: 2
Flags: W
LayerCount: 2
Fore
SplineSet
851 485 m 1,0,-1
 933 479 l 1,1,2
 1109 479 1109 479 1232 602 c 256,3,4
 1355 725 1355 725 1355 908 c 0,5,6
 1355 1148 1355 1148 1144 1264 c 0,7,8
 1028 1328 1028 1328 896 1338 c 0,9,10
 840 1343 840 1343 792 1343 c 2,11,-1
 724 1343 l 2,12,13
 703 1343 703 1343 687 1342 c 1,14,-1
 687 0 l 1,15,-1
 177 0 l 1,16,-1
 177 1415 l 1,17,18
 411 1415 411 1415 556 1415 c 128,-1,19
 701 1415 701 1415 745 1414 c 128,-1,20
 789 1413 789 1413 823.5 1411.5 c 128,-1,21
 858 1410 858 1410 888 1408 c 0,22,23
 932 1404 932 1404 1012.5 1389 c 128,-1,24
 1093 1374 1093 1374 1172 1332 c 128,-1,25
 1251 1290 1251 1290 1308 1228 c 0,26,27
 1431 1096 1431 1096 1431 914 c 0,28,29
 1431 734 1431 734 1317 596 c 0,30,31
 1200 455 1200 455 1005 414 c 1,32,33
 1098 126 1098 126 1242 70 c 0,34,35
 1286 53 1286 53 1330 53 c 1,36,-1
 1409 72 l 1,37,38
 1446 72 1446 72 1446 34 c 0,39,40
 1446 -19 1446 -19 1322 -19 c 0,41,42
 1232 -19 1232 -19 1157 31 c 1,43,44
 1040 101 1040 101 958 303 c 2,45,-1
 929 374 l 2,46,47
 922 391 922 391 916.5 395 c 128,-1,48
 911 399 911 399 897.5 399 c 128,-1,49
 884 399 884 399 874 397 c 1,50,-1
 850 396 l 1,51,52
 810 396 810 396 795.5 411 c 128,-1,53
 781 426 781 426 781 442 c 0,54,55
 781 485 781 485 851 485 c 1,0,-1
EndSplineSet
EndChar

StartChar: S
Encoding: 83 83 73
Width: 1190
GlyphClass: 2
Flags: W
LayerCount: 2
Fore
SplineSet
177 72 m 0,0,1
 142 92 142 92 116.5 114 c 128,-1,2
 91 136 91 136 91 161 c 0,3,4
 91 209 91 209 132 209 c 0,5,6
 159 209 159 209 192 179 c 128,-1,7
 225 149 225 149 266 126.5 c 128,-1,8
 307 104 307 104 355 88 c 0,9,10
 454 55 454 55 538 55 c 128,-1,11
 622 55 622 55 667.5 66 c 128,-1,12
 713 77 713 77 744 96 c 0,13,14
 810 137 810 137 810 201 c 0,15,16
 810 260 810 260 753 320 c 0,17,18
 705 371 705 371 617 442 c 1,19,-1
 446 576 l 1,20,21
 189 774 189 774 143 938 c 0,22,23
 127 995 127 995 127 1065 c 128,-1,24
 127 1135 127 1135 158.5 1203 c 128,-1,25
 190 1271 190 1271 252 1322 c 0,26,27
 385 1433 385 1433 614 1433 c 0,28,29
 731 1433 731 1433 824 1398.5 c 128,-1,30
 917 1364 917 1364 951 1337 c 128,-1,31
 985 1310 985 1310 985 1288 c 0,32,33
 985 1242 985 1242 947 1242 c 0,34,35
 925 1242 925 1242 900 1264 c 128,-1,36
 875 1286 875 1286 844.5 1302.5 c 128,-1,37
 814 1319 814 1319 775 1332 c 0,38,39
 691 1360 691 1360 610 1360 c 0,40,41
 461 1360 461 1360 461 1262 c 0,42,43
 461 1221 461 1221 488 1186 c 0,44,45
 536 1125 536 1125 675.5 1011.5 c 128,-1,46
 815 898 815 898 899.5 813 c 128,-1,47
 984 728 984 728 1028 660 c 0,48,49
 1098 553 1098 553 1098 437.5 c 128,-1,50
 1098 322 1098 322 1057.5 241.5 c 128,-1,51
 1017 161 1017 161 944 103 c 0,52,53
 790 -19 790 -19 562 -19 c 128,-1,54
 334 -19 334 -19 177 72 c 0,0,1
EndSplineSet
EndChar

StartChar: T
Encoding: 84 84 74
Width: 1239
GlyphClass: 2
Flags: W
LayerCount: 2
Fore
SplineSet
1204 1389 m 0,0,1
 1204 1343 1204 1343 1107 1343 c 2,2,-1
 875 1343 l 1,3,-1
 875 0 l 1,4,-1
 363 0 l 1,5,-1
 363 1343 l 1,6,-1
 213 1343 l 2,7,8
 136 1343 136 1343 107 1336 c 0,9,10
 69 1328 69 1328 52 1328 c 0,11,12
 1 1328 1 1328 1 1368 c 0,13,14
 1 1415 1 1415 100 1415 c 2,15,-1
 992 1415 l 2,16,17
 1061 1415 1061 1415 1094 1421 c 0,18,19
 1134 1428 1134 1428 1154 1428 c 0,20,21
 1204 1428 1204 1428 1204 1389 c 0,0,1
EndSplineSet
EndChar

StartChar: U
Encoding: 85 85 75
Width: 1570
GlyphClass: 2
Flags: W
LayerCount: 2
Fore
SplineSet
1424 1373 m 1,0,-1
 1418 1249 l 1,1,-1
 1418 651 l 2,2,3
 1418 355 1418 355 1248 170 c 0,4,5
 1074 -19 1074 -19 786 -19 c 0,6,7
 478 -19 478 -19 306 174 c 1,8,9
 146 351 146 351 146 628 c 2,10,-1
 146 1415 l 1,11,-1
 657 1415 l 1,12,-1
 657 66 l 1,13,14
 734 55 734 55 826.5 55 c 128,-1,15
 919 55 919 55 1014.5 92 c 128,-1,16
 1110 129 1110 129 1182 208 c 0,17,18
 1338 378 1338 378 1340 705 c 1,19,-1
 1340 1247 l 2,20,21
 1340 1277 1340 1277 1335.5 1318 c 128,-1,22
 1331 1359 1331 1359 1331 1374 c 0,23,24
 1331 1426 1331 1426 1380 1426 c 0,25,26
 1424 1426 1424 1426 1424 1373 c 1,0,-1
EndSplineSet
EndChar

StartChar: V
Encoding: 86 86 76
Width: 1260
GlyphClass: 2
Flags: W
LayerCount: 2
Fore
SplineSet
1186 1426 m 0,0,1
 1227 1426 1227 1426 1227 1383 c 0,2,3
 1227 1361 1227 1361 1213.5 1332.5 c 128,-1,4
 1200 1304 1200 1304 1192 1286 c 2,5,-1
 649 -55 l 1,6,-1
 -9 1415 l 1,7,-1
 537 1415 l 1,8,-1
 855 667 l 1,9,-1
 1078 1225 l 2,10,11
 1114 1315 1114 1315 1125 1355 c 128,-1,12
 1136 1395 1136 1395 1149 1410.5 c 128,-1,13
 1162 1426 1162 1426 1186 1426 c 0,0,1
EndSplineSet
EndChar

StartChar: W
Encoding: 87 87 77
Width: 1963
GlyphClass: 2
Flags: W
LayerCount: 2
Fore
SplineSet
1931 1382 m 0,0,1
 1931 1367 1931 1367 1924 1345 c 1,2,3
 1900 1280 1900 1280 1881 1232 c 2,4,-1
 1351 -55 l 1,5,-1
 974 787 l 1,6,-1
 583 -55 l 1,7,-1
 -9 1415 l 1,8,-1
 539 1415 l 1,9,-1
 820 666 l 1,10,-1
 1201 1479 l 1,11,-1
 1556 668 l 1,12,-1
 1806 1255 l 2,13,14
 1819 1288 1819 1288 1828 1320 c 2,15,-1
 1845 1381 l 1,16,17
 1856 1426 1856 1426 1893.5 1426 c 128,-1,18
 1931 1426 1931 1426 1931 1382 c 0,0,1
EndSplineSet
EndChar

StartChar: X
Encoding: 88 88 78
Width: 1319
GlyphClass: 2
Flags: W
LayerCount: 2
Fore
SplineSet
114 -11 m 0,0,1
 73 -11 73 -11 73 28 c 0,2,3
 73 58 73 58 117 96 c 1,4,5
 157 133 157 133 182 168 c 2,6,7
 182 168 182 168 459 572 c 1,8,-1
 53 1415 l 1,9,-1
 583 1415 l 1,10,-1
 823 915 l 1,11,-1
 1032 1215 l 1,12,13
 1090 1301 1090 1301 1118 1376 c 1,14,15
 1140 1426 1140 1426 1178 1426 c 128,-1,16
 1216 1426 1216 1426 1216 1383 c 0,17,18
 1216 1359 1216 1359 1164 1281 c 2,19,-1
 864 830 l 1,20,-1
 1264 0 l 1,21,-1
 736 0 l 1,22,-1
 501 486 l 1,23,-1
 245 118 l 1,24,25
 169 12 169 12 138 -5 c 0,26,27
 126 -11 126 -11 114 -11 c 0,0,1
EndSplineSet
EndChar

StartChar: Y
Encoding: 89 89 79
Width: 1320
GlyphClass: 2
Flags: W
LayerCount: 2
Fore
SplineSet
482 -11 m 128,-1,1
 439 -11 439 -11 439 33 c 0,2,3
 439 60 439 60 465 92 c 0,4,5
 517 154 517 154 564 235 c 1,6,-1
 615 326 l 1,7,-1
 21 1415 l 1,8,-1
 604 1415 l 1,9,-1
 890 812 l 1,10,-1
 1146 1267 l 1,11,12
 1174 1319 1174 1319 1194 1372.5 c 128,-1,13
 1214 1426 1214 1426 1247 1426 c 0,14,15
 1288 1426 1288 1426 1288 1385 c 0,16,17
 1288 1361 1288 1361 1270 1330 c 2,18,-1
 586 110 l 2,19,20
 575 90 575 90 568 77 c 2,21,-1
 551 41 l 1,22,0
 525 -11 525 -11 482 -11 c 128,-1,1
EndSplineSet
EndChar

StartChar: Z
Encoding: 90 90 80
Width: 1182
GlyphClass: 2
Flags: W
LayerCount: 2
Fore
SplineSet
1080 86 m 0,0,1
 1132 86 1132 86 1132 46 c 0,2,3
 1132 28 1132 28 1110 14 c 128,-1,4
 1088 0 1088 0 1032 0 c 2,5,-1
 51 0 l 1,6,-1
 573 1343 l 1,7,-1
 318 1343 l 2,8,9
 242 1343 242 1343 211 1336 c 0,10,11
 172 1328 172 1328 156 1328 c 0,12,13
 104 1328 104 1328 104 1368 c 0,14,15
 104 1415 104 1415 202 1415 c 2,16,-1
 1095 1415 l 1,17,-1
 586 73 l 1,18,-1
 919 73 l 2,19,20
 994 73 994 73 1024 79 c 0,21,22
 1059 86 1059 86 1080 86 c 0,0,1
EndSplineSet
EndChar

StartChar: bracketleft
Encoding: 91 91 81
Width: 926
GlyphClass: 2
Flags: W
LayerCount: 2
Fore
SplineSet
790 -152 m 0,0,1
 790 -201 790 -201 704 -201 c 2,2,-1
 127 -201 l 1,3,-1
 127 1534 l 1,4,-1
 704 1534 l 2,5,6
 790 1534 790 1534 790 1494 c 0,7,8
 790 1452 790 1452 728 1452 c 1,9,-1
 560 1463 l 1,10,-1
 539 1463 l 1,11,-1
 539 -126 l 1,12,-1
 576 -126 l 2,13,14
 626 -126 626 -126 668.5 -120.5 c 128,-1,15
 711 -115 711 -115 734 -115 c 128,-1,16
 757 -115 757 -115 773.5 -126.5 c 128,-1,17
 790 -138 790 -138 790 -152 c 0,0,1
EndSplineSet
EndChar

StartChar: backslash
Encoding: 92 92 82
Width: 672
GlyphClass: 2
Flags: W
LayerCount: 2
Fore
SplineSet
590 36 m 0,0,1
 590 -11 590 -11 551 -11 c 0,2,3
 522 -11 522 -11 508 12 c 0,4,5
 483 54 483 54 455 155 c 1,6,-1
 140 1231 l 2,7,8
 123 1289 123 1289 109.5 1313 c 128,-1,9
 96 1337 96 1337 91.5 1347 c 128,-1,10
 87 1357 87 1357 85 1364 c 0,11,12
 82 1374 82 1374 82 1387.5 c 128,-1,13
 82 1401 82 1401 91.5 1413.5 c 128,-1,14
 101 1426 101 1426 117 1426 c 128,-1,15
 133 1426 133 1426 144 1420.5 c 128,-1,16
 155 1415 155 1415 166 1398 c 0,17,18
 187 1366 187 1366 216 1271 c 1,19,-1
 517 235 l 2,20,21
 544 140 544 140 560 112 c 0,22,23
 590 61 590 61 590 36 c 0,0,1
EndSplineSet
EndChar

StartChar: bracketright
Encoding: 93 93 83
Width: 926
GlyphClass: 2
Flags: W
LayerCount: 2
Fore
SplineSet
177 -201 m 2,0,1
 91 -201 91 -201 91 -152 c 0,2,3
 91 -138 91 -138 107.5 -126.5 c 128,-1,4
 124 -115 124 -115 147 -115 c 128,-1,5
 170 -115 170 -115 186 -117 c 2,6,-1
 218 -121 l 2,7,8
 263 -126 263 -126 305 -126 c 2,9,-1
 342 -126 l 1,10,-1
 342 1463 l 1,11,-1
 321 1463 l 1,12,13
 321 1463 321 1463 153 1452 c 1,14,15
 91 1452 91 1452 91 1494 c 0,16,17
 91 1534 91 1534 177 1534 c 2,18,-1
 754 1534 l 1,19,-1
 754 -201 l 1,20,-1
 177 -201 l 2,0,1
EndSplineSet
EndChar

StartChar: asciicircum
Encoding: 94 94 84
Width: 937
GlyphClass: 2
Flags: W
LayerCount: 2
Fore
SplineSet
202 942 m 0,0,1
 176 899 176 899 144 899 c 0,2,3
 132 899 132 899 120 910.5 c 128,-1,4
 108 922 108 922 108 937 c 0,5,6
 108 960 108 960 134 992 c 2,7,-1
 173 1042 l 2,8,9
 187 1060 187 1060 208 1090 c 2,10,-1
 414 1387 l 2,11,12
 445 1433 445 1433 482 1433 c 0,13,14
 518 1433 518 1433 551 1387 c 0,15,16
 794 1049 794 1049 807 1032 c 2,17,-1
 830 1003 l 2,18,19
 862 964 862 964 862 943 c 128,-1,20
 862 922 862 922 849.5 910.5 c 128,-1,21
 837 899 837 899 818 899 c 128,-1,22
 799 899 799 899 785 915.5 c 128,-1,23
 771 932 771 932 758 952 c 2,24,-1
 647 1118 l 1,25,-1
 482 1345 l 1,26,27
 257 1026 257 1026 249 1015 c 2,28,-1
 214 961 l 2,29,30
 206 949 206 949 202 942 c 0,0,1
EndSplineSet
EndChar

StartChar: underscore
Encoding: 95 95 85
Width: 876
GlyphClass: 2
Flags: W
LayerCount: 2
Fore
SplineSet
777 -107 m 2,0,1
 859 -107 859 -107 894 -112.5 c 128,-1,2
 929 -118 929 -118 929 -144.5 c 128,-1,3
 929 -171 929 -171 896.5 -176.5 c 128,-1,4
 864 -182 864 -182 790 -182 c 2,5,-1
 85 -182 l 2,6,7
 9 -182 9 -182 -27 -176.5 c 128,-1,8
 -63 -171 -63 -171 -63 -144.5 c 128,-1,9
 -63 -118 -63 -118 -24 -112.5 c 128,-1,10
 15 -107 15 -107 99 -107 c 2,11,-1
 777 -107 l 2,0,1
EndSplineSet
EndChar

StartChar: grave
Encoding: 96 96 86
Width: 581
GlyphClass: 2
Flags: W
LayerCount: 2
Fore
SplineSet
91 1479 m 1,0,-1
 372 1479 l 1,1,-1
 489 1195 l 1,2,-1
 335 1195 l 1,3,-1
 91 1479 l 1,0,-1
EndSplineSet
EndChar

StartChar: a
Encoding: 97 97 87
Width: 1410
GlyphClass: 2
Flags: W
LayerCount: 2
Fore
SplineSet
842 66 m 1,0,1
 714 -19 714 -19 558 -19 c 0,2,3
 351 -19 351 -19 226 85 c 0,4,5
 96 192 96 192 96 382 c 0,6,7
 96 550 96 550 225 658 c 1,8,9
 357 767 357 767 572 767 c 0,10,11
 716 767 716 767 842 712 c 1,12,-1
 842 987 l 1,13,14
 751 1013 751 1013 681.5 1013 c 128,-1,15
 612 1013 612 1013 564 1007 c 128,-1,16
 516 1001 516 1001 473 989 c 0,17,18
 380 963 380 963 332 919 c 0,19,20
 304 893 304 893 281 893 c 128,-1,21
 258 893 258 893 246 904.5 c 128,-1,22
 234 916 234 916 234 930 c 128,-1,23
 234 944 234 944 239 955.5 c 128,-1,24
 244 967 244 967 258 979 c 0,25,26
 288 1005 288 1005 358 1031 c 0,27,28
 503 1086 503 1086 649 1086 c 0,29,30
 1093 1086 1093 1086 1216 874 c 0,31,32
 1270 780 1270 780 1270 627 c 2,33,-1
 1270 0 l 1,34,-1
 842 0 l 1,35,-1
 842 66 l 1,0,1
842 634 m 1,36,37
 716 695 716 695 591 695 c 0,38,39
 571 695 571 695 553 692 c 1,40,-1
 553 56 l 1,41,42
 558 55 558 55 564 55 c 128,-1,43
 570 55 570 55 576 55 c 0,44,45
 713 55 713 55 842 152 c 1,46,-1
 842 634 l 1,36,37
EndSplineSet
EndChar

StartChar: b
Encoding: 98 98 88
Width: 1513
GlyphClass: 2
Flags: W
LayerCount: 2
Fore
SplineSet
853 -19 m 0,0,1
 714 -19 714 -19 584 44 c 1,2,-1
 584 0 l 1,3,-1
 173 0 l 1,4,-1
 173 1415 l 1,5,-1
 584 1415 l 1,6,-1
 584 1017 l 1,7,8
 711 1086 711 1086 850 1086 c 128,-1,9
 989 1086 989 1086 1094 1045 c 128,-1,10
 1199 1004 1199 1004 1274 932 c 1,11,12
 1429 780 1429 780 1429 543 c 0,13,14
 1429 304 1429 304 1276 146 c 1,15,16
 1118 -19 1118 -19 853 -19 c 0,0,1
850 1013 m 0,17,18
 702 1013 702 1013 584 931 c 1,19,-1
 584 129 l 1,20,21
 715 55 715 55 878 55 c 2,22,-1
 904 55 l 2,23,24
 916 55 916 55 927 57 c 1,25,-1
 927 1007 l 1,26,27
 889 1013 889 1013 850 1013 c 0,17,18
EndSplineSet
EndChar

StartChar: c
Encoding: 99 99 89
Width: 1128
GlyphClass: 2
Flags: W
LayerCount: 2
Fore
SplineSet
573 64 m 1,0,1
 620 55 620 55 667.5 55 c 128,-1,2
 715 55 715 55 759.5 62.5 c 128,-1,3
 804 70 804 70 844 84 c 0,4,5
 929 114 929 114 981 160 c 0,6,7
 1018 192 1018 192 1035 192 c 0,8,9
 1073 192 1073 192 1073 158 c 128,-1,10
 1073 124 1073 124 1011 77 c 1,11,12
 867 -19 867 -19 665 -19 c 0,13,14
 402 -19 402 -19 240 139 c 0,15,16
 81 295 81 295 81 544 c 0,17,18
 81 780 81 780 250 934 c 0,19,20
 418 1086 418 1086 672 1086 c 0,21,22
 817 1086 817 1086 951 1026 c 1,23,24
 1053 982 1053 982 1053 935 c 0,25,26
 1053 915 1053 915 1041.5 904.5 c 128,-1,27
 1030 894 1030 894 1016 894 c 0,28,29
 995 894 995 894 962 917 c 1,30,31
 897 979 897 979 769 1004 c 0,32,33
 723 1013 723 1013 668 1013 c 128,-1,34
 613 1013 613 1013 573 1005 c 1,35,-1
 573 64 l 1,0,1
EndSplineSet
EndChar

StartChar: d
Encoding: 100 100 90
Width: 1496
GlyphClass: 2
Flags: W
LayerCount: 2
Fore
SplineSet
930 55 m 1,0,1
 805 -19 805 -19 665.5 -19 c 128,-1,2
 526 -19 526 -19 420.5 22.5 c 128,-1,3
 315 64 315 64 240 138 c 0,4,5
 84 293 84 293 84 541 c 0,6,7
 84 771 84 771 238 924 c 0,8,9
 402 1086 402 1086 666 1086 c 0,10,11
 806 1086 806 1086 930 1025 c 1,12,-1
 930 1415 l 1,13,-1
 1342 1415 l 1,14,-1
 1342 0 l 1,15,-1
 930 0 l 1,16,-1
 930 55 l 1,0,1
646 1013 m 0,17,18
 615 1013 615 1013 587 1009 c 1,19,-1
 587 61 l 1,20,21
 623 55 623 55 665 55 c 0,22,23
 804 55 804 55 930 143 c 1,24,-1
 930 936 l 1,25,26
 795 1013 795 1013 646 1013 c 0,17,18
EndSplineSet
EndChar

StartChar: e
Encoding: 101 101 91
Width: 1300
GlyphClass: 2
Flags: W
LayerCount: 2
Fore
SplineSet
1101 243 m 0,0,1
 1140 243 1140 243 1140 207 c 0,2,3
 1140 180 1140 180 1105 143 c 0,4,5
 947 -19 947 -19 672 -19 c 0,6,7
 425 -19 425 -19 256 130 c 0,8,9
 81 285 81 285 81 522 c 0,10,11
 81 764 81 764 239 920 c 0,12,13
 406 1086 406 1086 683 1086 c 0,14,15
 905 1086 905 1086 1056 951 c 0,16,17
 1219 806 1219 806 1219 570 c 0,18,19
 1219 536 1219 536 1217 498 c 1,20,-1
 557 498 l 1,21,-1
 557 69 l 1,22,23
 625 55 625 55 710 55 c 0,24,25
 890 55 890 55 1017 174 c 1,26,27
 1043 200 1043 200 1054 215 c 1,28,29
 1077 243 1077 243 1101 243 c 0,0,1
834 994 m 1,30,31
 769 1013 769 1013 687 1013 c 128,-1,32
 605 1013 605 1013 557 1002 c 1,33,-1
 557 571 l 1,34,-1
 834 571 l 1,35,-1
 834 994 l 1,30,31
EndSplineSet
EndChar

StartChar: f
Encoding: 102 102 92
Width: 835
GlyphClass: 2
Flags: W
LayerCount: 2
Fore
SplineSet
821 991 m 1,0,-1
 714 995 l 1,1,-1
 603 995 l 1,2,-1
 603 0 l 1,3,-1
 173 0 l 1,4,-1
 174 995 l 1,5,-1
 158 995 l 1,6,-1
 63 991 l 1,7,8
 4 991 4 991 4 1031.5 c 128,-1,9
 4 1072 4 1072 58 1072 c 1,10,-1
 177 1068 l 1,11,12
 198 1249 198 1249 338 1345 c 0,13,14
 466 1433 466 1433 673 1433 c 0,15,16
 867 1433 867 1433 940 1356 c 0,17,18
 960 1335 960 1335 960 1316 c 0,19,20
 960 1272 960 1272 915 1272 c 0,21,22
 893 1272 893 1272 872 1287 c 2,23,-1
 836 1312 l 1,24,25
 778 1355 778 1355 711 1359 c 0,26,27
 693 1360 693 1360 673.5 1360 c 128,-1,28
 654 1360 654 1360 637 1358 c 128,-1,29
 620 1356 620 1356 603 1354 c 1,30,-1
 603 1068 l 1,31,-1
 690 1068 l 1,32,-1
 824 1072 l 1,33,34
 878 1072 878 1072 878 1031.5 c 128,-1,35
 878 991 878 991 821 991 c 1,0,-1
EndSplineSet
EndChar

StartChar: g
Encoding: 103 103 93
Width: 1194
GlyphClass: 2
Flags: W
LayerCount: 2
Fore
SplineSet
391 326 m 1,0,1
 302 299 302 299 302 267 c 0,2,3
 302 236 302 236 354 224 c 0,4,5
 455 200 455 200 632 195.5 c 128,-1,6
 809 191 809 191 898.5 168.5 c 128,-1,7
 988 146 988 146 1041 112 c 0,8,9
 1137 49 1137 49 1137 -55 c 0,10,11
 1137 -185 1137 -185 1008 -266 c 0,12,13
 865 -355 865 -355 605 -355 c 0,14,15
 336 -355 336 -355 161 -275 c 1,16,17
 98 -244 98 -244 98 -205 c 0,18,19
 98 -188 98 -188 110.5 -178 c 128,-1,20
 123 -168 123 -168 137 -168 c 0,21,22
 154 -168 154 -168 176 -181 c 0,23,24
 227 -210 227 -210 270.5 -229.5 c 128,-1,25
 314 -249 314 -249 407 -267 c 128,-1,26
 500 -285 500 -285 586.5 -285 c 128,-1,27
 673 -285 673 -285 727.5 -277.5 c 128,-1,28
 782 -270 782 -270 818 -260 c 0,29,30
 889 -239 889 -239 889 -213 c 0,31,32
 889 -189 889 -189 875 -178 c 128,-1,33
 861 -167 861 -167 838.5 -158.5 c 128,-1,34
 816 -150 816 -150 776 -143 c 0,35,36
 694 -129 694 -129 553 -122 c 128,-1,37
 412 -115 412 -115 330 -94.5 c 128,-1,38
 248 -74 248 -74 196 -42 c 0,39,40
 95 19 95 19 95 123 c 0,41,42
 95 273 95 273 298 366 c 1,43,44
 205 417 205 417 150 500.5 c 128,-1,45
 95 584 95 584 95 681.5 c 128,-1,46
 95 779 95 779 131.5 850.5 c 128,-1,47
 168 922 168 922 234 974 c 0,48,49
 373 1086 373 1086 593 1086 c 0,50,51
 691 1086 691 1086 790 1056 c 1,52,53
 932 1193 932 1193 1053 1193 c 0,54,55
 1104 1193 1104 1193 1128.5 1176 c 128,-1,56
 1153 1159 1153 1159 1153 1133 c 256,57,58
 1153 1107 1153 1107 1136 1095.5 c 128,-1,59
 1119 1084 1119 1084 1104 1084 c 0,60,61
 1077 1084 1077 1084 1058 1090 c 0,62,63
 1030 1100 1030 1100 1001 1100 c 0,64,65
 947 1100 947 1100 865 1025 c 1,66,67
 1028 945 1028 945 1078 795 c 0,68,69
 1094 745 1094 745 1094 672.5 c 128,-1,70
 1094 600 1094 600 1052 528 c 128,-1,71
 1010 456 1010 456 940 404 c 0,72,73
 794 296 794 296 597 296 c 1,74,75
 493 294 493 294 391 326 c 1,0,1
601 369 m 1,76,77
 763 371 763 371 880 448 c 0,78,79
 1015 536 1015 536 1015 686 c 128,-1,80
 1015 836 1015 836 882 928 c 0,81,82
 760 1012 760 1012 601 1015 c 1,83,-1
 601 369 l 1,76,77
EndSplineSet
EndChar

StartChar: h
Encoding: 104 104 94
Width: 1496
GlyphClass: 2
Flags: W
LayerCount: 2
Fore
SplineSet
990 1086 m 0,0,1
 1342 1086 1342 1086 1342 744 c 2,2,-1
 1342 0 l 1,3,-1
 912 0 l 1,4,-1
 912 973 l 1,5,6
 894 985 894 985 864.5 985 c 128,-1,7
 835 985 835 985 803 971 c 128,-1,8
 771 957 771 957 736 932 c 0,9,10
 661 877 661 877 603 794 c 1,11,-1
 603 0 l 1,12,-1
 173 0 l 1,13,-1
 173 1415 l 1,14,-1
 603 1415 l 1,15,-1
 603 899 l 1,16,17
 774 1086 774 1086 990 1086 c 0,0,1
EndSplineSet
EndChar

StartChar: i
Encoding: 105 105 95
Width: 757
GlyphClass: 2
Flags: W
LayerCount: 2
Fore
SplineSet
222 1289 m 128,-1,1
 164 1335 164 1335 164 1410 c 0,2,3
 164 1473 164 1473 228 1518 c 0,4,5
 296 1566 296 1566 372 1566 c 128,-1,6
 448 1566 448 1566 489.5 1551 c 128,-1,7
 531 1536 531 1536 560 1512 c 0,8,9
 618 1463 618 1463 618 1398 c 256,10,11
 618 1333 618 1333 552 1288 c 256,12,13
 486 1243 486 1243 383 1243 c 128,-1,0
 280 1243 280 1243 222 1289 c 128,-1,1
173 1068 m 1,14,-1
 603 1068 l 1,15,-1
 603 0 l 1,16,-1
 173 0 l 1,17,-1
 173 1068 l 1,14,-1
EndSplineSet
EndChar

StartChar: j
Encoding: 106 106 96
Width: 801
GlyphClass: 2
Flags: W
LayerCount: 2
Fore
SplineSet
266 1289 m 128,-1,1
 208 1335 208 1335 208 1410 c 0,2,3
 208 1473 208 1473 272 1518 c 0,4,5
 340 1566 340 1566 416 1566 c 128,-1,6
 492 1566 492 1566 533.5 1551 c 128,-1,7
 575 1536 575 1536 604 1512 c 0,8,9
 662 1463 662 1463 662 1398 c 256,10,11
 662 1333 662 1333 596 1288 c 256,12,13
 530 1243 530 1243 427 1243 c 128,-1,0
 324 1243 324 1243 266 1289 c 128,-1,1
-51 -203 m 0,14,15
 -28 -203 -28 -203 -0.5 -227 c 128,-1,16
 27 -251 27 -251 44 -260 c 0,17,18
 83 -280 83 -280 134 -280 c 128,-1,19
 185 -280 185 -280 220 -275 c 1,20,-1
 220 1068 l 1,21,-1
 648 1068 l 1,22,-1
 647 106 l 2,23,24
 647 -127 647 -127 504 -246 c 0,25,26
 374 -353 374 -353 150 -353 c 0,27,28
 35 -353 35 -353 -14 -329 c 0,29,30
 -95 -290 -95 -290 -95 -246.5 c 128,-1,31
 -95 -203 -95 -203 -51 -203 c 0,14,15
EndSplineSet
EndChar

StartChar: k
Encoding: 107 107 97
Width: 1314
GlyphClass: 2
Flags: W
LayerCount: 2
Fore
SplineSet
173 1415 m 1,0,-1
 603 1415 l 1,1,-1
 603 652 l 1,2,-1
 1024 957 l 1,3,4
 1084 1002 1084 1002 1120 1044 c 128,-1,5
 1156 1086 1156 1086 1181 1086 c 0,6,7
 1226 1086 1226 1086 1226 1049 c 0,8,9
 1226 1021 1226 1021 1192 993 c 1,10,-1
 937 796 l 1,11,-1
 1305 0 l 1,12,-1
 858 0 l 1,13,-1
 603 564 l 1,14,-1
 603 0 l 1,15,-1
 173 0 l 1,16,-1
 173 1415 l 1,0,-1
EndSplineSet
EndChar

StartChar: l
Encoding: 108 108 98
Width: 757
GlyphClass: 2
Flags: W
LayerCount: 2
Fore
SplineSet
173 1415 m 1,0,-1
 603 1415 l 1,1,-1
 603 0 l 1,2,-1
 173 0 l 1,3,-1
 173 1415 l 1,0,-1
EndSplineSet
EndChar

StartChar: m
Encoding: 109 109 99
Width: 2217
GlyphClass: 2
Flags: W
LayerCount: 2
Fore
SplineSet
1331 792 m 1,0,1
 1333 768 1333 768 1333 744 c 2,2,-1
 1333 0 l 1,3,-1
 904 0 l 1,4,-1
 904 970 l 1,5,6
 893 975 893 975 878 975 c 2,7,-1
 846 975 l 2,8,9
 768 975 768 975 664 868 c 0,10,11
 632 835 632 835 603 795 c 1,12,-1
 603 0 l 1,13,-1
 173 0 l 1,14,-1
 173 1068 l 1,15,-1
 603 1068 l 1,16,-1
 603 907 l 1,17,18
 772 1086 772 1086 981 1086 c 0,19,20
 1251 1086 1251 1086 1314 886 c 1,21,22
 1400 985 1400 985 1503.5 1035.5 c 128,-1,23
 1607 1086 1607 1086 1712 1086 c 0,24,25
 1891 1086 1891 1086 1977 1001 c 128,-1,26
 2063 916 2063 916 2063 744 c 2,27,-1
 2063 0 l 1,28,-1
 1634 0 l 1,29,-1
 1634 971 l 1,30,31
 1625 975 1625 975 1589 975 c 128,-1,32
 1553 975 1553 975 1522.5 961.5 c 128,-1,33
 1492 948 1492 948 1460 924 c 0,34,35
 1390 873 1390 873 1331 792 c 1,0,1
EndSplineSet
EndChar

StartChar: n
Encoding: 110 110 100
Width: 1497
GlyphClass: 2
Flags: W
LayerCount: 2
Fore
SplineSet
913 959 m 1,0,1
 888 975 888 975 859 975 c 128,-1,2
 830 975 830 975 799 961.5 c 128,-1,3
 768 948 768 948 734 924 c 0,4,5
 663 873 663 873 603 788 c 1,6,-1
 603 0 l 1,7,-1
 173 0 l 1,8,-1
 173 1068 l 1,9,-1
 603 1068 l 1,10,-1
 603 897 l 1,11,12
 774 1086 774 1086 990 1086 c 0,13,14
 1343 1086 1343 1086 1343 744 c 2,15,-1
 1343 0 l 1,16,-1
 913 0 l 1,17,-1
 913 959 l 1,0,1
EndSplineSet
EndChar

StartChar: o
Encoding: 111 111 101
Width: 1303
GlyphClass: 2
Flags: W
LayerCount: 2
Fore
SplineSet
81 540 m 0,0,1
 81 660 81 660 124.5 758.5 c 128,-1,2
 168 857 168 857 244 930 c 0,3,4
 408 1086 408 1086 656 1086 c 0,5,6
 909 1086 909 1086 1068 924 c 1,7,8
 1220 771 1220 771 1220 537 c 0,9,10
 1220 302 1220 302 1064 144 c 0,11,12
 903 -19 903 -19 652 -19 c 0,13,14
 407 -19 407 -19 246 136 c 0,15,16
 81 296 81 296 81 540 c 0,0,1
624 56 m 1,17,18
 632 55 632 55 640 55 c 2,19,-1
 654 55 l 2,20,21
 856 55 856 55 993 180 c 1,22,23
 1139 315 1139 315 1139 534 c 0,24,25
 1139 748 1139 748 1002 881 c 0,26,27
 867 1013 867 1013 653 1013 c 2,28,-1
 638 1013 l 2,29,30
 631 1013 631 1013 624 1012 c 1,31,-1
 624 56 l 1,17,18
EndSplineSet
EndChar

StartChar: p
Encoding: 112 112 102
Width: 1512
GlyphClass: 2
Flags: W
LayerCount: 2
Fore
SplineSet
853 -19 m 0,0,1
 714 -19 714 -19 584 44 c 1,2,-1
 584 -320 l 1,3,-1
 173 -320 l 1,4,-1
 173 1068 l 1,5,-1
 584 1068 l 1,6,-1
 584 1013 l 1,7,8
 715 1086 715 1086 852 1086 c 128,-1,9
 989 1086 989 1086 1094 1045 c 128,-1,10
 1199 1004 1199 1004 1274 932 c 1,11,12
 1429 780 1429 780 1429 543 c 0,13,14
 1429 304 1429 304 1276 146 c 1,15,16
 1118 -19 1118 -19 853 -19 c 0,0,1
850 1013 m 0,17,18
 702 1013 702 1013 584 931 c 1,19,-1
 584 133 l 1,20,21
 719 55 719 55 878 55 c 2,22,-1
 904 55 l 2,23,24
 916 55 916 55 927 57 c 1,25,-1
 927 1007 l 1,26,27
 889 1013 889 1013 850 1013 c 0,17,18
EndSplineSet
EndChar

StartChar: q
Encoding: 113 113 103
Width: 1495
GlyphClass: 2
Flags: W
LayerCount: 2
Fore
SplineSet
929 50 m 1,0,1
 804 -19 804 -19 664.5 -19 c 128,-1,2
 525 -19 525 -19 419.5 22.5 c 128,-1,3
 314 64 314 64 240 138 c 0,4,5
 83 293 83 293 83 541 c 0,6,7
 83 771 83 771 237 924 c 0,8,9
 401 1086 401 1086 665 1086 c 0,10,11
 805 1086 805 1086 929 1025 c 1,12,-1
 929 1068 l 1,13,-1
 1341 1068 l 1,14,-1
 1341 -320 l 1,15,-1
 929 -320 l 1,16,-1
 929 50 l 1,0,1
645 1013 m 0,17,18
 614 1013 614 1013 586 1009 c 1,19,-1
 586 61 l 1,20,21
 622 55 622 55 664 55 c 0,22,23
 812 55 812 55 929 139 c 1,24,-1
 929 937 l 1,25,26
 796 1013 796 1013 645 1013 c 0,17,18
EndSplineSet
EndChar

StartChar: r
Encoding: 114 114 104
Width: 965
GlyphClass: 2
Flags: W
LayerCount: 2
Fore
SplineSet
173 1068 m 1,0,-1
 603 1068 l 1,1,-1
 603 754 l 1,2,3
 672 925 672 925 751.5 1005.5 c 128,-1,4
 831 1086 831 1086 911 1086 c 0,5,6
 956 1086 956 1086 982.5 1062.5 c 128,-1,7
 1009 1039 1009 1039 1009 1010 c 128,-1,8
 1009 981 1009 981 1001 964 c 128,-1,9
 993 947 993 947 980 935 c 0,10,11
 953 910 953 910 929 910 c 0,12,13
 891 910 891 910 873 918 c 0,14,15
 842 932 842 932 818 932 c 128,-1,16
 794 932 794 932 757 893.5 c 128,-1,17
 720 855 720 855 686 787 c 0,18,19
 603 621 603 621 603 427 c 2,20,-1
 603 0 l 1,21,-1
 173 0 l 1,22,-1
 173 1068 l 1,0,-1
EndSplineSet
EndChar

StartChar: s
Encoding: 115 115 105
Width: 1023
GlyphClass: 2
Flags: W
LayerCount: 2
Fore
SplineSet
95 134 m 0,0,1
 95 149 95 149 105.5 161.5 c 128,-1,2
 116 174 116 174 133 174 c 128,-1,3
 150 174 150 174 161 164 c 2,4,5
 161 164 161 164 186 141 c 0,6,7
 290 50 290 50 477 50 c 0,8,9
 603 50 603 50 639 102 c 0,10,11
 649 116 649 116 649 130.5 c 128,-1,12
 649 145 649 145 643.5 158.5 c 128,-1,13
 638 172 638 172 620 191.5 c 128,-1,14
 602 211 602 211 569 238 c 2,15,-1
 481 309 l 1,16,17
 263 479 263 479 182 585 c 0,18,19
 108 682 108 682 108 783 c 0,20,21
 108 910 108 910 225 996 c 0,22,23
 346 1086 346 1086 538 1086 c 0,24,25
 673 1086 673 1086 751 1055 c 128,-1,26
 829 1024 829 1024 861 998.5 c 128,-1,27
 893 973 893 973 893 952 c 0,28,29
 893 909 893 909 859 909 c 0,30,31
 843 909 843 909 829.5 920.5 c 128,-1,32
 816 932 816 932 776 959.5 c 128,-1,33
 736 987 736 987 670 1003 c 128,-1,34
 604 1019 604 1019 547 1019 c 128,-1,35
 490 1019 490 1019 466.5 1001 c 128,-1,36
 443 983 443 983 443 965.5 c 128,-1,37
 443 948 443 948 450 932.5 c 128,-1,38
 457 917 457 917 476 896 c 0,39,40
 520 844 520 844 617 773 c 128,-1,41
 714 702 714 702 781 643 c 128,-1,42
 848 584 848 584 886 534 c 0,43,44
 955 444 955 444 955 352 c 128,-1,45
 955 260 955 260 921 194.5 c 128,-1,46
 887 129 887 129 824 82 c 0,47,48
 691 -19 691 -19 469 -19 c 0,49,50
 291 -19 291 -19 172 49 c 0,51,52
 95 92 95 92 95 134 c 0,0,1
EndSplineSet
EndChar

StartChar: t
Encoding: 116 116 106
Width: 963
GlyphClass: 2
Flags: W
LayerCount: 2
Fore
SplineSet
584 -19 m 0,0,1
 192 -19 192 -19 192 339 c 2,2,-1
 191 995 l 1,3,-1
 76 990 l 1,4,5
 22 990 22 990 22 1031 c 128,-1,6
 22 1072 22 1072 80 1072 c 1,7,-1
 176 1068 l 1,8,-1
 191 1068 l 1,9,-1
 191 1223 l 1,10,-1
 620 1415 l 1,11,-1
 620 1068 l 1,12,-1
 754 1068 l 1,13,-1
 849 1072 l 1,14,15
 908 1072 908 1072 908 1030 c 0,16,17
 908 1011 908 1011 891.5 1000.5 c 128,-1,18
 875 990 875 990 854 990 c 2,19,-1
 730 995 l 1,20,-1
 620 995 l 1,21,-1
 620 55 l 1,22,23
 737 57 737 57 815 122 c 1,24,25
 852 150 852 150 867.5 194 c 128,-1,26
 883 238 883 238 895.5 250.5 c 128,-1,27
 908 263 908 263 925 263 c 256,28,29
 942 263 942 263 954 249.5 c 128,-1,30
 966 236 966 236 966 217.5 c 128,-1,31
 966 199 966 199 956 176.5 c 128,-1,32
 946 154 946 154 926 129 c 0,33,34
 881 73 881 73 822 40 c 0,35,36
 715 -19 715 -19 584 -19 c 0,0,1
EndSplineSet
EndChar

StartChar: u
Encoding: 117 117 107
Width: 1494
GlyphClass: 2
Flags: W
LayerCount: 2
Fore
SplineSet
523 -19 m 0,0,1
 172 -19 172 -19 172 324 c 2,2,-1
 172 1068 l 1,3,-1
 600 1068 l 1,4,-1
 600 89 l 1,5,6
 610 84 610 84 625 84 c 2,7,-1
 658 84 l 2,8,9
 738 84 738 84 848 192 c 0,10,11
 881 225 881 225 910 264 c 1,12,-1
 910 1068 l 1,13,-1
 1340 1068 l 1,14,-1
 1340 0 l 1,15,-1
 910 0 l 1,16,-1
 910 154 l 1,17,18
 747 -19 747 -19 523 -19 c 0,0,1
EndSplineSet
EndChar

StartChar: v
Encoding: 118 118 108
Width: 1069
GlyphClass: 2
Flags: W
LayerCount: 2
Fore
SplineSet
4 1068 m 1,0,-1
 457 1068 l 1,1,-1
 729 507 l 1,2,-1
 900 847 l 1,3,4
 953 956 953 956 966.5 1009 c 128,-1,5
 980 1062 980 1062 993.5 1074 c 128,-1,6
 1007 1086 1007 1086 1026.5 1086 c 128,-1,7
 1046 1086 1046 1086 1057 1073 c 128,-1,8
 1068 1060 1068 1060 1068 1047 c 128,-1,9
 1068 1034 1068 1034 1065.5 1021 c 128,-1,10
 1063 1008 1063 1008 1056 986 c 0,11,12
 1041 945 1041 945 993 844 c 1,13,-1
 553 -45 l 1,14,-1
 4 1068 l 1,0,-1
EndSplineSet
EndChar

StartChar: w
Encoding: 119 119 109
Width: 1636
GlyphClass: 2
Flags: W
LayerCount: 2
Fore
SplineSet
4 1068 m 1,0,-1
 457 1068 l 1,1,-1
 713 530 l 1,2,-1
 1015 1114 l 1,3,-1
 1330 523 l 1,4,-1
 1473 847 l 2,5,6
 1525 966 1525 966 1535.5 1012.5 c 128,-1,7
 1546 1059 1546 1059 1560 1072.5 c 128,-1,8
 1574 1086 1574 1086 1593 1086 c 128,-1,9
 1612 1086 1612 1086 1623.5 1072 c 128,-1,10
 1635 1058 1635 1058 1635 1047.5 c 128,-1,11
 1635 1037 1635 1037 1633.5 1027.5 c 128,-1,12
 1632 1018 1632 1018 1625 997.5 c 128,-1,13
 1618 977 1618 977 1602 942 c 2,14,-1
 1171 -45 l 1,15,-1
 837 594 l 1,16,-1
 514 -45 l 1,17,-1
 4 1068 l 1,0,-1
EndSplineSet
EndChar

StartChar: x
Encoding: 120 120 110
Width: 1087
GlyphClass: 2
Flags: W
LayerCount: 2
Fore
SplineSet
37 -7.5 m 128,-1,1
 25 4 25 4 25 20 c 0,2,3
 25 52 25 52 61 79 c 256,4,5
 97 106 97 106 113 128 c 1,6,7
 113 128 113 128 378 453 c 1,8,-1
 10 1068 l 1,9,-1
 465 1068 l 1,10,-1
 677 715 l 1,11,12
 862 953 862 953 876 975 c 0,13,14
 903 1017 903 1017 912 1040 c 0,15,16
 931 1086 931 1086 965 1086 c 0,17,18
 981 1086 981 1086 993.5 1075.5 c 128,-1,19
 1006 1065 1006 1065 1006 1050 c 128,-1,20
 1006 1035 1006 1035 1000.5 1020 c 128,-1,21
 995 1005 995 1005 982 982 c 0,22,23
 956 938 956 938 891 855 c 2,24,-1
 722 640 l 1,25,-1
 1107 0 l 1,26,-1
 650 0 l 1,27,-1
 422 380 l 1,28,-1
 178 73 l 2,29,30
 115 -6 115 -6 88 -16 c 0,31,32
 78 -19 78 -19 63.5 -19 c 128,-1,0
 49 -19 49 -19 37 -7.5 c 128,-1,1
EndSplineSet
EndChar

StartChar: y
Encoding: 121 121 111
Width: 1069
GlyphClass: 2
Flags: W
LayerCount: 2
Fore
SplineSet
359 -236 m 0,0,1
 420 -217 420 -217 444 -187 c 1,2,3
 478 -147 478 -147 526 -43 c 1,4,-1
 549 10 l 1,5,-1
 4 1068 l 1,6,-1
 459 1068 l 1,7,-1
 743 464 l 1,8,-1
 907 847 l 2,9,10
 952 952 952 952 966 1007 c 128,-1,11
 980 1062 980 1062 993.5 1074 c 128,-1,12
 1007 1086 1007 1086 1026.5 1086 c 128,-1,13
 1046 1086 1046 1086 1057 1074 c 128,-1,14
 1068 1062 1068 1062 1068 1050 c 128,-1,15
 1068 1038 1068 1038 1065.5 1024.5 c 128,-1,16
 1063 1011 1063 1011 1055.5 988.5 c 128,-1,17
 1048 966 1048 966 1034 932 c 2,18,-1
 619 -30 l 2,19,20
 545 -204 545 -204 477 -275 c 1,21,22
 419 -338 419 -338 359.5 -338 c 128,-1,23
 300 -338 300 -338 300 -296.5 c 128,-1,24
 300 -255 300 -255 359 -236 c 0,0,1
EndSplineSet
EndChar

StartChar: z
Encoding: 122 122 112
Width: 1123
GlyphClass: 2
Flags: W
LayerCount: 2
Fore
SplineSet
1019 86 m 0,0,1
 1073 86 1073 86 1073 46 c 0,2,3
 1073 28 1073 28 1050 14 c 128,-1,4
 1027 0 1027 0 972 0 c 2,5,-1
 41 0 l 1,6,-1
 633 995 l 1,7,-1
 332 995 l 2,8,9
 266 995 266 995 231 989 c 0,10,11
 184 981 184 981 164 981 c 128,-1,12
 144 981 144 981 130.5 992.5 c 128,-1,13
 117 1004 117 1004 117 1021 c 0,14,15
 117 1068 117 1068 216 1068 c 2,16,-1
 1082 1068 l 1,17,-1
 528 73 l 1,18,-1
 857 73 l 2,19,20
 930 73 930 73 961 79 c 0,21,22
 998 86 998 86 1019 86 c 0,0,1
EndSplineSet
EndChar

StartChar: braceleft
Encoding: 123 123 113
Width: 934
GlyphClass: 2
Flags: W
LayerCount: 2
Fore
SplineSet
820 1536 m 0,0,1
 820 1491 820 1491 739 1495 c 0,2,3
 677 1499 677 1499 607 1468 c 1,4,-1
 607 1022 l 2,5,6
 607 871 607 871 528.5 798.5 c 128,-1,7
 450 726 450 726 277 710 c 1,8,9
 443 695 443 695 530 599 c 0,10,11
 607 514 607 514 607 379 c 2,12,-1
 607 -87 l 1,13,14
 676 -119 676 -119 732.5 -121.5 c 128,-1,15
 789 -124 789 -124 804.5 -133.5 c 128,-1,16
 820 -143 820 -143 820 -160 c 0,17,18
 820 -198 820 -198 756 -198 c 0,19,20
 657 -198 657 -198 560 -144.5 c 128,-1,21
 463 -91 463 -91 384 9 c 0,22,23
 210 229 210 229 187 568 c 0,24,25
 183 622 183 622 165.5 646.5 c 128,-1,26
 148 671 148 671 112 675 c 0,27,28
 51 682 51 682 51 714 c 128,-1,29
 51 746 51 746 100 750 c 0,30,31
 147 754 147 754 161 770 c 0,32,33
 182 794 182 794 186 851 c 0,34,35
 204 1167 204 1167 356 1366 c 1,36,37
 512 1573 512 1573 756 1573 c 0,38,39
 788 1573 788 1573 804 1561.5 c 128,-1,40
 820 1550 820 1550 820 1536 c 0,0,1
EndSplineSet
EndChar

StartChar: bar
Encoding: 124 124 114
Width: 458
GlyphClass: 2
Flags: W
LayerCount: 2
Fore
SplineSet
271 -182 m 1,0,-1
 274 -282 l 2,1,2
 274 -309 274 -309 259.5 -323.5 c 128,-1,3
 245 -338 245 -338 225 -338 c 256,4,5
 205 -338 205 -338 193.5 -324.5 c 128,-1,6
 182 -311 182 -311 182 -295 c 128,-1,7
 182 -279 182 -279 184 -266 c 2,8,-1
 190 -237 l 1,9,10
 194 -205 194 -205 194 -91 c 2,11,-1
 194 1213 l 2,12,13
 194 1289 194 1289 192 1315 c 2,14,-1
 188 1352 l 2,15,16
 187 1362 187 1362 187 1376 c 0,17,18
 187 1426 187 1426 227 1426 c 0,19,20
 244 1426 244 1426 259.5 1414 c 128,-1,21
 275 1402 275 1402 275 1373 c 2,22,-1
 271 1246 l 1,23,-1
 271 -182 l 1,0,-1
EndSplineSet
EndChar

StartChar: braceright
Encoding: 125 125 115
Width: 934
GlyphClass: 2
Flags: W
LayerCount: 2
Fore
SplineSet
162.5 -122.5 m 128,-1,1
 234 -119 234 -119 304 -87 c 1,2,-1
 304 379 l 2,3,4
 304 588 304 588 484 672 c 0,5,6
 546 702 546 702 634 710 c 1,7,8
 377 734 377 734 323 891 c 0,9,10
 304 946 304 946 304 1022 c 2,11,-1
 304 1468 l 1,12,13
 234 1499 234 1499 183 1496 c 0,14,15
 91 1491 91 1491 91 1536 c 0,16,17
 91 1550 91 1550 107 1561.5 c 128,-1,18
 123 1573 123 1573 155 1573 c 0,19,20
 399 1573 399 1573 556 1366 c 0,21,22
 707 1167 707 1167 725 851 c 1,23,24
 727 796 727 796 741 780 c 0,25,26
 764 754 764 754 800 751 c 0,27,28
 860 746 860 746 860 714 c 128,-1,29
 860 682 860 682 811.5 676.5 c 128,-1,30
 763 671 763 671 745.5 646.5 c 128,-1,31
 728 622 728 622 724 568 c 0,32,33
 701 229 701 229 527 9 c 0,34,35
 448 -91 448 -91 351 -144.5 c 128,-1,36
 254 -198 254 -198 155 -198 c 0,37,38
 91 -198 91 -198 91 -162 c 128,-1,0
 91 -126 91 -126 162.5 -122.5 c 128,-1,1
EndSplineSet
EndChar

StartChar: asciitilde
Encoding: 126 126 116
Width: 1202
GlyphClass: 2
Flags: W
LayerCount: 2
Fore
SplineSet
556 658 m 1,0,1
 263 883 263 883 166 645 c 0,2,3
 138 577 138 577 102 581 c 128,-1,4
 66 585 66 585 70 631 c 0,5,6
 74 689 74 689 142 759 c 1,7,8
 327 936 327 936 605 718 c 1,9,-1
 698 650 l 1,10,11
 768 601 768 601 796.5 593.5 c 128,-1,12
 825 586 825 586 862 582 c 0,13,14
 950 573 950 573 1005 702 c 1,15,16
 1021 743 1021 743 1035 756 c 128,-1,17
 1049 769 1049 769 1067 767 c 0,18,19
 1108 762 1108 762 1104 726 c 0,20,21
 1099 679 1099 679 1066 635 c 1,22,23
 959 473 959 473 776 522 c 0,24,25
 705 540 705 540 556 658 c 1,0,1
EndSplineSet
EndChar

StartChar: exclamdown
Encoding: 161 161 118
Width: 831
GlyphClass: 2
Flags: W
LayerCount: 2
Fore
SplineSet
402 1081 m 0,0,1
 306 1081 306 1081 251 1129 c 128,-1,2
 196 1177 196 1177 196 1262 c 0,3,4
 196 1338 196 1338 248 1385 c 0,5,6
 302 1433 302 1433 397 1433 c 0,7,8
 490 1433 490 1433 548 1382 c 0,9,10
 604 1334 604 1334 604 1263 c 0,11,12
 604 1139 604 1139 490 1096 c 0,13,14
 453 1081 453 1081 402 1081 c 0,0,1
119 134.5 m 128,-1,16
 97 180 97 180 97 219.5 c 128,-1,17
 97 259 97 259 101 283 c 128,-1,18
 105 307 105 307 116 338 c 1,19,20
 138 394 138 394 186 479.5 c 128,-1,21
 234 565 234 565 256 613 c 128,-1,22
 278 661 278 661 296 708 c 0,23,24
 323 778 323 778 343.5 858 c 128,-1,25
 364 938 364 938 374.5 949.5 c 128,-1,26
 385 961 385 961 399 961 c 128,-1,27
 413 961 413 961 428.5 949.5 c 128,-1,28
 444 938 444 938 455.5 889.5 c 128,-1,29
 467 841 467 841 480.5 793 c 128,-1,30
 494 745 494 745 510 702 c 0,31,32
 541 620 541 620 591 531 c 2,33,-1
 662 403 l 1,34,35
 701 328 701 328 705.5 293.5 c 128,-1,36
 710 259 710 259 710 217 c 128,-1,37
 710 175 710 175 689.5 129 c 128,-1,38
 669 83 669 83 630 50 c 0,39,40
 547 -19 547 -19 403 -19 c 0,41,42
 268 -19 268 -19 181 55 c 0,43,15
 141 89 141 89 119 134.5 c 128,-1,16
EndSplineSet
EndChar

StartChar: cent
Encoding: 162 162 119
Width: 1147
GlyphClass: 2
Flags: W
LayerCount: 2
Fore
SplineSet
1011 77 m 1,0,1
 867 -19 867 -19 676 -19 c 0,2,3
 584 -19 584 -19 514 -3 c 1,4,-1
 488 -71 l 2,5,6
 462 -141 462 -141 457 -186.5 c 128,-1,7
 452 -232 452 -232 443 -246.5 c 128,-1,8
 434 -261 434 -261 419.5 -266 c 128,-1,9
 405 -271 405 -271 389 -265 c 128,-1,10
 373 -259 373 -259 368.5 -244.5 c 128,-1,11
 364 -230 364 -230 364.5 -213.5 c 128,-1,12
 365 -197 365 -197 370 -172 c 0,13,14
 382 -117 382 -117 418 -23 c 1,15,-1
 436 18 l 1,16,17
 271 78 271 78 176 216 c 1,18,19
 81 356 81 356 81 544 c 0,20,21
 81 780 81 780 250 934 c 0,22,23
 418 1086 418 1086 672 1086 c 0,24,25
 691 1086 691 1086 713 1084 c 1,26,-1
 735 1140 l 1,27,28
 761 1210 761 1210 766 1255.5 c 128,-1,29
 771 1301 771 1301 780 1315.5 c 128,-1,30
 789 1330 789 1330 803.5 1335 c 128,-1,31
 818 1340 818 1340 834 1334 c 128,-1,32
 850 1328 850 1328 854.5 1313.5 c 128,-1,33
 859 1299 859 1299 858.5 1282.5 c 128,-1,34
 858 1266 858 1266 852 1240 c 0,35,36
 835 1160 835 1160 797 1074 c 1,37,38
 939 1047 939 1047 1023 986 c 0,39,40
 1053 964 1053 964 1053 939.5 c 128,-1,41
 1053 915 1053 915 1041.5 904.5 c 128,-1,42
 1030 894 1030 894 1016 894 c 0,43,44
 995 894 995 894 962 917 c 1,45,46
 897 979 897 979 769 1004 c 0,47,48
 723 1013 723 1013 668 1013 c 128,-1,49
 613 1013 613 1013 573 1005 c 1,50,-1
 573 64 l 1,51,52
 620 55 620 55 667.5 55 c 128,-1,53
 715 55 715 55 759.5 62.5 c 128,-1,54
 804 70 804 70 844 84 c 0,55,56
 929 114 929 114 981 160 c 0,57,58
 1018 192 1018 192 1035 192 c 0,59,60
 1073 192 1073 192 1073 158 c 128,-1,61
 1073 124 1073 124 1011 77 c 1,0,1
EndSplineSet
EndChar

StartChar: sterling
Encoding: 163 163 120
Width: 1375
GlyphClass: 2
Flags: W
LayerCount: 2
Fore
SplineSet
621 118 m 1,0,1
 463 -19 463 -19 262 -19 c 0,2,3
 82 -19 82 -19 30 100 c 0,4,5
 15 136 15 136 15 178 c 0,6,7
 15 261 15 261 75 317 c 0,8,9
 134 372 134 372 210 372 c 128,-1,10
 286 372 286 372 358 343 c 1,11,-1
 358 688 l 1,12,-1
 220 680 l 1,13,14
 196 680 196 680 179.5 693.5 c 128,-1,15
 163 707 163 707 163 725 c 0,16,17
 163 770 163 770 220 770 c 1,18,-1
 358 763 l 1,19,-1
 358 1058 l 2,20,21
 358 1220 358 1220 484 1324 c 0,22,23
 615 1433 615 1433 845 1433 c 0,24,25
 977 1433 977 1433 1096 1383 c 0,26,27
 1214 1334 1214 1334 1214 1282 c 0,28,29
 1214 1268 1214 1268 1205 1255.5 c 128,-1,30
 1196 1243 1196 1243 1182 1243 c 0,31,32
 1156 1243 1156 1243 1124 1271.5 c 128,-1,33
 1092 1300 1092 1300 1024 1326 c 128,-1,34
 956 1352 956 1352 869 1358 c 1,35,-1
 869 763 l 1,36,-1
 969 763 l 2,37,38
 1046 763 1046 763 1066 766 c 0,39,40
 1102 770 1102 770 1130 770 c 0,41,42
 1186 770 1186 770 1186 725 c 0,43,44
 1186 707 1186 707 1170.5 694 c 128,-1,45
 1155 681 1155 681 1125 681 c 1,46,-1
 982 688 l 1,47,-1
 869 688 l 1,48,49
 865 380 865 380 677 173 c 1,50,51
 882 55 882 55 1017 55 c 0,52,53
 1118 55 1118 55 1185 119 c 0,54,55
 1207 140 1207 140 1221.5 168 c 128,-1,56
 1236 196 1236 196 1246 205 c 128,-1,57
 1256 214 1256 214 1271.5 214 c 128,-1,58
 1287 214 1287 214 1299 203.5 c 128,-1,59
 1311 193 1311 193 1311 167.5 c 128,-1,60
 1311 142 1311 142 1284.5 103 c 128,-1,61
 1258 64 1258 64 1216 36 c 0,62,63
 1131 -19 1131 -19 1013 -19 c 0,64,65
 922 -19 922 -19 860 3 c 0,66,67
 752 41 752 41 621 118 c 1,0,1
358 265 m 1,68,69
 281 299 281 299 220 299 c 128,-1,70
 159 299 159 299 126 266.5 c 128,-1,71
 93 234 93 234 93 193 c 128,-1,72
 93 152 93 152 104.5 129 c 128,-1,73
 116 106 116 106 134 90 c 0,74,75
 173 55 173 55 234 55 c 0,76,77
 358 55 358 55 358 246 c 2,78,-1
 358 265 l 1,68,69
EndSplineSet
EndChar

StartChar: currency
Encoding: 164 164 121
Width: 1394
GlyphClass: 2
Flags: W
LayerCount: 2
Fore
SplineSet
951 183 m 1,0,1
 840 120 840 120 696.5 120 c 128,-1,2
 553 120 553 120 425 220 c 1,3,-1
 362 150 l 2,4,5
 308 91 308 91 289.5 51.5 c 128,-1,6
 271 12 271 12 256.5 1.5 c 128,-1,7
 242 -9 242 -9 226.5 -8 c 128,-1,8
 211 -7 211 -7 198.5 4 c 128,-1,9
 186 15 186 15 187 30 c 128,-1,10
 188 45 188 45 194.5 60 c 128,-1,11
 201 75 201 75 216 97 c 0,12,13
 252 152 252 152 313 220 c 1,14,-1
 365 275 l 1,15,16
 245 408 245 408 245 580.5 c 128,-1,17
 245 753 245 753 345 878 c 1,18,-1
 275 941 l 2,19,20
 262 952 262 952 247 964 c 2,21,-1
 218 986 l 1,22,23
 185 1009 185 1009 162 1020 c 0,24,25
 117 1042 117 1042 119 1075 c 0,26,27
 120 1091 120 1091 130.5 1103.5 c 128,-1,28
 141 1116 141 1116 156 1115 c 128,-1,29
 171 1114 171 1114 186 1107.5 c 128,-1,30
 201 1101 201 1101 222.5 1087 c 128,-1,31
 244 1073 244 1073 274 1049 c 2,32,-1
 346 990 l 1,33,-1
 401 937 l 1,34,35
 535 1058 535 1058 723 1058 c 128,-1,36
 911 1058 911 1058 1048 919 c 1,37,-1
 1107 985 l 2,38,39
 1118 998 1118 998 1130 1013 c 2,40,-1
 1152 1042 l 1,41,42
 1174 1073 1174 1073 1186 1098 c 0,43,44
 1209 1145 1209 1145 1241 1143 c 0,45,46
 1256 1142 1256 1142 1269 1131 c 128,-1,47
 1282 1120 1282 1120 1281 1104.5 c 128,-1,48
 1280 1089 1280 1089 1273.5 1074.5 c 128,-1,49
 1267 1060 1267 1060 1253 1038 c 0,50,51
 1225 993 1225 993 1156 915 c 1,52,-1
 1100 856 l 1,53,54
 1185 735 1185 735 1185 607 c 0,55,56
 1185 372 1185 372 1018 231 c 1,57,58
 1148 116 1148 116 1185 99 c 0,59,60
 1270 58 1270 58 1230 10 c 0,61,62
 1212 -11 1212 -11 1185.5 0.5 c 128,-1,63
 1159 12 1159 12 1137 26 c 0,64,65
 1082 63 1082 63 1014 124 c 1,66,-1
 951 183 l 1,0,1
319 588 m 0,67,68
 319 425 319 425 434 308 c 0,69,70
 549 192 549 192 715 192 c 0,71,72
 880 192 880 192 996 308 c 128,-1,73
 1112 424 1112 424 1112 588 c 0,74,75
 1112 753 1112 753 996 869 c 0,76,77
 879 986 879 986 715 986 c 0,78,79
 550 986 550 986 434 869 c 0,80,81
 319 752 319 752 319 588 c 0,67,68
EndSplineSet
EndChar

StartChar: yen
Encoding: 165 165 122
Width: 1322
GlyphClass: 2
Flags: W
LayerCount: 2
Fore
SplineSet
340 380 m 1,0,-1
 229 374 l 1,1,2
 205 374 205 374 188.5 387 c 128,-1,3
 172 400 172 400 172 419 c 128,-1,4
 172 438 172 438 187.5 450 c 128,-1,5
 203 462 203 462 229.5 462 c 128,-1,6
 256 462 256 462 282 460 c 2,7,-1
 329 455 l 2,8,9
 349 453 349 453 371 453 c 2,10,-1
 632 453 l 1,11,-1
 512 645 l 1,12,13
 426 645 426 645 340 645 c 1,14,-1
 229 639 l 1,15,16
 205 639 205 639 188.5 651.5 c 128,-1,17
 172 664 172 664 172 682 c 0,18,19
 172 726 172 726 229 726 c 1,20,-1
 371 718 l 1,21,-1
 466 718 l 1,22,-1
 31 1415 l 1,23,-1
 580 1415 l 1,24,-1
 916 862 l 1,25,-1
 1134 1250 l 1,26,-1
 1156 1294 l 2,27,28
 1178 1336 1178 1336 1191 1368.5 c 128,-1,29
 1204 1401 1204 1401 1216.5 1413.5 c 128,-1,30
 1229 1426 1229 1426 1248 1426 c 0,31,32
 1290 1426 1290 1426 1290 1389 c 0,33,34
 1290 1363 1290 1363 1272 1332 c 2,35,-1
 927 718 l 1,36,-1
 990 718 l 1,37,-1
 1150 726 l 1,38,39
 1206 726 1206 726 1206 682 c 0,40,41
 1206 664 1206 664 1190.5 651.5 c 128,-1,42
 1175 639 1175 639 1146 639 c 1,43,-1
 1003 645 l 1,44,-1
 886 645 l 1,45,-1
 778 453 l 1,46,-1
 990 453 l 1,47,-1
 1150 462 l 1,48,49
 1206 462 1206 462 1206 418 c 0,50,51
 1206 400 1206 400 1190.5 387 c 128,-1,52
 1175 374 1175 374 1146 374 c 1,53,-1
 1003 380 l 1,54,-1
 737 380 l 1,55,56
 606 147 606 147 596 128 c 2,57,-1
 554 44 l 1,58,59
 529 -11 529 -11 485 -11 c 0,60,61
 467 -11 467 -11 453.5 1 c 128,-1,62
 440 13 440 13 440 30 c 0,63,64
 440 61 440 61 464 90 c 0,65,66
 514 148 514 148 564 235 c 1,67,-1
 645 380 l 1,68,69
 492 380 492 380 340 380 c 1,0,-1
EndSplineSet
EndChar

StartChar: brokenbar
Encoding: 166 166 123
Width: 458
GlyphClass: 2
Flags: W
LayerCount: 2
Fore
SplineSet
271 822 m 1,0,-1
 274 722 l 2,1,2
 274 695 274 695 259.5 680.5 c 128,-1,3
 245 666 245 666 225 666 c 256,4,5
 205 666 205 666 193.5 679.5 c 128,-1,6
 182 693 182 693 182 709 c 0,7,8
 182 729 182 729 187 756 c 0,9,10
 194 794 194 794 194 913 c 2,11,-1
 194 1213 l 2,12,13
 194 1289 194 1289 192 1315 c 2,14,-1
 188 1352 l 2,15,16
 187 1362 187 1362 187 1376 c 0,17,18
 187 1426 187 1426 227 1426 c 0,19,20
 244 1426 244 1426 259.5 1414 c 128,-1,21
 275 1402 275 1402 275 1373 c 2,22,-1
 271 1246 l 1,23,-1
 271 822 l 1,0,-1
271 -182 m 1,24,-1
 274 -282 l 2,25,26
 274 -309 274 -309 259.5 -323.5 c 128,-1,27
 245 -338 245 -338 225 -338 c 256,28,29
 205 -338 205 -338 193.5 -324.5 c 128,-1,30
 182 -311 182 -311 182 -295 c 128,-1,31
 182 -279 182 -279 184 -266 c 2,32,-1
 190 -237 l 1,33,34
 194 -205 194 -205 194 -91 c 2,35,-1
 194 209 l 2,36,37
 194 285 194 285 192 311 c 2,38,-1
 188 347 l 2,39,40
 187 357 187 357 187 371 c 0,41,42
 187 421 187 421 227 421 c 0,43,44
 244 421 244 421 259.5 409.5 c 128,-1,45
 275 398 275 398 275 369 c 2,46,47
 275 369 275 369 271 242 c 1,48,-1
 271 -182 l 1,24,-1
EndSplineSet
EndChar

StartChar: section
Encoding: 167 167 124
Width: 1209
GlyphClass: 2
Flags: W
LayerCount: 2
Fore
SplineSet
292 -53.5 m 128,-1,1
 263 -28 263 -28 263 -9 c 0,2,3
 263 35 263 35 303 35 c 0,4,5
 322 35 322 35 360 1 c 0,6,7
 447 -75 447 -75 591 -75 c 0,8,9
 677 -75 677 -75 715 -52 c 1,10,11
 776 -13 776 -13 776 28 c 0,12,13
 776 77 776 77 738 113 c 0,14,15
 663 182 663 182 532.5 253 c 128,-1,16
 402 324 402 324 345.5 366 c 128,-1,17
 289 408 289 408 254 450 c 0,18,19
 188 529 188 529 188 622.5 c 128,-1,20
 188 716 188 716 254.5 794 c 128,-1,21
 321 872 321 872 448 923 c 1,22,23
 244 1053 244 1053 216 1173 c 0,24,25
 207 1212 207 1212 207 1261 c 128,-1,26
 207 1310 207 1310 241 1362 c 128,-1,27
 275 1414 275 1414 335 1454 c 0,28,29
 468 1543 468 1543 655 1543 c 0,30,31
 771 1543 771 1543 872 1494 c 0,32,33
 969 1446 969 1446 969 1400 c 0,34,35
 969 1386 969 1386 958 1373 c 128,-1,36
 947 1360 947 1360 930 1360 c 0,37,38
 908 1360 908 1360 870 1394 c 0,39,40
 783 1470 783 1470 649 1470 c 0,41,42
 507 1470 507 1470 473 1412 c 0,43,44
 463 1395 463 1395 463 1372.5 c 128,-1,45
 463 1350 463 1350 474.5 1324.5 c 128,-1,46
 486 1299 486 1299 512 1272 c 0,47,48
 561 1221 561 1221 676 1158 c 128,-1,49
 791 1095 791 1095 865 1044.5 c 128,-1,50
 939 994 939 994 980 950 c 0,51,52
 1051 874 1051 874 1051 776 c 0,53,54
 1051 578 1051 578 794 473 c 1,55,56
 982 355 982 355 1019 245 c 0,57,58
 1032 206 1032 206 1032 154.5 c 128,-1,59
 1032 103 1032 103 998.5 47 c 128,-1,60
 965 -9 965 -9 906 -52 c 0,61,62
 776 -148 776 -148 585 -148 c 0,63,64
 474 -148 474 -148 368 -100 c 0,65,0
 321 -79 321 -79 292 -53.5 c 128,-1,1
714 520 m 1,66,67
 811 559 811 559 811 627 c 0,68,69
 811 678 811 678 778 711 c 0,70,71
 722 765 722 765 570 851 c 1,72,-1
 530 873 l 1,73,74
 475 851 475 851 452 825 c 128,-1,75
 429 799 429 799 429 777 c 128,-1,76
 429 755 429 755 438.5 732.5 c 128,-1,77
 448 710 448 710 478 680 c 0,78,79
 544 614 544 614 714 520 c 1,66,67
EndSplineSet
EndChar

StartChar: dieresis
Encoding: 168 168 125
Width: 1037
GlyphClass: 2
Flags: W
LayerCount: 2
Fore
SplineSet
898.5 1236.5 m 128,-1,1
 851 1202 851 1202 790 1202 c 128,-1,2
 729 1202 729 1202 697 1212 c 128,-1,3
 665 1222 665 1222 642 1239 c 0,4,5
 594 1274 594 1274 594 1329 c 0,6,7
 594 1416 594 1416 692 1445 c 0,8,9
 726 1455 726 1455 770 1455 c 128,-1,10
 814 1455 814 1455 846.5 1444.5 c 128,-1,11
 879 1434 879 1434 901 1416 c 0,12,13
 946 1379 946 1379 946 1325 c 128,-1,0
 946 1271 946 1271 898.5 1236.5 c 128,-1,1
396 1236.5 m 128,-1,15
 349 1202 349 1202 288 1202 c 128,-1,16
 227 1202 227 1202 195 1212 c 128,-1,17
 163 1222 163 1222 140 1239 c 0,18,19
 91 1274 91 1274 91 1329 c 0,20,21
 91 1416 91 1416 190 1445 c 0,22,23
 223 1455 223 1455 267.5 1455 c 128,-1,24
 312 1455 312 1455 344 1444.5 c 128,-1,25
 376 1434 376 1434 398 1416 c 0,26,27
 443 1379 443 1379 443 1325 c 128,-1,14
 443 1271 443 1271 396 1236.5 c 128,-1,15
EndSplineSet
EndChar

StartChar: copyright
Encoding: 169 169 126
Width: 1303
GlyphClass: 2
Flags: W
LayerCount: 2
Fore
SplineSet
648 441 m 0,0,1
 518 441 518 441 414 484.5 c 128,-1,2
 310 528 310 528 236 602 c 1,3,4
 85 756 85 756 85 990 c 0,5,6
 85 1225 85 1225 240 1382 c 0,7,8
 402 1546 402 1546 653 1546 c 0,9,10
 906 1546 906 1546 1066 1384 c 0,11,12
 1217 1231 1217 1231 1217 997 c 0,13,14
 1217 762 1217 762 1062 604 c 1,15,16
 900 441 900 441 648 441 c 0,0,1
646 515 m 0,17,18
 747 515 747 515 835 547 c 128,-1,19
 923 579 923 579 990 640 c 0,20,21
 1136 775 1136 775 1136 994 c 0,22,23
 1136 1208 1136 1208 1000 1341 c 0,24,25
 864 1473 864 1473 650 1473 c 1,26,-1
 651 1472 l 1,27,28
 449 1472 449 1472 312 1346 c 0,29,30
 166 1212 166 1212 166 993 c 0,31,32
 166 780 166 780 302 646 c 0,33,34
 435 515 435 515 646 515 c 0,17,18
874 838 m 0,35,36
 909 838 909 838 909 806 c 0,37,38
 909 772 909 772 866 743 c 0,39,40
 788 691 788 691 697.5 691 c 128,-1,41
 607 691 607 691 547 713.5 c 128,-1,42
 487 736 487 736 442 777 c 0,43,44
 345 865 345 865 345 1007 c 0,45,46
 345 1140 345 1140 444 1226 c 0,47,48
 543 1311 543 1311 685 1311 c 0,49,50
 758 1311 758 1311 809 1288 c 0,51,52
 894 1250 894 1250 894 1214 c 128,-1,53
 894 1178 894 1178 861 1178 c 0,54,55
 840 1178 840 1178 808 1200 c 0,56,57
 755 1238 755 1238 679 1238 c 0,58,59
 658 1238 658 1238 630 1233 c 1,60,-1
 630 769 l 1,61,62
 668 764 668 764 700 764 c 0,63,64
 776 764 776 764 830 814 c 1,65,66
 854 838 854 838 874 838 c 0,35,36
EndSplineSet
EndChar

StartChar: ordfeminine
Encoding: 170 170 127
Width: 808
GlyphClass: 2
Flags: W
LayerCount: 2
Fore
SplineSet
478 769 m 1,0,1
 404 726 404 726 336 726 c 128,-1,2
 268 726 268 726 220.5 742.5 c 128,-1,3
 173 759 173 759 140 789 c 0,4,5
 73 851 73 851 73 952 c 0,6,7
 73 1113 73 1113 228 1162 c 0,8,9
 277 1178 277 1178 344.5 1178 c 128,-1,10
 412 1178 412 1178 478 1151 c 1,11,-1
 478 1353 l 1,12,13
 432 1364 432 1364 379 1364 c 0,14,15
 260 1364 260 1364 210 1310 c 0,16,17
 195 1293 195 1293 171 1293 c 0,18,19
 133 1293 133 1293 133 1329 c 0,20,21
 133 1369 133 1369 221 1402 c 1,22,23
 297 1433 297 1433 375 1433 c 0,24,25
 523 1433 523 1433 601 1394 c 1,26,27
 661 1358 661 1358 682 1312 c 0,28,29
 716 1237 716 1237 716 1123 c 2,30,-1
 716 736 l 1,31,-1
 478 736 l 1,32,-1
 478 769 l 1,0,1
349 1107 m 0,33,34
 343 1107 343 1107 319 1104 c 1,35,-1
 319 800 l 1,36,37
 325 799 325 799 330 799 c 128,-1,38
 335 799 335 799 340 799 c 0,39,40
 416 799 416 799 478 840 c 1,41,-1
 478 1080 l 1,42,43
 422 1107 422 1107 349 1107 c 0,33,34
EndSplineSet
EndChar

StartChar: guillemotleft
Encoding: 171 171 128
Width: 1025
GlyphClass: 2
Flags: W
LayerCount: 2
Fore
SplineSet
529 699 m 1,0,1
 666 813 666 813 740 890.5 c 128,-1,2
 814 968 814 968 828 981.5 c 128,-1,3
 842 995 842 995 852 1002 c 1,4,5
 866 1014 866 1014 882.5 1014 c 128,-1,6
 899 1014 899 1014 912 1003.5 c 128,-1,7
 925 993 925 993 925 975.5 c 128,-1,8
 925 958 925 958 912.5 943.5 c 128,-1,9
 900 929 900 929 868.5 905 c 128,-1,10
 837 881 837 881 798 847 c 2,11,-1
 721 780 l 1,12,-1
 672 733 l 2,13,14
 649 711 649 711 629 694 c 1,15,-1
 896 494 l 1,16,-1
 896 53 l 1,17,-1
 529 380 l 1,18,-1
 529 699 l 1,0,1
100 699 m 1,19,20
 237 813 237 813 311 890.5 c 128,-1,21
 385 968 385 968 399 981.5 c 128,-1,22
 413 995 413 995 422 1002 c 0,23,24
 437 1014 437 1014 453.5 1014 c 128,-1,25
 470 1014 470 1014 483 1003.5 c 128,-1,26
 496 993 496 993 496 975.5 c 128,-1,27
 496 958 496 958 483.5 943.5 c 128,-1,28
 471 929 471 929 439.5 905 c 128,-1,29
 408 881 408 881 369 847 c 2,30,-1
 292 780 l 1,31,-1
 243 733 l 2,32,33
 220 711 220 711 200 694 c 1,34,-1
 467 494 l 1,35,-1
 467 53 l 1,36,-1
 100 380 l 1,37,-1
 100 699 l 1,19,20
EndSplineSet
EndChar

StartChar: logicalnot
Encoding: 172 172 129
Width: 1078
GlyphClass: 2
Flags: W
LayerCount: 2
Fore
SplineSet
181 525 m 1,0,-1
 130 521 l 1,1,2
 100 521 100 521 85.5 535.5 c 128,-1,3
 71 550 71 550 71 567 c 128,-1,4
 71 584 71 584 83.5 596.5 c 128,-1,5
 96 609 96 609 119 609 c 1,6,7
 119 609 119 609 240 601 c 1,8,-1
 890 601 l 2,9,10
 939 601 939 601 950 582.5 c 128,-1,11
 961 564 961 564 961 542 c 2,12,-1
 961 421 l 2,13,14
 961 293 961 293 965.5 267 c 128,-1,15
 970 241 970 241 970 226 c 128,-1,16
 970 211 970 211 958 198.5 c 128,-1,17
 946 186 946 186 926.5 186 c 128,-1,18
 907 186 907 186 893.5 201 c 128,-1,19
 880 216 880 216 881 232 c 128,-1,20
 882 248 882 248 883.5 267 c 128,-1,21
 885 286 885 286 886 304 c 0,22,23
 888 342 888 342 888 390 c 2,24,-1
 888 527 l 1,25,26
 587 527 587 527 286 527 c 1,27,-1
 181 525 l 1,0,-1
EndSplineSet
EndChar

StartChar: registered
Encoding: 174 174 131
Width: 1303
GlyphClass: 2
Flags: W
LayerCount: 2
Fore
SplineSet
648 441 m 0,0,1
 518 441 518 441 414 484.5 c 128,-1,2
 310 528 310 528 236 602 c 1,3,4
 85 756 85 756 85 990 c 0,5,6
 85 1225 85 1225 240 1382 c 0,7,8
 402 1546 402 1546 653 1546 c 0,9,10
 906 1546 906 1546 1066 1384 c 0,11,12
 1217 1231 1217 1231 1217 997 c 0,13,14
 1217 762 1217 762 1062 604 c 1,15,16
 900 441 900 441 648 441 c 0,0,1
646 515 m 0,17,18
 747 515 747 515 835 547 c 128,-1,19
 923 579 923 579 990 640 c 0,20,21
 1136 775 1136 775 1136 994 c 0,22,23
 1136 1208 1136 1208 1000 1341 c 0,24,25
 864 1473 864 1473 650 1473 c 1,26,-1
 651 1472 l 1,27,28
 449 1472 449 1472 312 1346 c 0,29,30
 166 1212 166 1212 166 993 c 0,31,32
 166 780 166 780 302 646 c 0,33,34
 435 515 435 515 646 515 c 0,17,18
634 1316 m 2,35,36
 939 1316 939 1316 939 1111 c 0,37,38
 939 995 939 995 840 931 c 0,39,40
 809 911 809 911 770 902 c 1,41,42
 820 836 820 836 894 784 c 0,43,44
 932 757 932 757 932 742 c 0,45,46
 932 710 932 710 899 710 c 0,47,48
 863 710 863 710 807 763 c 1,49,50
 732 826 732 826 707 865 c 128,-1,51
 682 904 682 904 682 918 c 0,52,53
 682 953 682 953 740 963 c 128,-1,54
 798 973 798 973 829.5 1011.5 c 128,-1,55
 861 1050 861 1050 861 1115 c 128,-1,56
 861 1180 861 1180 806.5 1217.5 c 128,-1,57
 752 1255 752 1255 655 1252 c 0,58,59
 647 1251 647 1251 639 1251 c 2,60,-1
 624 1251 l 1,61,-1
 624 720 l 1,62,-1
 410 720 l 1,63,-1
 410 1316 l 1,64,-1
 634 1316 l 2,35,36
EndSplineSet
EndChar

StartChar: macron
Encoding: 175 175 132
Width: 904
GlyphClass: 2
Flags: W
LayerCount: 2
Fore
SplineSet
298 1258 m 1,0,-1
 148 1249 l 1,1,2
 124 1249 124 1249 107.5 1262.5 c 128,-1,3
 91 1276 91 1276 91 1295 c 128,-1,4
 91 1314 91 1314 106.5 1326 c 128,-1,5
 122 1338 122 1338 148 1338 c 1,6,7
 148 1338 148 1338 290 1330 c 1,8,-1
 597 1330 l 1,9,-1
 756 1338 l 1,10,11
 812 1338 812 1338 812 1294 c 0,12,13
 812 1276 812 1276 796.5 1263 c 128,-1,14
 781 1250 781 1250 752 1250 c 1,15,-1
 609 1258 l 1,16,-1
 298 1258 l 1,0,-1
EndSplineSet
EndChar

StartChar: degree
Encoding: 176 176 133
Width: 606
GlyphClass: 2
Flags: W
LayerCount: 2
Fore
SplineSet
302 1029 m 0,0,1
 258 1029 258 1029 219.5 1043.5 c 128,-1,2
 181 1058 181 1058 152 1084 c 1,3,4
 91 1142 91 1142 91 1232 c 0,5,6
 91 1318 91 1318 152 1375 c 0,7,8
 213 1433 213 1433 305 1433 c 0,9,10
 396 1433 396 1433 454 1378 c 1,11,12
 515 1322 515 1322 515 1232 c 0,13,14
 515 1143 515 1143 452 1086 c 0,15,16
 390 1029 390 1029 302 1029 c 0,0,1
437 1212.5 m 128,-1,18
 437 1256 437 1256 427.5 1280.5 c 128,-1,19
 418 1305 418 1305 400 1323 c 0,20,21
 362 1361 362 1361 301 1361 c 0,22,23
 247 1361 247 1361 219 1334 c 0,24,25
 169 1287 169 1287 169 1231 c 0,26,27
 169 1177 169 1177 210 1138 c 0,28,29
 249 1101 249 1101 290 1101 c 0,30,31
 358 1101 358 1101 397.5 1135 c 128,-1,17
 437 1169 437 1169 437 1212.5 c 128,-1,18
EndSplineSet
EndChar

StartChar: plusminus
Encoding: 177 177 134
Width: 1035
GlyphClass: 2
Flags: W
LayerCount: 2
Fore
SplineSet
531 620 m 1,0,-1
 539 463 l 2,1,2
 539 445 539 445 527.5 433 c 128,-1,3
 516 421 516 421 496 421 c 256,4,5
 476 421 476 421 462.5 435.5 c 128,-1,6
 449 450 449 450 451 474 c 1,7,-1
 456 624 l 1,8,-1
 456 782 l 1,9,10
 355 782 355 782 293 782 c 128,-1,11
 231 782 231 782 214 781 c 0,12,13
 168 778 168 778 146 776 c 128,-1,14
 124 774 124 774 110.5 788 c 128,-1,15
 97 802 97 802 97 821.5 c 128,-1,16
 97 841 97 841 108.5 852.5 c 128,-1,17
 120 864 120 864 136 864 c 0,18,19
 174 864 174 864 200 862 c 2,20,-1
 236 858 l 2,21,22
 258 856 258 856 292 856 c 2,23,-1
 456 856 l 1,24,-1
 456 1014 l 1,25,-1
 451 1165 l 1,26,27
 449 1189 449 1189 462.5 1203 c 128,-1,28
 476 1217 476 1217 496 1217 c 256,29,30
 516 1217 516 1217 527.5 1205 c 128,-1,31
 539 1193 539 1193 539 1175 c 2,32,-1
 531 1021 l 1,33,-1
 531 856 l 1,34,-1
 694 856 l 2,35,36
 728 856 728 856 744 858 c 2,37,-1
 772 860 l 2,38,39
 816 864 816 864 842 864 c 0,40,41
 893 864 893 864 893 821 c 0,42,43
 893 802 893 802 877.5 788 c 128,-1,44
 862 774 862 774 846 776 c 0,45,46
 779 782 779 782 745 782 c 2,47,-1
 531 782 l 1,48,-1
 531 620 l 1,0,-1
316 255 m 1,49,-1
 169 248 l 1,50,51
 141 248 141 248 124 260.5 c 128,-1,52
 107 273 107 273 107 293 c 0,53,54
 107 336 107 336 166 336 c 0,55,56
 178 336 178 336 212 332 c 256,57,58
 246 328 246 328 308 328 c 2,59,-1
 711 328 l 1,60,-1
 840 336 l 1,61,-1
 857 336 l 2,62,63
 881 336 881 336 897.5 324 c 128,-1,64
 914 312 914 312 914 292.5 c 128,-1,65
 914 273 914 273 896.5 261 c 128,-1,66
 879 249 879 249 853 249 c 1,67,-1
 705 255 l 1,68,-1
 316 255 l 1,49,-1
EndSplineSet
EndChar

StartChar: twosuperior
Encoding: 178 178 135
Width: 805
GlyphClass: 2
Flags: W
LayerCount: 2
Fore
SplineSet
670 729 m 0,0,1
 714 729 714 729 714 693 c 0,2,3
 714 652 714 652 616 652 c 2,4,-1
 73 652 l 1,5,6
 79 718 79 718 113 784 c 1,7,8
 169 897 169 897 250 1016 c 2,9,-1
 360 1179 l 1,10,11
 424 1276 424 1276 424 1309 c 0,12,13
 424 1367 424 1367 319 1367 c 0,14,15
 239 1367 239 1367 182 1326 c 0,16,17
 164 1312 164 1312 148.5 1290.5 c 128,-1,18
 133 1269 133 1269 115 1269 c 128,-1,19
 97 1269 97 1269 89 1279.5 c 128,-1,20
 81 1290 81 1290 81 1302 c 0,21,22
 81 1339 81 1339 149 1378 c 1,23,24
 242 1433 242 1433 341.5 1433 c 128,-1,25
 441 1433 441 1433 500.5 1417 c 128,-1,26
 560 1401 560 1401 602 1374 c 0,27,28
 689 1318 689 1318 689 1236 c 0,29,30
 689 1175 689 1175 672 1133 c 0,31,32
 646 1066 646 1066 593 976 c 2,33,-1
 523 855 l 2,34,35
 479 778 479 778 460 720 c 1,36,-1
 566 720 l 2,37,38
 611 720 611 720 628 724 c 0,39,40
 655 729 655 729 670 729 c 0,0,1
EndSplineSet
EndChar

StartChar: threesuperior
Encoding: 179 179 136
Width: 835
GlyphClass: 2
Flags: W
LayerCount: 2
Fore
SplineSet
127 1298 m 0,0,1
 95 1298 95 1298 95 1329 c 0,2,3
 95 1372 95 1372 203 1407 c 1,4,5
 274 1433 274 1433 360 1433 c 0,6,7
 605 1433 605 1433 676 1338 c 0,8,9
 706 1298 706 1298 706 1251 c 0,10,11
 706 1159 706 1159 618 1101 c 0,12,13
 592 1083 592 1083 556 1072 c 1,14,15
 632 1049 632 1049 680 992 c 0,16,17
 726 938 726 938 726 876.5 c 128,-1,18
 726 815 726 815 687.5 762.5 c 128,-1,19
 649 710 649 710 600 684 c 0,20,21
 505 633 505 633 356 633 c 256,22,23
 207 633 207 633 115 699 c 0,24,25
 55 741 55 741 55 780 c 128,-1,26
 55 819 55 819 88 819 c 0,27,28
 115 819 115 819 133 785 c 1,29,30
 169 729 169 729 288 704 c 0,31,32
 324 696 324 696 347 696 c 2,33,-1
 379 696 l 2,34,35
 388 696 388 696 396 698 c 1,36,-1
 396 1038 l 1,37,38
 386 1039 386 1039 376 1039 c 2,39,-1
 361 1039 l 1,40,-1
 297 1033 l 1,41,42
 245 1033 245 1033 245 1069 c 0,43,44
 245 1104 245 1104 289 1104 c 1,45,-1
 362 1098 l 1,46,-1
 396 1098 l 1,47,-1
 396 1369 l 1,48,49
 380 1371 380 1371 344.5 1371 c 128,-1,50
 309 1371 309 1371 257.5 1358.5 c 128,-1,51
 206 1346 206 1346 184 1328 c 0,52,53
 148 1298 148 1298 127 1298 c 0,0,1
437 1360 m 2,54,55
 433 1362 433 1362 431 1362 c 2,56,-1
 437 1360 l 2,54,55
EndSplineSet
EndChar

StartChar: acute
Encoding: 180 180 137
Width: 581
GlyphClass: 2
Flags: W
LayerCount: 2
Fore
SplineSet
319 1482 m 1,0,-1
 600 1482 l 1,1,-1
 357 1198 l 1,2,-1
 201 1198 l 1,3,-1
 319 1482 l 1,0,-1
EndSplineSet
EndChar

StartChar: mu
Encoding: 181 181 138
AltUni2: 0003bc.ffffffff.0
Width: 1264
GlyphClass: 2
Flags: W
LayerCount: 2
Fore
SplineSet
902 163 m 1,0,1
 785 -11 785 -11 576 -11 c 0,2,3
 486 -11 486 -11 414.5 33.5 c 128,-1,4
 343 78 343 78 303 154 c 1,5,-1
 303 -41 l 2,6,7
 303 -166 303 -166 337 -214 c 0,8,9
 349 -231 349 -231 366 -244 c 0,10,11
 397 -268 397 -268 397 -296 c 0,12,13
 397 -313 397 -313 384.5 -325.5 c 128,-1,14
 372 -338 372 -338 343 -338 c 128,-1,15
 314 -338 314 -338 280 -304 c 0,16,17
 225 -249 225 -249 225 -25 c 2,18,-1
 225 931 l 1,19,-1
 221 1032 l 1,20,21
 221 1058 221 1058 236.5 1072 c 128,-1,22
 252 1086 252 1086 271 1086 c 0,23,24
 314 1086 314 1086 314 1040 c 0,25,26
 314 1028 314 1028 312 1015 c 128,-1,27
 310 1002 310 1002 308 986 c 0,28,29
 303 956 303 956 303 840 c 2,30,-1
 303 403 l 2,31,32
 303 256 303 256 390 158 c 0,33,34
 474 62 474 62 590 62 c 0,35,36
 738 62 738 62 837 186 c 0,37,38
 871 228 871 228 897 286 c 1,39,-1
 897 862 l 2,40,41
 897 886 897 886 896 912 c 1,42,-1
 896 964 l 1,43,44
 895 988 895 988 894.5 1006.5 c 128,-1,45
 894 1025 894 1025 894 1041.5 c 128,-1,46
 894 1058 894 1058 909 1072 c 128,-1,47
 924 1086 924 1086 944 1086 c 256,48,49
 964 1086 964 1086 975.5 1073 c 128,-1,50
 987 1060 987 1060 987 1044 c 128,-1,51
 987 1028 987 1028 984 1015 c 128,-1,52
 981 1002 981 1002 978 986 c 0,53,54
 974 956 974 956 974 840 c 2,55,-1
 974 256 l 2,56,57
 974 106 974 106 1044 72 c 0,58,59
 1064 63 1064 63 1080 63 c 0,60,61
 1109 63 1109 63 1127 74 c 0,62,63
 1164 97 1164 97 1186 75 c 0,64,65
 1195 65 1195 65 1195 44 c 128,-1,66
 1195 23 1195 23 1165.5 6 c 128,-1,67
 1136 -11 1136 -11 1088 -11 c 0,68,69
 930 -11 930 -11 902 163 c 1,0,1
EndSplineSet
EndChar

StartChar: paragraph
Encoding: 182 182 139
Width: 1088
GlyphClass: 2
Flags: W
LayerCount: 2
Fore
SplineSet
664 320 m 2,0,1
 664 -91 664 -91 376 -91 c 0,2,3
 313 -91 313 -91 277 -71 c 128,-1,4
 241 -51 241 -51 241 -32 c 0,5,6
 241 6 241 6 274 6 c 0,7,8
 291 6 291 6 313 -4 c 0,9,10
 349 -19 349 -19 388 -19 c 0,11,12
 586 -19 586 -19 586 329 c 2,13,-1
 586 694 l 1,14,15
 365 696 365 696 227.5 799 c 128,-1,16
 90 902 90 902 90 1062 c 0,17,18
 90 1433 90 1433 596 1433 c 2,19,-1
 835 1433 l 1,20,-1
 959 1438 l 1,21,22
 1012 1438 1012 1438 1012 1398 c 0,23,24
 1012 1356 1012 1356 955 1356 c 1,25,-1
 858 1360 l 1,26,-1
 837 1360 l 1,27,-1
 837 228 l 2,28,29
 837 104 837 104 843 71.5 c 128,-1,30
 849 39 849 39 849 28 c 0,31,32
 849 -19 849 -19 806 -19 c 0,33,34
 787 -19 787 -19 772 -4.5 c 128,-1,35
 757 10 757 10 757 36 c 2,36,-1
 760 138 l 1,37,-1
 760 1359 l 1,38,-1
 664 1359 l 1,39,-1
 664 320 l 2,0,1
EndSplineSet
EndChar

StartChar: periodcentered
Encoding: 183 183 140
Width: 684
GlyphClass: 2
Flags: W
LayerCount: 2
Fore
SplineSet
324 517 m 0,0,1
 270 517 270 517 227.5 532.5 c 128,-1,2
 185 548 185 548 156 576 c 0,3,4
 97 634 97 634 97 732 c 0,5,6
 97 812 97 812 163 872 c 0,7,8
 232 934 232 934 332 934 c 0,9,10
 438 934 438 934 504 865 c 0,11,12
 563 802 563 802 563 717 c 256,13,14
 563 632 563 632 495 575 c 0,15,16
 426 517 426 517 324 517 c 0,0,1
EndSplineSet
EndChar

StartChar: cedilla
Encoding: 184 184 141
Width: 649
GlyphClass: 2
Flags: W
LayerCount: 2
Fore
SplineSet
342 -69 m 1,0,1
 558 -73 558 -73 558 -194 c 0,2,3
 558 -289 558 -289 428 -326 c 0,4,5
 385 -338 385 -338 340 -338 c 0,6,7
 189 -338 189 -338 120 -283 c 0,8,9
 91 -260 91 -260 91 -240 c 0,10,11
 91 -197 91 -197 131 -197 c 0,12,13
 152 -197 152 -197 173.5 -215.5 c 128,-1,14
 195 -234 195 -234 212 -241.5 c 128,-1,15
 229 -249 229 -249 250 -254 c 0,16,17
 289 -265 289 -265 349.5 -265 c 128,-1,18
 410 -265 410 -265 446 -243.5 c 128,-1,19
 482 -222 482 -222 482 -199.5 c 128,-1,20
 482 -177 482 -177 444.5 -160 c 128,-1,21
 407 -143 407 -143 349.5 -142 c 128,-1,22
 292 -141 292 -141 278 -130 c 128,-1,23
 264 -119 264 -119 264 -87 c 2,24,-1
 264 21 l 1,25,-1
 342 21 l 1,26,-1
 342 -69 l 1,0,1
EndSplineSet
EndChar

StartChar: onesuperior
Encoding: 185 185 142
Width: 641
GlyphClass: 2
Flags: W
LayerCount: 2
Fore
SplineSet
58 1238 m 0,0,1
 19 1238 19 1238 19 1271 c 0,2,3
 19 1285 19 1285 27.5 1295 c 128,-1,4
 36 1305 36 1305 53 1311.5 c 128,-1,5
 70 1318 70 1318 82 1322 c 0,6,7
 123 1333 123 1333 141 1338 c 2,8,-1
 522 1433 l 1,9,-1
 522 652 l 1,10,-1
 184 652 l 1,11,-1
 184 1279 l 1,12,-1
 162 1272 l 2,13,14
 136 1264 136 1264 123.5 1259 c 128,-1,15
 111 1254 111 1254 98 1249 c 0,16,17
 71 1238 71 1238 58 1238 c 0,0,1
EndSplineSet
EndChar

StartChar: ordmasculine
Encoding: 186 186 143
Width: 799
GlyphClass: 2
Flags: W
LayerCount: 2
Fore
SplineSet
398 716 m 0,0,1
 336 716 336 716 275.5 739 c 128,-1,2
 215 762 215 762 168 808 c 0,3,4
 61 911 61 911 61 1083 c 0,5,6
 61 1242 61 1242 166 1342 c 1,7,8
 263 1433 263 1433 402 1433 c 128,-1,9
 541 1433 541 1433 635 1340 c 0,10,11
 736 1241 736 1241 736 1077 c 0,12,13
 736 908 736 908 629 806 c 0,14,15
 534 716 534 716 398 716 c 0,0,1
401 789 m 2,16,17
 506 789 506 789 577 862 c 0,18,19
 654 941 654 941 654 1075 c 0,20,21
 654 1212 654 1212 574 1292 c 0,22,23
 504 1362 504 1362 400 1362 c 2,24,-1
 392 1362 l 2,25,26
 389 1362 389 1362 384 1361 c 1,27,-1
 384 789 l 1,28,-1
 401 789 l 2,16,17
EndSplineSet
EndChar

StartChar: guillemotright
Encoding: 187 187 144
Width: 1025
GlyphClass: 2
Flags: W
LayerCount: 2
Fore
SplineSet
542 63.5 m 128,-1,1
 529 74 529 74 529 91.5 c 128,-1,2
 529 109 529 109 541.5 123.5 c 128,-1,3
 554 138 554 138 585.5 162 c 128,-1,4
 617 186 617 186 656 220 c 2,5,-1
 733 287 l 1,6,7
 733 287 733 287 782 334 c 0,8,9
 805 356 805 356 825 373 c 1,10,-1
 558 573 l 1,11,-1
 558 1014 l 1,12,-1
 925 687 l 1,13,-1
 925 368 l 1,14,15
 830 288 830 288 795 255 c 1,16,-1
 662 123 l 1,17,18
 605 60 605 60 592 56.5 c 128,-1,19
 579 53 579 53 567 53 c 128,-1,0
 555 53 555 53 542 63.5 c 128,-1,1
113 63.5 m 128,-1,21
 100 74 100 74 100 91.5 c 128,-1,22
 100 109 100 109 112.5 123.5 c 128,-1,23
 125 138 125 138 156.5 162 c 128,-1,24
 188 186 188 186 227 220 c 2,25,-1
 304 287 l 1,26,-1
 353 334 l 2,27,28
 376 356 376 356 396 373 c 1,29,-1
 129 573 l 1,30,-1
 129 1014 l 1,31,-1
 496 687 l 1,32,-1
 496 368 l 1,33,34
 401 288 401 288 366 255 c 1,35,-1
 233 123 l 1,36,37
 176 60 176 60 163 56.5 c 128,-1,38
 150 53 150 53 138 53 c 128,-1,20
 126 53 126 53 113 63.5 c 128,-1,21
EndSplineSet
EndChar

StartChar: onequarter
Encoding: 188 188 145
Width: 1753
GlyphClass: 2
Flags: W
LayerCount: 2
Fore
SplineSet
329.5 -7 m 128,-1,1
 318 5 318 5 318 23 c 0,2,3
 318 50 318 50 354 90 c 0,4,5
 409 153 409 153 464 239 c 2,6,-1
 1130 1276 l 2,7,8
 1150 1307 1150 1307 1163.5 1335 c 128,-1,9
 1177 1363 1177 1363 1188 1384 c 0,10,11
 1214 1433 1214 1433 1238 1433 c 0,12,13
 1287 1433 1287 1433 1287 1396 c 0,14,15
 1287 1369 1287 1369 1266 1340 c 0,16,17
 1231 1291 1231 1291 1217 1269 c 2,18,-1
 452 68 l 2,19,20
 407 -1 407 -1 390 -10 c 128,-1,21
 373 -19 373 -19 357 -19 c 128,-1,0
 341 -19 341 -19 329.5 -7 c 128,-1,1
94 1238 m 0,22,23
 55 1238 55 1238 55 1271 c 0,24,25
 55 1285 55 1285 63.5 1295 c 128,-1,26
 72 1305 72 1305 89 1311.5 c 128,-1,27
 106 1318 106 1318 118 1322 c 0,28,29
 159 1333 159 1333 177 1338 c 2,30,-1
 558 1433 l 1,31,-1
 558 652 l 1,32,-1
 220 652 l 1,33,-1
 220 1279 l 1,34,-1
 198 1272 l 2,35,36
 172 1264 172 1264 159.5 1259 c 128,-1,37
 147 1254 147 1254 134 1249 c 0,38,39
 107 1238 107 1238 94 1238 c 0,22,23
846.5 166.5 m 128,-1,41
 834 177 834 177 834 187.5 c 128,-1,42
 834 198 834 198 835.5 205.5 c 128,-1,43
 837 213 837 213 842 223 c 0,44,45
 852 244 852 244 878 284 c 2,46,-1
 1192 781 l 1,47,-1
 1521 781 l 1,48,-1
 1521 220 l 1,49,50
 1578 220 1578 220 1590 222 c 0,51,52
 1613 227 1613 227 1631 227 c 0,53,54
 1670 227 1670 227 1670 197 c 0,55,56
 1670 158 1670 158 1580 156 c 0,57,58
 1555 156 1555 156 1528 156 c 2,59,-1
 1521 156 l 1,60,-1
 1521 0 l 1,61,-1
 1179 0 l 1,62,-1
 1179 156 l 1,63,-1
 885 156 l 2,64,40
 859 156 859 156 846.5 166.5 c 128,-1,41
934 242 m 1,65,66
 926 232 926 232 926 226 c 128,-1,67
 926 220 926 220 938 220 c 2,68,-1
 1179 220 l 1,69,-1
 1179 628 l 1,70,-1
 934 242 l 1,65,66
EndSplineSet
EndChar

StartChar: onehalf
Encoding: 189 189 146
Width: 1696
GlyphClass: 2
Flags: W
LayerCount: 2
Fore
SplineSet
325.5 -7 m 128,-1,1
 314 5 314 5 314 19 c 128,-1,2
 314 33 314 33 316.5 41 c 128,-1,3
 319 49 319 49 325 58 c 0,4,5
 336 76 336 76 361 103 c 0,6,7
 401 148 401 148 459 239 c 2,8,-1
 1125 1276 l 2,9,10
 1145 1307 1145 1307 1158.5 1335 c 128,-1,11
 1172 1363 1172 1363 1183 1384 c 128,-1,12
 1194 1405 1194 1405 1206.5 1419 c 128,-1,13
 1219 1433 1219 1433 1239 1433 c 0,14,15
 1282 1433 1282 1433 1282 1396 c 0,16,17
 1282 1370 1282 1370 1262 1341 c 2,18,-1
 1136 1150 l 1,19,-1
 447 68 l 2,20,21
 402 -1 402 -1 385 -10 c 128,-1,22
 368 -19 368 -19 352.5 -19 c 128,-1,0
 337 -19 337 -19 325.5 -7 c 128,-1,1
94 1238 m 0,23,24
 55 1238 55 1238 55 1271 c 0,25,26
 55 1285 55 1285 63.5 1295 c 128,-1,27
 72 1305 72 1305 89 1311.5 c 128,-1,28
 106 1318 106 1318 118 1322 c 0,29,30
 159 1333 159 1333 177 1338 c 2,31,-1
 558 1433 l 1,32,-1
 558 652 l 1,33,-1
 220 652 l 1,34,-1
 220 1279 l 1,35,-1
 198 1272 l 2,36,37
 172 1264 172 1264 159.5 1259 c 128,-1,38
 147 1254 147 1254 134 1249 c 0,39,40
 107 1238 107 1238 94 1238 c 0,23,24
1560 77 m 0,41,42
 1604 77 1604 77 1604 41 c 0,43,44
 1604 0 1604 0 1506 0 c 2,45,-1
 963 0 l 1,46,47
 969 66 969 66 1003 132 c 1,48,49
 1059 245 1059 245 1140 364 c 2,50,-1
 1250 527 l 1,51,52
 1314 624 1314 624 1314 657 c 0,53,54
 1314 715 1314 715 1209 715 c 0,55,56
 1129 715 1129 715 1072 674 c 0,57,58
 1054 660 1054 660 1038.5 638.5 c 128,-1,59
 1023 617 1023 617 1005 617 c 128,-1,60
 987 617 987 617 979 627.5 c 128,-1,61
 971 638 971 638 971 650 c 0,62,63
 971 687 971 687 1039 726 c 1,64,65
 1132 781 1132 781 1231.5 781 c 128,-1,66
 1331 781 1331 781 1390.5 765 c 128,-1,67
 1450 749 1450 749 1492 722 c 0,68,69
 1579 666 1579 666 1579 584 c 0,70,71
 1579 523 1579 523 1562 481 c 0,72,73
 1536 414 1536 414 1483 324 c 2,74,-1
 1413 203 l 2,75,76
 1369 126 1369 126 1350 68 c 1,77,-1
 1456 68 l 2,78,79
 1501 68 1501 68 1518 72 c 0,80,81
 1545 77 1545 77 1560 77 c 0,41,42
EndSplineSet
EndChar

StartChar: threequarters
Encoding: 190 190 147
Width: 1809
GlyphClass: 2
Flags: W
LayerCount: 2
Fore
SplineSet
404 -7 m 128,-1,1
 393 5 393 5 393 19 c 128,-1,2
 393 33 393 33 395.5 41 c 128,-1,3
 398 49 398 49 404 58 c 0,4,5
 415 76 415 76 439 103 c 0,6,7
 487 157 487 157 539 239 c 2,8,-1
 1205 1276 l 2,9,10
 1224 1307 1224 1307 1238 1335 c 2,11,-1
 1262 1383 l 2,12,13
 1273 1405 1273 1405 1285.5 1419 c 128,-1,14
 1298 1433 1298 1433 1318 1433 c 0,15,16
 1362 1433 1362 1433 1362 1396 c 0,17,18
 1362 1368 1362 1368 1342 1340 c 2,19,-1
 1312 1299 l 2,20,21
 1303 1286 1303 1286 1290 1267 c 2,22,-1
 526 68 l 2,23,24
 481 -1 481 -1 463.5 -10 c 128,-1,25
 446 -19 446 -19 430.5 -19 c 128,-1,0
 415 -19 415 -19 404 -7 c 128,-1,1
127 1298 m 0,26,27
 95 1298 95 1298 95 1329 c 0,28,29
 95 1372 95 1372 203 1407 c 1,30,31
 274 1433 274 1433 360 1433 c 0,32,33
 605 1433 605 1433 676 1338 c 0,34,35
 706 1298 706 1298 706 1251 c 0,36,37
 706 1159 706 1159 618 1101 c 0,38,39
 592 1083 592 1083 556 1072 c 1,40,41
 632 1049 632 1049 680 992 c 0,42,43
 726 938 726 938 726 876.5 c 128,-1,44
 726 815 726 815 687.5 762.5 c 128,-1,45
 649 710 649 710 600 684 c 0,46,47
 505 633 505 633 356 633 c 256,48,49
 207 633 207 633 115 699 c 0,50,51
 55 741 55 741 55 780 c 128,-1,52
 55 819 55 819 88 819 c 0,53,54
 115 819 115 819 133 785 c 1,55,56
 169 729 169 729 288 704 c 0,57,58
 324 696 324 696 347 696 c 2,59,-1
 379 696 l 2,60,61
 388 696 388 696 396 698 c 1,62,-1
 396 1038 l 1,63,64
 386 1039 386 1039 376 1039 c 2,65,-1
 361 1039 l 1,66,-1
 297 1033 l 1,67,68
 245 1033 245 1033 245 1069 c 0,69,70
 245 1104 245 1104 289 1104 c 1,71,-1
 362 1098 l 1,72,-1
 396 1098 l 1,73,-1
 396 1369 l 1,74,75
 380 1371 380 1371 344.5 1371 c 128,-1,76
 309 1371 309 1371 257.5 1358.5 c 128,-1,77
 206 1346 206 1346 184 1328 c 0,78,79
 148 1298 148 1298 127 1298 c 0,26,27
437 1360 m 2,80,81
 433 1362 433 1362 431 1362 c 2,82,-1
 437 1360 l 2,80,81
903.5 166.5 m 128,-1,84
 890 177 890 177 890 187.5 c 128,-1,85
 890 198 890 198 891.5 205.5 c 128,-1,86
 893 213 893 213 898 223 c 128,-1,87
 903 233 903 233 912 248 c 2,88,-1
 1249 781 l 1,89,-1
 1578 781 l 1,90,-1
 1578 220 l 1,91,92
 1632 220 1632 220 1646 222 c 0,93,94
 1670 227 1670 227 1687 227 c 0,95,96
 1728 227 1728 227 1728 197 c 0,97,98
 1728 158 1728 158 1636 156 c 0,99,100
 1611 156 1611 156 1584 156 c 2,101,-1
 1578 156 l 1,102,-1
 1578 0 l 1,103,-1
 1236 0 l 1,104,-1
 1236 156 l 1,105,-1
 943 156 l 2,106,83
 917 156 917 156 903.5 166.5 c 128,-1,84
990 242 m 2,107,108
 982 231 982 231 982 225.5 c 128,-1,109
 982 220 982 220 995 220 c 2,110,-1
 1236 220 l 1,111,-1
 1236 631 l 1,112,-1
 990 242 l 2,107,108
EndSplineSet
EndChar

StartChar: questiondown
Encoding: 191 191 148
Width: 926
GlyphClass: 2
Flags: W
LayerCount: 2
Fore
SplineSet
468 887 m 0,0,1
 373 887 373 887 316.5 935 c 128,-1,2
 260 983 260 983 260 1068 c 0,3,4
 260 1143 260 1143 314 1191 c 256,5,6
 368 1239 368 1239 462 1239 c 0,7,8
 555 1239 555 1239 613 1188 c 1,9,10
 668 1141 668 1141 668 1069 c 0,11,12
 668 945 668 945 556 902 c 0,13,14
 518 887 518 887 468 887 c 0,0,1
603.5 512 m 128,-1,16
 685 410 685 410 745 292.5 c 128,-1,17
 805 175 805 175 805 92.5 c 128,-1,18
 805 10 805 10 779.5 -43 c 128,-1,19
 754 -96 754 -96 707 -134 c 0,20,21
 607 -213 607 -213 447 -213 c 0,22,23
 347 -213 347 -213 285 -192.5 c 128,-1,24
 223 -172 223 -172 187.5 -143 c 128,-1,25
 152 -114 152 -114 152 -92 c 0,26,27
 152 -50 152 -50 187 -50 c 0,28,29
 213 -50 213 -50 246 -81 c 0,30,31
 309 -140 309 -140 397 -140 c 0,32,33
 425 -140 425 -140 440 -127.5 c 128,-1,34
 455 -115 455 -115 455 -98 c 128,-1,35
 455 -81 455 -81 448.5 -60.5 c 128,-1,36
 442 -40 442 -40 426 -12 c 0,37,38
 393 46 393 46 336.5 115.5 c 128,-1,39
 280 185 280 185 251 228.5 c 128,-1,40
 222 272 222 272 204 311 c 0,41,42
 170 385 170 385 170 459 c 128,-1,43
 170 533 170 533 200.5 589.5 c 128,-1,44
 231 646 231 646 281 684 c 0,45,46
 383 761 383 761 525 757 c 0,47,48
 608 755 608 755 658 728 c 0,49,50
 746 680 746 680 746 647 c 128,-1,51
 746 614 746 614 715 614 c 0,52,53
 690 614 690 614 658 638 c 0,54,55
 607 677 607 677 564.5 677 c 128,-1,56
 522 677 522 677 522 645.5 c 128,-1,15
 522 614 522 614 603.5 512 c 128,-1,16
EndSplineSet
EndChar

StartChar: Agrave
Encoding: 192 192 149
Width: 1355
GlyphClass: 2
Flags: W
LayerCount: 2
Fore
SplineSet
427 178 m 2,0,1
 244 178 244 178 177 181 c 1,2,-1
 148 112 l 2,3,4
 135 83 135 83 124 51 c 0,5,6
 101 -11 101 -11 60 -11 c 0,7,8
 41 -11 41 -11 29 1 c 128,-1,9
 17 13 17 13 17 26 c 0,10,11
 17 48 17 48 36 75 c 0,12,13
 66 117 66 117 95 185 c 1,14,15
 9 193 9 193 9 235 c 128,-1,16
 9 277 9 277 58 277 c 0,17,18
 88 277 88 277 128 267 c 1,19,-1
 627 1479 l 1,20,-1
 1311 0 l 1,21,-1
 790 0 l 1,22,-1
 707 178 l 1,23,-1
 427 178 l 2,0,1
209 259 m 1,24,25
 305 251 305 251 381 251 c 2,26,-1
 674 251 l 1,27,-1
 424 790 l 1,28,-1
 209 259 l 1,24,25
277 1700 m 1,29,-1
 558 1700 l 1,30,-1
 675 1416 l 1,31,-1
 521 1416 l 1,32,-1
 277 1700 l 1,29,-1
EndSplineSet
EndChar

StartChar: Aacute
Encoding: 193 193 150
Width: 1355
GlyphClass: 2
Flags: W
LayerCount: 2
Fore
SplineSet
427 178 m 2,0,1
 244 178 244 178 177 181 c 1,2,-1
 148 112 l 2,3,4
 135 83 135 83 124 51 c 0,5,6
 101 -11 101 -11 60 -11 c 0,7,8
 41 -11 41 -11 29 1 c 128,-1,9
 17 13 17 13 17 26 c 0,10,11
 17 48 17 48 36 75 c 0,12,13
 66 117 66 117 95 185 c 1,14,15
 9 193 9 193 9 235 c 128,-1,16
 9 277 9 277 58 277 c 0,17,18
 88 277 88 277 128 267 c 1,19,-1
 627 1479 l 1,20,-1
 1311 0 l 1,21,-1
 790 0 l 1,22,-1
 707 178 l 1,23,-1
 427 178 l 2,0,1
209 259 m 1,24,25
 305 251 305 251 381 251 c 2,26,-1
 674 251 l 1,27,-1
 424 790 l 1,28,-1
 209 259 l 1,24,25
767 1812 m 1,29,-1
 1047 1812 l 1,30,-1
 804 1528 l 1,31,-1
 649 1528 l 1,32,-1
 767 1812 l 1,29,-1
EndSplineSet
EndChar

StartChar: Acircumflex
Encoding: 194 194 151
Width: 1355
GlyphClass: 2
Flags: W
LayerCount: 2
Fore
SplineSet
427 178 m 2,0,1
 244 178 244 178 177 181 c 1,2,-1
 148 112 l 2,3,4
 135 83 135 83 124 51 c 0,5,6
 101 -11 101 -11 60 -11 c 0,7,8
 41 -11 41 -11 29 1 c 128,-1,9
 17 13 17 13 17 26 c 0,10,11
 17 48 17 48 36 75 c 0,12,13
 66 117 66 117 95 185 c 1,14,15
 9 193 9 193 9 235 c 128,-1,16
 9 277 9 277 58 277 c 0,17,18
 88 277 88 277 128 267 c 1,19,-1
 627 1479 l 1,20,-1
 1311 0 l 1,21,-1
 790 0 l 1,22,-1
 707 178 l 1,23,-1
 427 178 l 2,0,1
209 259 m 1,24,25
 305 251 305 251 381 251 c 2,26,-1
 674 251 l 1,27,-1
 424 790 l 1,28,-1
 209 259 l 1,24,25
419 1574 m 2,29,-1
 389 1544 l 2,30,31
 367 1522 367 1522 350 1522 c 128,-1,32
 333 1522 333 1522 322.5 1532.5 c 128,-1,33
 312 1543 312 1543 312 1557 c 0,34,35
 312 1583 312 1583 353 1618 c 1,36,37
 366 1631 366 1631 386 1648.5 c 128,-1,38
 406 1666 406 1666 444 1704 c 2,39,-1
 554 1814 l 1,40,-1
 809 1814 l 1,41,-1
 1072 1530 l 1,42,-1
 764 1530 l 1,43,-1
 584 1744 l 1,44,45
 459 1618 459 1618 443 1600 c 128,-1,46
 427 1582 427 1582 419 1574 c 2,29,-1
EndSplineSet
EndChar

StartChar: Atilde
Encoding: 195 195 152
Width: 1355
GlyphClass: 2
Flags: W
LayerCount: 2
Fore
SplineSet
427 178 m 2,0,1
 244 178 244 178 177 181 c 1,2,-1
 148 112 l 2,3,4
 135 83 135 83 124 51 c 0,5,6
 101 -11 101 -11 60 -11 c 0,7,8
 41 -11 41 -11 29 1 c 128,-1,9
 17 13 17 13 17 26 c 0,10,11
 17 48 17 48 36 75 c 0,12,13
 66 117 66 117 95 185 c 1,14,15
 9 193 9 193 9 235 c 128,-1,16
 9 277 9 277 58 277 c 0,17,18
 88 277 88 277 128 267 c 1,19,-1
 627 1479 l 1,20,-1
 1311 0 l 1,21,-1
 790 0 l 1,22,-1
 707 178 l 1,23,-1
 427 178 l 2,0,1
209 259 m 1,24,25
 305 251 305 251 381 251 c 2,26,-1
 674 251 l 1,27,-1
 424 790 l 1,28,-1
 209 259 l 1,24,25
344.5 1540 m 128,-1,30
 332 1540 332 1540 320.5 1553.5 c 128,-1,31
 309 1567 309 1567 309 1599.5 c 128,-1,32
 309 1632 309 1632 329 1675.5 c 128,-1,33
 349 1719 349 1719 384 1754 c 0,34,35
 462 1832 462 1832 563 1832 c 0,36,37
 647 1832 647 1832 753 1749 c 1,38,-1
 805 1709 l 2,39,40
 862 1666 862 1666 880 1666 c 128,-1,41
 898 1666 898 1666 914.5 1691 c 128,-1,42
 931 1716 931 1716 937.5 1756 c 128,-1,43
 944 1796 944 1796 951 1809.5 c 128,-1,44
 958 1823 958 1823 975 1823 c 128,-1,45
 992 1823 992 1823 1003.5 1808 c 128,-1,46
 1015 1793 1015 1793 1015 1761.5 c 128,-1,47
 1015 1730 1015 1730 995 1686.5 c 128,-1,48
 975 1643 975 1643 940 1608 c 0,49,50
 862 1530 862 1530 761 1530 c 0,51,52
 682 1530 682 1530 574 1608 c 1,53,-1
 502 1662 l 2,54,55
 470 1687 470 1687 455 1687 c 128,-1,56
 440 1687 440 1687 429.5 1680.5 c 128,-1,57
 419 1674 419 1674 409 1662 c 0,58,59
 387 1637 387 1637 382 1610 c 2,60,-1
 376 1572 l 2,61,62
 372 1548 372 1548 364.5 1544 c 128,-1,29
 357 1540 357 1540 344.5 1540 c 128,-1,30
EndSplineSet
EndChar

StartChar: Adieresis
Encoding: 196 196 153
Width: 1355
GlyphClass: 2
Flags: W
LayerCount: 2
Fore
SplineSet
427 178 m 2,0,1
 244 178 244 178 177 181 c 1,2,-1
 148 112 l 2,3,4
 135 83 135 83 124 51 c 0,5,6
 101 -11 101 -11 60 -11 c 0,7,8
 41 -11 41 -11 29 1 c 128,-1,9
 17 13 17 13 17 26 c 0,10,11
 17 48 17 48 36 75 c 0,12,13
 66 117 66 117 95 185 c 1,14,15
 9 193 9 193 9 235 c 128,-1,16
 9 277 9 277 58 277 c 0,17,18
 88 277 88 277 128 267 c 1,19,-1
 627 1479 l 1,20,-1
 1311 0 l 1,21,-1
 790 0 l 1,22,-1
 707 178 l 1,23,-1
 427 178 l 2,0,1
209 259 m 1,24,25
 305 251 305 251 381 251 c 2,26,-1
 674 251 l 1,27,-1
 424 790 l 1,28,-1
 209 259 l 1,24,25
1029.5 1564.5 m 128,-1,30
 982 1530 982 1530 921 1530 c 128,-1,31
 860 1530 860 1530 828 1540 c 128,-1,32
 796 1550 796 1550 773 1567 c 0,33,34
 725 1602 725 1602 725 1657 c 0,35,36
 725 1744 725 1744 823 1773 c 0,37,38
 857 1783 857 1783 901 1783 c 128,-1,39
 945 1783 945 1783 977.5 1772.5 c 128,-1,40
 1010 1762 1010 1762 1032 1744 c 0,41,42
 1077 1707 1077 1707 1077 1653 c 128,-1,29
 1077 1599 1077 1599 1029.5 1564.5 c 128,-1,30
527 1564.5 m 128,-1,44
 480 1530 480 1530 419 1530 c 128,-1,45
 358 1530 358 1530 326 1540 c 128,-1,46
 294 1550 294 1550 271 1567 c 0,47,48
 222 1602 222 1602 222 1657 c 0,49,50
 222 1744 222 1744 321 1773 c 0,51,52
 354 1783 354 1783 398.5 1783 c 128,-1,53
 443 1783 443 1783 475 1772.5 c 128,-1,54
 507 1762 507 1762 529 1744 c 0,55,56
 574 1707 574 1707 574 1653 c 128,-1,43
 574 1599 574 1599 527 1564.5 c 128,-1,44
EndSplineSet
EndChar

StartChar: Aring
Encoding: 197 197 154
Width: 1355
GlyphClass: 2
Flags: W
LayerCount: 2
Fore
SplineSet
427 178 m 2,0,1
 244 178 244 178 177 181 c 1,2,-1
 148 112 l 2,3,4
 135 83 135 83 124 51 c 0,5,6
 101 -11 101 -11 60 -11 c 0,7,8
 41 -11 41 -11 29 1 c 128,-1,9
 17 13 17 13 17 26 c 0,10,11
 17 48 17 48 36 75 c 0,12,13
 66 117 66 117 95 185 c 1,14,15
 9 193 9 193 9 235 c 128,-1,16
 9 277 9 277 58 277 c 0,17,18
 88 277 88 277 128 267 c 1,19,-1
 627 1479 l 1,20,-1
 1311 0 l 1,21,-1
 790 0 l 1,22,-1
 707 178 l 1,23,-1
 427 178 l 2,0,1
209 259 m 1,24,25
 305 251 305 251 381 251 c 2,26,-1
 674 251 l 1,27,-1
 424 790 l 1,28,-1
 209 259 l 1,24,25
653 1530 m 0,29,30
 587 1530 587 1530 542 1572 c 0,31,32
 497 1613 497 1613 497 1682 c 0,33,34
 497 1782 497 1782 592 1821 c 0,35,36
 621 1833 621 1833 654.5 1833 c 128,-1,37
 688 1833 688 1833 716.5 1822 c 128,-1,38
 745 1811 745 1811 766 1791 c 0,39,40
 809 1749 809 1749 809 1682 c 256,41,42
 809 1615 809 1615 764 1572 c 0,43,44
 720 1530 720 1530 653 1530 c 0,29,30
622.5 1608 m 128,-1,46
 637 1602 637 1602 662 1602 c 128,-1,47
 687 1602 687 1602 710.5 1623.5 c 128,-1,48
 734 1645 734 1645 734 1680 c 128,-1,49
 734 1715 734 1715 711.5 1737 c 128,-1,50
 689 1759 689 1759 653.5 1759 c 128,-1,51
 618 1759 618 1759 595.5 1737 c 128,-1,52
 573 1715 573 1715 573 1690 c 128,-1,53
 573 1665 573 1665 579.5 1650.5 c 128,-1,54
 586 1636 586 1636 597 1625 c 128,-1,45
 608 1614 608 1614 622.5 1608 c 128,-1,46
EndSplineSet
EndChar

StartChar: AE
Encoding: 198 198 155
Width: 1647
GlyphClass: 2
Flags: W
LayerCount: 2
Fore
SplineSet
419 178 m 2,0,1
 236 178 236 178 168 181 c 1,2,-1
 138 112 l 2,3,4
 126 83 126 83 114 51 c 0,5,6
 92 -11 92 -11 51 -11 c 0,7,8
 32 -11 32 -11 20 1 c 128,-1,9
 8 13 8 13 8 26 c 0,10,11
 8 48 8 48 28 75 c 1,12,13
 61 123 61 123 86 185 c 1,14,15
 1 193 1 193 1 235 c 128,-1,16
 1 277 1 277 50 277 c 0,17,18
 80 277 80 277 120 267 c 1,19,-1
 610 1415 l 1,20,-1
 611 1414 l 1,21,-1
 611 1415 l 1,22,23
 1005 1415 1005 1415 1400 1415 c 1,24,25
 1400 1415 1400 1415 1481 1418 c 1,26,27
 1556 1418 1556 1418 1556 1374 c 0,28,29
 1556 1357 1556 1357 1543.5 1342.5 c 128,-1,30
 1531 1328 1531 1328 1514 1328 c 0,31,32
 1488 1328 1488 1328 1460 1334 c 0,33,34
 1417 1343 1417 1343 1342 1343 c 2,35,-1
 1121 1343 l 1,36,-1
 1121 1038 l 1,37,-1
 1303 1038 l 1,38,-1
 1426 1043 l 2,39,40
 1448 1043 1448 1043 1463.5 1032.5 c 128,-1,41
 1479 1022 1479 1022 1479 1003 c 0,42,43
 1479 961 1479 961 1423 961 c 1,44,-1
 1380 962 l 1,45,46
 1347 965 1347 965 1325 965 c 2,47,-1
 1121 965 l 1,48,-1
 1121 73 l 1,49,-1
 1342 73 l 2,50,51
 1416 73 1416 73 1447 79 c 0,52,53
 1484 86 1484 86 1505 86 c 0,54,55
 1556 86 1556 86 1556 46 c 0,56,57
 1556 28 1556 28 1534 14 c 128,-1,58
 1512 0 1512 0 1458 0 c 2,59,-1
 611 0 l 1,60,-1
 611 178 l 1,61,-1
 419 178 l 2,0,1
201 259 m 1,62,63
 297 251 297 251 373 251 c 2,64,-1
 611 251 l 1,65,-1
 611 1217 l 1,66,-1
 610 1217 l 1,67,-1
 201 259 l 1,62,63
EndSplineSet
EndChar

StartChar: Ccedilla
Encoding: 199 199 156
Width: 1436
GlyphClass: 2
Flags: W
LayerCount: 2
Fore
SplineSet
907 -69 m 1,0,1
 1123 -73 1123 -73 1123 -194 c 0,2,3
 1123 -289 1123 -289 992 -326 c 0,4,5
 950 -338 950 -338 905 -338 c 0,6,7
 754 -338 754 -338 685 -283 c 0,8,9
 656 -260 656 -260 656 -240 c 0,10,11
 656 -197 656 -197 696 -197 c 0,12,13
 716 -197 716 -197 738 -215.5 c 128,-1,14
 760 -234 760 -234 777 -241.5 c 128,-1,15
 794 -249 794 -249 814 -254 c 0,16,17
 854 -265 854 -265 914.5 -265 c 128,-1,18
 975 -265 975 -265 1011 -243.5 c 128,-1,19
 1047 -222 1047 -222 1047 -199.5 c 128,-1,20
 1047 -177 1047 -177 1009.5 -160 c 128,-1,21
 972 -143 972 -143 914.5 -142 c 128,-1,22
 857 -141 857 -141 843 -130 c 128,-1,23
 829 -119 829 -119 829 -87 c 2,24,-1
 829 -18 l 1,25,26
 494 -10 494 -10 290 196 c 0,27,28
 88 400 88 400 88 720 c 0,29,30
 88 877 88 877 147 1008.5 c 128,-1,31
 206 1140 206 1140 310 1234 c 0,32,33
 530 1433 530 1433 863 1433 c 0,34,35
 1050 1433 1050 1433 1192 1369 c 0,36,37
 1343 1302 1343 1302 1343 1255 c 0,38,39
 1343 1236 1343 1236 1330.5 1222 c 128,-1,40
 1318 1208 1318 1208 1302 1208 c 0,41,42
 1270 1208 1270 1208 1244 1236.5 c 128,-1,43
 1218 1265 1218 1265 1173.5 1288 c 128,-1,44
 1129 1311 1129 1311 1076 1328 c 0,45,46
 968 1361 968 1361 879.5 1361 c 128,-1,47
 791 1361 791 1361 733 1349 c 1,48,-1
 733 67 l 1,49,50
 803 55 803 55 857 55 c 128,-1,51
 911 55 911 55 967 62 c 128,-1,52
 1023 69 1023 69 1077 85 c 0,53,54
 1198 121 1198 121 1259 191 c 0,55,56
 1281 217 1281 217 1294 227 c 128,-1,57
 1307 237 1307 237 1324 237 c 0,58,59
 1365 237 1365 237 1365 191 c 0,60,61
 1365 153 1365 153 1307 115 c 0,62,63
 1199 44 1199 44 1131 24 c 0,64,65
 1011 -11 1011 -11 907 -17 c 1,66,-1
 907 -69 l 1,0,1
EndSplineSet
EndChar

StartChar: Egrave
Encoding: 200 200 157
Width: 1196
GlyphClass: 2
Flags: W
LayerCount: 2
Fore
SplineSet
1054 86 m 0,0,1
 1105 86 1105 86 1105 46 c 0,2,3
 1105 28 1105 28 1083 14 c 128,-1,4
 1061 0 1061 0 1007 0 c 2,5,-1
 160 0 l 1,6,-1
 160 1415 l 1,7,8
 554 1415 554 1415 948 1415 c 1,9,-1
 1030 1418 l 1,10,11
 1105 1418 1105 1418 1105 1374 c 0,12,13
 1105 1357 1105 1357 1092.5 1342.5 c 128,-1,14
 1080 1328 1080 1328 1064 1328 c 0,15,16
 1038 1328 1038 1328 1009 1334 c 0,17,18
 966 1343 966 1343 891 1343 c 2,19,-1
 670 1343 l 1,20,-1
 670 1038 l 1,21,-1
 852 1038 l 1,22,23
 852 1038 852 1038 975 1043 c 0,24,25
 997 1043 997 1043 1012.5 1032.5 c 128,-1,26
 1028 1022 1028 1022 1028 1003 c 0,27,28
 1028 961 1028 961 972 961 c 1,29,-1
 929 962 l 1,30,31
 896 965 896 965 874 965 c 2,32,-1
 670 965 l 1,33,-1
 670 73 l 1,34,-1
 891 73 l 2,35,36
 965 73 965 73 996 79 c 0,37,38
 1033 86 1033 86 1054 86 c 0,0,1
285 1700 m 1,39,-1
 566 1700 l 1,40,-1
 683 1416 l 1,41,-1
 529 1416 l 1,42,-1
 285 1700 l 1,39,-1
EndSplineSet
EndChar

StartChar: Eacute
Encoding: 201 201 158
Width: 1196
GlyphClass: 2
Flags: W
LayerCount: 2
Fore
SplineSet
1054 86 m 0,0,1
 1105 86 1105 86 1105 46 c 0,2,3
 1105 28 1105 28 1083 14 c 128,-1,4
 1061 0 1061 0 1007 0 c 2,5,-1
 160 0 l 1,6,-1
 160 1415 l 1,7,8
 554 1415 554 1415 948 1415 c 1,9,-1
 1030 1418 l 1,10,11
 1105 1418 1105 1418 1105 1374 c 0,12,13
 1105 1357 1105 1357 1092.5 1342.5 c 128,-1,14
 1080 1328 1080 1328 1064 1328 c 0,15,16
 1038 1328 1038 1328 1009 1334 c 0,17,18
 966 1343 966 1343 891 1343 c 2,19,-1
 670 1343 l 1,20,-1
 670 1038 l 1,21,-1
 852 1038 l 1,22,23
 852 1038 852 1038 975 1043 c 0,24,25
 997 1043 997 1043 1012.5 1032.5 c 128,-1,26
 1028 1022 1028 1022 1028 1003 c 0,27,28
 1028 961 1028 961 972 961 c 1,29,-1
 929 962 l 1,30,31
 896 965 896 965 874 965 c 2,32,-1
 670 965 l 1,33,-1
 670 73 l 1,34,-1
 891 73 l 2,35,36
 965 73 965 73 996 79 c 0,37,38
 1033 86 1033 86 1054 86 c 0,0,1
775 1812 m 1,39,-1
 1055 1812 l 1,40,-1
 812 1528 l 1,41,-1
 657 1528 l 1,42,-1
 775 1812 l 1,39,-1
EndSplineSet
EndChar

StartChar: Ecircumflex
Encoding: 202 202 159
Width: 1196
GlyphClass: 2
Flags: W
LayerCount: 2
Fore
SplineSet
1054 86 m 0,0,1
 1105 86 1105 86 1105 46 c 0,2,3
 1105 28 1105 28 1083 14 c 128,-1,4
 1061 0 1061 0 1007 0 c 2,5,-1
 160 0 l 1,6,-1
 160 1415 l 1,7,8
 554 1415 554 1415 948 1415 c 1,9,-1
 1030 1418 l 1,10,11
 1105 1418 1105 1418 1105 1374 c 0,12,13
 1105 1357 1105 1357 1092.5 1342.5 c 128,-1,14
 1080 1328 1080 1328 1064 1328 c 0,15,16
 1038 1328 1038 1328 1009 1334 c 0,17,18
 966 1343 966 1343 891 1343 c 2,19,-1
 670 1343 l 1,20,-1
 670 1038 l 1,21,-1
 852 1038 l 1,22,23
 852 1038 852 1038 975 1043 c 0,24,25
 997 1043 997 1043 1012.5 1032.5 c 128,-1,26
 1028 1022 1028 1022 1028 1003 c 0,27,28
 1028 961 1028 961 972 961 c 1,29,-1
 929 962 l 1,30,31
 896 965 896 965 874 965 c 2,32,-1
 670 965 l 1,33,-1
 670 73 l 1,34,-1
 891 73 l 2,35,36
 965 73 965 73 996 79 c 0,37,38
 1033 86 1033 86 1054 86 c 0,0,1
427 1574 m 2,39,-1
 397 1544 l 2,40,41
 375 1522 375 1522 358 1522 c 128,-1,42
 341 1522 341 1522 330.5 1532.5 c 128,-1,43
 320 1543 320 1543 320 1557 c 0,44,45
 320 1583 320 1583 361 1618 c 1,46,47
 374 1631 374 1631 394 1648.5 c 128,-1,48
 414 1666 414 1666 452 1704 c 2,49,-1
 562 1814 l 1,50,-1
 817 1814 l 1,51,-1
 1080 1530 l 1,52,-1
 772 1530 l 1,53,-1
 592 1744 l 1,54,55
 467 1618 467 1618 451 1600 c 128,-1,56
 435 1582 435 1582 427 1574 c 2,39,-1
EndSplineSet
EndChar

StartChar: Edieresis
Encoding: 203 203 160
Width: 1196
GlyphClass: 2
Flags: W
LayerCount: 2
Fore
SplineSet
1054 86 m 0,0,1
 1105 86 1105 86 1105 46 c 0,2,3
 1105 28 1105 28 1083 14 c 128,-1,4
 1061 0 1061 0 1007 0 c 2,5,-1
 160 0 l 1,6,-1
 160 1415 l 1,7,8
 554 1415 554 1415 948 1415 c 1,9,-1
 1030 1418 l 1,10,11
 1105 1418 1105 1418 1105 1374 c 0,12,13
 1105 1357 1105 1357 1092.5 1342.5 c 128,-1,14
 1080 1328 1080 1328 1064 1328 c 0,15,16
 1038 1328 1038 1328 1009 1334 c 0,17,18
 966 1343 966 1343 891 1343 c 2,19,-1
 670 1343 l 1,20,-1
 670 1038 l 1,21,-1
 852 1038 l 1,22,23
 852 1038 852 1038 975 1043 c 0,24,25
 997 1043 997 1043 1012.5 1032.5 c 128,-1,26
 1028 1022 1028 1022 1028 1003 c 0,27,28
 1028 961 1028 961 972 961 c 1,29,-1
 929 962 l 1,30,31
 896 965 896 965 874 965 c 2,32,-1
 670 965 l 1,33,-1
 670 73 l 1,34,-1
 891 73 l 2,35,36
 965 73 965 73 996 79 c 0,37,38
 1033 86 1033 86 1054 86 c 0,0,1
1037.5 1564.5 m 128,-1,40
 990 1530 990 1530 929 1530 c 128,-1,41
 868 1530 868 1530 836 1540 c 128,-1,42
 804 1550 804 1550 781 1567 c 0,43,44
 733 1602 733 1602 733 1657 c 0,45,46
 733 1744 733 1744 831 1773 c 0,47,48
 865 1783 865 1783 909 1783 c 128,-1,49
 953 1783 953 1783 985.5 1772.5 c 128,-1,50
 1018 1762 1018 1762 1040 1744 c 0,51,52
 1085 1707 1085 1707 1085 1653 c 128,-1,39
 1085 1599 1085 1599 1037.5 1564.5 c 128,-1,40
535 1564.5 m 128,-1,54
 488 1530 488 1530 427 1530 c 128,-1,55
 366 1530 366 1530 334 1540 c 128,-1,56
 302 1550 302 1550 279 1567 c 0,57,58
 230 1602 230 1602 230 1657 c 0,59,60
 230 1744 230 1744 329 1773 c 0,61,62
 362 1783 362 1783 406.5 1783 c 128,-1,63
 451 1783 451 1783 483 1772.5 c 128,-1,64
 515 1762 515 1762 537 1744 c 0,65,66
 582 1707 582 1707 582 1653 c 128,-1,53
 582 1599 582 1599 535 1564.5 c 128,-1,54
EndSplineSet
EndChar

StartChar: Igrave
Encoding: 204 204 161
Width: 829
GlyphClass: 2
Flags: W
LayerCount: 2
Fore
SplineSet
160 1415 m 1,0,-1
 670 1415 l 1,1,-1
 670 0 l 1,2,-1
 160 0 l 1,3,-1
 160 1415 l 1,0,-1
46 1700 m 1,4,-1
 327 1700 l 1,5,-1
 444 1416 l 1,6,-1
 290 1416 l 1,7,-1
 46 1700 l 1,4,-1
EndSplineSet
EndChar

StartChar: Iacute
Encoding: 205 205 162
Width: 829
GlyphClass: 2
Flags: W
LayerCount: 2
Fore
SplineSet
160 1415 m 1,0,-1
 670 1415 l 1,1,-1
 670 0 l 1,2,-1
 160 0 l 1,3,-1
 160 1415 l 1,0,-1
536 1812 m 1,4,-1
 816 1812 l 1,5,-1
 573 1528 l 1,6,-1
 418 1528 l 1,7,-1
 536 1812 l 1,4,-1
EndSplineSet
EndChar

StartChar: Icircumflex
Encoding: 206 206 163
Width: 829
GlyphClass: 2
Flags: W
LayerCount: 2
Fore
SplineSet
160 1415 m 1,0,-1
 670 1415 l 1,1,-1
 670 0 l 1,2,-1
 160 0 l 1,3,-1
 160 1415 l 1,0,-1
189 1574 m 2,4,-1
 159 1544 l 2,5,6
 137 1522 137 1522 120 1522 c 128,-1,7
 103 1522 103 1522 92.5 1532.5 c 128,-1,8
 82 1543 82 1543 82 1557 c 0,9,10
 82 1583 82 1583 123 1618 c 1,11,12
 136 1631 136 1631 156 1648.5 c 128,-1,13
 176 1666 176 1666 214 1704 c 2,14,-1
 324 1814 l 1,15,-1
 579 1814 l 1,16,-1
 842 1530 l 1,17,-1
 534 1530 l 1,18,-1
 354 1744 l 1,19,20
 229 1618 229 1618 213 1600 c 128,-1,21
 197 1582 197 1582 189 1574 c 2,4,-1
EndSplineSet
EndChar

StartChar: Idieresis
Encoding: 207 207 164
Width: 829
GlyphClass: 2
Flags: W
LayerCount: 2
Fore
SplineSet
160 1415 m 1,0,-1
 670 1415 l 1,1,-1
 670 0 l 1,2,-1
 160 0 l 1,3,-1
 160 1415 l 1,0,-1
799.5 1564.5 m 128,-1,5
 752 1530 752 1530 691 1530 c 128,-1,6
 630 1530 630 1530 598 1540 c 128,-1,7
 566 1550 566 1550 543 1567 c 0,8,9
 495 1602 495 1602 495 1657 c 0,10,11
 495 1744 495 1744 593 1773 c 0,12,13
 627 1783 627 1783 671 1783 c 128,-1,14
 715 1783 715 1783 747.5 1772.5 c 128,-1,15
 780 1762 780 1762 802 1744 c 0,16,17
 847 1707 847 1707 847 1653 c 128,-1,4
 847 1599 847 1599 799.5 1564.5 c 128,-1,5
297 1564.5 m 128,-1,19
 250 1530 250 1530 189 1530 c 128,-1,20
 128 1530 128 1530 96 1540 c 128,-1,21
 64 1550 64 1550 41 1567 c 0,22,23
 -8 1602 -8 1602 -8 1657 c 0,24,25
 -8 1744 -8 1744 91 1773 c 0,26,27
 124 1783 124 1783 168.5 1783 c 128,-1,28
 213 1783 213 1783 245 1772.5 c 128,-1,29
 277 1762 277 1762 299 1744 c 0,30,31
 344 1707 344 1707 344 1653 c 128,-1,18
 344 1599 344 1599 297 1564.5 c 128,-1,19
EndSplineSet
EndChar

StartChar: Eth
Encoding: 208 208 165
Width: 1578
GlyphClass: 2
Flags: W
LayerCount: 2
Fore
SplineSet
44 774 m 1,0,-1
 177 766 l 1,1,-1
 177 1415 l 1,2,-1
 593 1415 l 2,3,4
 884 1415 884 1415 1020 1374 c 1,5,6
 1175 1326 1175 1326 1259.5 1251 c 128,-1,7
 1344 1176 1344 1176 1392 1096 c 0,8,9
 1490 933 1490 933 1490 726 c 0,10,11
 1490 400 1490 400 1256 198 c 1,12,13
 1090 53 1090 53 865 19 c 0,14,15
 740 0 740 0 515 0 c 2,16,-1
 177 0 l 1,17,-1
 177 692 l 1,18,19
 147 690 147 690 117 690 c 1,20,-1
 55 686 l 2,21,22
 31 684 31 684 14.5 698.5 c 128,-1,23
 -2 713 -2 713 -2 732 c 128,-1,24
 -2 751 -2 751 12.5 762.5 c 128,-1,25
 27 774 27 774 44 774 c 1,0,-1
687 83 m 1,26,27
 703 82 703 82 716 82 c 2,28,-1
 739 82 l 2,29,30
 1010 82 1010 82 1202 251 c 0,31,32
 1405 429 1405 429 1405 724 c 0,33,34
 1405 910 1405 910 1316 1059 c 0,35,36
 1187 1276 1187 1276 908 1322 c 0,37,38
 817 1337 817 1337 687 1339 c 1,39,-1
 687 766 l 1,40,-1
 787 766 l 2,41,42
 857 766 857 766 879 769 c 0,43,44
 917 774 917 774 938.5 774 c 128,-1,45
 960 774 960 774 974.5 762.5 c 128,-1,46
 989 751 989 751 989 731 c 256,47,48
 989 711 989 711 974.5 698 c 128,-1,49
 960 685 960 685 932 687 c 2,50,-1
 870 690 l 2,51,52
 826 692 826 692 781 692 c 2,53,-1
 687 692 l 1,54,-1
 687 83 l 1,26,27
EndSplineSet
EndChar

StartChar: Ntilde
Encoding: 209 209 166
Width: 1535
GlyphClass: 2
Flags: W
LayerCount: 2
Fore
SplineSet
267 143 m 1,0,-1
 270 43 l 2,1,2
 270 17 270 17 256 3 c 128,-1,3
 242 -11 242 -11 222.5 -11 c 128,-1,4
 203 -11 203 -11 190 2 c 128,-1,5
 177 15 177 15 177 30.5 c 128,-1,6
 177 46 177 46 179.5 59.5 c 128,-1,7
 182 73 182 73 184 90 c 0,8,9
 189 119 189 119 189 235 c 2,10,-1
 189 1479 l 1,11,-1
 1276 617 l 1,12,-1
 1276 1213 l 2,13,14
 1276 1281 1276 1281 1272 1310 c 0,15,16
 1267 1357 1267 1357 1267 1376 c 0,17,18
 1267 1426 1267 1426 1310 1426 c 0,19,20
 1327 1426 1327 1426 1342.5 1414 c 128,-1,21
 1358 1402 1358 1402 1358 1379 c 2,22,-1
 1358 1344 l 1,23,-1
 1354 1199 l 1,24,-1
 1354 -55 l 1,25,-1
 267 798 l 1,26,-1
 267 143 l 1,0,-1
502.5 1540 m 128,-1,28
 490 1540 490 1540 478.5 1553.5 c 128,-1,29
 467 1567 467 1567 467 1599.5 c 128,-1,30
 467 1632 467 1632 487 1675.5 c 128,-1,31
 507 1719 507 1719 542 1754 c 0,32,33
 620 1832 620 1832 721 1832 c 0,34,35
 805 1832 805 1832 911 1749 c 1,36,-1
 963 1709 l 2,37,38
 1020 1666 1020 1666 1038 1666 c 128,-1,39
 1056 1666 1056 1666 1072.5 1691 c 128,-1,40
 1089 1716 1089 1716 1095.5 1756 c 128,-1,41
 1102 1796 1102 1796 1109 1809.5 c 128,-1,42
 1116 1823 1116 1823 1133 1823 c 128,-1,43
 1150 1823 1150 1823 1161.5 1808 c 128,-1,44
 1173 1793 1173 1793 1173 1761.5 c 128,-1,45
 1173 1730 1173 1730 1153 1686.5 c 128,-1,46
 1133 1643 1133 1643 1098 1608 c 0,47,48
 1020 1530 1020 1530 919 1530 c 0,49,50
 840 1530 840 1530 732 1608 c 1,51,-1
 660 1662 l 2,52,53
 628 1687 628 1687 613 1687 c 128,-1,54
 598 1687 598 1687 587.5 1680.5 c 128,-1,55
 577 1674 577 1674 567 1662 c 0,56,57
 545 1637 545 1637 540 1610 c 2,58,-1
 534 1572 l 2,59,60
 530 1548 530 1548 522.5 1544 c 128,-1,27
 515 1540 515 1540 502.5 1540 c 128,-1,28
EndSplineSet
EndChar

StartChar: Ograve
Encoding: 210 210 167
Width: 1673
GlyphClass: 2
Flags: W
LayerCount: 2
Fore
SplineSet
167.5 414.5 m 128,-1,1
 109 552 109 552 109 714.5 c 128,-1,2
 109 877 109 877 164.5 1006.5 c 128,-1,3
 220 1136 220 1136 318 1231 c 0,4,5
 528 1433 528 1433 845 1433 c 0,6,7
 1160 1433 1160 1433 1361 1234 c 0,8,9
 1565 1032 1565 1032 1565 710 c 0,10,11
 1565 389 1565 389 1356 182 c 1,12,13
 1225 54 1225 54 1034 5 c 0,14,15
 939 -19 939 -19 813.5 -19 c 128,-1,16
 688 -19 688 -19 556 32.5 c 128,-1,17
 424 84 424 84 325 180.5 c 128,-1,0
 226 277 226 277 167.5 414.5 c 128,-1,1
844 1360 m 0,18,19
 789 1360 789 1360 741 1352 c 1,20,-1
 741 62 l 1,21,22
 787 54 787 54 844 54 c 0,23,24
 1111 54 1111 54 1294 232 c 0,25,26
 1485 417 1485 417 1485 710 c 0,27,28
 1485 989 1485 989 1306 1174 c 0,29,30
 1125 1360 1125 1360 844 1360 c 0,18,19
464 1700 m 1,31,-1
 745 1700 l 1,32,-1
 862 1416 l 1,33,-1
 708 1416 l 1,34,-1
 464 1700 l 1,31,-1
EndSplineSet
EndChar

StartChar: Oacute
Encoding: 211 211 168
Width: 1673
GlyphClass: 2
Flags: W
LayerCount: 2
Fore
SplineSet
167.5 414.5 m 128,-1,1
 109 552 109 552 109 714.5 c 128,-1,2
 109 877 109 877 164.5 1006.5 c 128,-1,3
 220 1136 220 1136 318 1231 c 0,4,5
 528 1433 528 1433 845 1433 c 0,6,7
 1160 1433 1160 1433 1361 1234 c 0,8,9
 1565 1032 1565 1032 1565 710 c 0,10,11
 1565 389 1565 389 1356 182 c 1,12,13
 1225 54 1225 54 1034 5 c 0,14,15
 939 -19 939 -19 813.5 -19 c 128,-1,16
 688 -19 688 -19 556 32.5 c 128,-1,17
 424 84 424 84 325 180.5 c 128,-1,0
 226 277 226 277 167.5 414.5 c 128,-1,1
844 1360 m 0,18,19
 789 1360 789 1360 741 1352 c 1,20,-1
 741 62 l 1,21,22
 787 54 787 54 844 54 c 0,23,24
 1111 54 1111 54 1294 232 c 0,25,26
 1485 417 1485 417 1485 710 c 0,27,28
 1485 989 1485 989 1306 1174 c 0,29,30
 1125 1360 1125 1360 844 1360 c 0,18,19
954 1812 m 1,31,-1
 1234 1812 l 1,32,-1
 991 1528 l 1,33,-1
 836 1528 l 1,34,-1
 954 1812 l 1,31,-1
EndSplineSet
EndChar

StartChar: Ocircumflex
Encoding: 212 212 169
Width: 1673
GlyphClass: 2
Flags: W
LayerCount: 2
Fore
SplineSet
167.5 414.5 m 128,-1,1
 109 552 109 552 109 714.5 c 128,-1,2
 109 877 109 877 164.5 1006.5 c 128,-1,3
 220 1136 220 1136 318 1231 c 0,4,5
 528 1433 528 1433 845 1433 c 0,6,7
 1160 1433 1160 1433 1361 1234 c 0,8,9
 1565 1032 1565 1032 1565 710 c 0,10,11
 1565 389 1565 389 1356 182 c 1,12,13
 1225 54 1225 54 1034 5 c 0,14,15
 939 -19 939 -19 813.5 -19 c 128,-1,16
 688 -19 688 -19 556 32.5 c 128,-1,17
 424 84 424 84 325 180.5 c 128,-1,0
 226 277 226 277 167.5 414.5 c 128,-1,1
844 1360 m 0,18,19
 789 1360 789 1360 741 1352 c 1,20,-1
 741 62 l 1,21,22
 787 54 787 54 844 54 c 0,23,24
 1111 54 1111 54 1294 232 c 0,25,26
 1485 417 1485 417 1485 710 c 0,27,28
 1485 989 1485 989 1306 1174 c 0,29,30
 1125 1360 1125 1360 844 1360 c 0,18,19
606 1574 m 2,31,-1
 576 1544 l 2,32,33
 554 1522 554 1522 537 1522 c 128,-1,34
 520 1522 520 1522 509.5 1532.5 c 128,-1,35
 499 1543 499 1543 499 1557 c 0,36,37
 499 1583 499 1583 540 1618 c 1,38,39
 553 1631 553 1631 573 1648.5 c 128,-1,40
 593 1666 593 1666 631 1704 c 2,41,-1
 741 1814 l 1,42,-1
 996 1814 l 1,43,-1
 1259 1530 l 1,44,-1
 951 1530 l 1,45,-1
 771 1744 l 1,46,47
 646 1618 646 1618 630 1600 c 128,-1,48
 614 1582 614 1582 606 1574 c 2,31,-1
EndSplineSet
EndChar

StartChar: Otilde
Encoding: 213 213 170
Width: 1673
GlyphClass: 2
Flags: W
LayerCount: 2
Fore
SplineSet
167.5 414.5 m 128,-1,1
 109 552 109 552 109 714.5 c 128,-1,2
 109 877 109 877 164.5 1006.5 c 128,-1,3
 220 1136 220 1136 318 1231 c 0,4,5
 528 1433 528 1433 845 1433 c 0,6,7
 1160 1433 1160 1433 1361 1234 c 0,8,9
 1565 1032 1565 1032 1565 710 c 0,10,11
 1565 389 1565 389 1356 182 c 1,12,13
 1225 54 1225 54 1034 5 c 0,14,15
 939 -19 939 -19 813.5 -19 c 128,-1,16
 688 -19 688 -19 556 32.5 c 128,-1,17
 424 84 424 84 325 180.5 c 128,-1,0
 226 277 226 277 167.5 414.5 c 128,-1,1
844 1360 m 0,18,19
 789 1360 789 1360 741 1352 c 1,20,-1
 741 62 l 1,21,22
 787 54 787 54 844 54 c 0,23,24
 1111 54 1111 54 1294 232 c 0,25,26
 1485 417 1485 417 1485 710 c 0,27,28
 1485 989 1485 989 1306 1174 c 0,29,30
 1125 1360 1125 1360 844 1360 c 0,18,19
531.5 1540 m 128,-1,32
 519 1540 519 1540 507.5 1553.5 c 128,-1,33
 496 1567 496 1567 496 1599.5 c 128,-1,34
 496 1632 496 1632 516 1675.5 c 128,-1,35
 536 1719 536 1719 571 1754 c 0,36,37
 649 1832 649 1832 750 1832 c 0,38,39
 834 1832 834 1832 940 1749 c 1,40,-1
 992 1709 l 2,41,42
 1049 1666 1049 1666 1067 1666 c 128,-1,43
 1085 1666 1085 1666 1101.5 1691 c 128,-1,44
 1118 1716 1118 1716 1124.5 1756 c 128,-1,45
 1131 1796 1131 1796 1138 1809.5 c 128,-1,46
 1145 1823 1145 1823 1162 1823 c 128,-1,47
 1179 1823 1179 1823 1190.5 1808 c 128,-1,48
 1202 1793 1202 1793 1202 1761.5 c 128,-1,49
 1202 1730 1202 1730 1182 1686.5 c 128,-1,50
 1162 1643 1162 1643 1127 1608 c 0,51,52
 1049 1530 1049 1530 948 1530 c 0,53,54
 869 1530 869 1530 761 1608 c 1,55,-1
 689 1662 l 2,56,57
 657 1687 657 1687 642 1687 c 128,-1,58
 627 1687 627 1687 616.5 1680.5 c 128,-1,59
 606 1674 606 1674 596 1662 c 0,60,61
 574 1637 574 1637 569 1610 c 2,62,-1
 563 1572 l 2,63,64
 559 1548 559 1548 551.5 1544 c 128,-1,31
 544 1540 544 1540 531.5 1540 c 128,-1,32
EndSplineSet
EndChar

StartChar: Odieresis
Encoding: 214 214 171
Width: 1673
GlyphClass: 2
Flags: W
LayerCount: 2
Fore
SplineSet
167.5 414.5 m 128,-1,1
 109 552 109 552 109 714.5 c 128,-1,2
 109 877 109 877 164.5 1006.5 c 128,-1,3
 220 1136 220 1136 318 1231 c 0,4,5
 528 1433 528 1433 845 1433 c 0,6,7
 1160 1433 1160 1433 1361 1234 c 0,8,9
 1565 1032 1565 1032 1565 710 c 0,10,11
 1565 389 1565 389 1356 182 c 1,12,13
 1225 54 1225 54 1034 5 c 0,14,15
 939 -19 939 -19 813.5 -19 c 128,-1,16
 688 -19 688 -19 556 32.5 c 128,-1,17
 424 84 424 84 325 180.5 c 128,-1,0
 226 277 226 277 167.5 414.5 c 128,-1,1
844 1360 m 0,18,19
 789 1360 789 1360 741 1352 c 1,20,-1
 741 62 l 1,21,22
 787 54 787 54 844 54 c 0,23,24
 1111 54 1111 54 1294 232 c 0,25,26
 1485 417 1485 417 1485 710 c 0,27,28
 1485 989 1485 989 1306 1174 c 0,29,30
 1125 1360 1125 1360 844 1360 c 0,18,19
1216.5 1564.5 m 128,-1,32
 1169 1530 1169 1530 1108 1530 c 128,-1,33
 1047 1530 1047 1530 1015 1540 c 128,-1,34
 983 1550 983 1550 960 1567 c 0,35,36
 912 1602 912 1602 912 1657 c 0,37,38
 912 1744 912 1744 1010 1773 c 0,39,40
 1044 1783 1044 1783 1088 1783 c 128,-1,41
 1132 1783 1132 1783 1164.5 1772.5 c 128,-1,42
 1197 1762 1197 1762 1219 1744 c 0,43,44
 1264 1707 1264 1707 1264 1653 c 128,-1,31
 1264 1599 1264 1599 1216.5 1564.5 c 128,-1,32
714 1564.5 m 128,-1,46
 667 1530 667 1530 606 1530 c 128,-1,47
 545 1530 545 1530 513 1540 c 128,-1,48
 481 1550 481 1550 458 1567 c 0,49,50
 409 1602 409 1602 409 1657 c 0,51,52
 409 1744 409 1744 508 1773 c 0,53,54
 541 1783 541 1783 585.5 1783 c 128,-1,55
 630 1783 630 1783 662 1772.5 c 128,-1,56
 694 1762 694 1762 716 1744 c 0,57,58
 761 1707 761 1707 761 1653 c 128,-1,45
 761 1599 761 1599 714 1564.5 c 128,-1,46
EndSplineSet
EndChar

StartChar: multiply
Encoding: 215 215 172
Width: 884
GlyphClass: 2
Flags: W
LayerCount: 2
Fore
SplineSet
116 853 m 0,0,1
 116 890 116 890 157 890 c 0,2,3
 186 890 186 890 224 839 c 0,4,5
 227 835 227 835 236 825 c 2,6,-1
 278 778 l 2,7,8
 290 766 290 766 301 756 c 2,9,-1
 439 616 l 1,10,11
 523 700 523 700 569.5 746.5 c 128,-1,12
 616 793 616 793 623 800.5 c 128,-1,13
 630 808 630 808 637 817 c 128,-1,14
 644 826 644 826 662 848 c 0,15,16
 696 890 696 890 721 890 c 0,17,18
 765 890 765 890 765 852 c 0,19,20
 765 822 765 822 722 789 c 1,21,-1
 684 756 l 2,22,23
 663 738 663 738 634 707 c 1,24,-1
 490 564 l 1,25,-1
 641 413 l 1,26,27
 663 389 663 389 675 379 c 2,28,-1
 715 347 l 1,29,30
 762 308 762 308 766 293.5 c 128,-1,31
 770 279 770 279 770 266.5 c 128,-1,32
 770 254 770 254 759 244 c 128,-1,33
 748 234 748 234 732 234 c 0,34,35
 706 234 706 234 683 262 c 256,36,37
 660 290 660 290 638 312 c 2,38,-1
 438 513 l 1,39,-1
 240 314 l 2,40,41
 215 288 215 288 192.5 261 c 128,-1,42
 170 234 170 234 141 234 c 0,43,44
 106 234 106 234 106 274 c 0,45,46
 106 306 106 306 159 344 c 1,47,48
 169 353 169 353 177.5 359.5 c 128,-1,49
 186 366 186 366 194 373 c 128,-1,50
 202 380 202 380 211 389 c 2,51,-1
 387 564 l 1,52,-1
 194 757 l 2,53,54
 169 781 169 781 154 792 c 1,55,56
 116 825 116 825 116 853 c 0,0,1
EndSplineSet
EndChar

StartChar: Oslash
Encoding: 216 216 173
Width: 1673
GlyphClass: 2
Flags: W
LayerCount: 2
Fore
SplineSet
1250 1297 m 1,0,1
 1285 1352 1285 1352 1310 1398 c 2,2,-1
 1354 1478 l 2,3,4
 1394 1551 1394 1551 1408 1554 c 128,-1,5
 1422 1557 1422 1557 1437.5 1550.5 c 128,-1,6
 1453 1544 1453 1544 1457 1528 c 0,7,8
 1463 1502 1463 1502 1438.5 1468 c 128,-1,9
 1414 1434 1414 1434 1402 1413 c 128,-1,10
 1390 1392 1390 1392 1376 1366 c 2,11,-1
 1317 1252 l 1,12,-1
 1250 1297 l 1,0,1
407 -216 m 0,13,14
 362 -189 362 -189 418 -118 c 0,15,16
 426 -109 426 -109 440 -86 c 1,17,-1
 545 102 l 1,18,-1
 601 37 l 1,19,-1
 504 -141 l 1,20,21
 461 -215 461 -215 441 -220 c 128,-1,22
 421 -225 421 -225 407 -216 c 0,13,14
167.5 414.5 m 128,-1,24
 109 552 109 552 109 714.5 c 128,-1,25
 109 877 109 877 164.5 1006.5 c 128,-1,26
 220 1136 220 1136 318 1231 c 0,27,28
 528 1433 528 1433 845 1433 c 0,29,30
 1160 1433 1160 1433 1361 1234 c 0,31,32
 1565 1032 1565 1032 1565 710 c 0,33,34
 1565 389 1565 389 1356 182 c 1,35,36
 1225 54 1225 54 1034 5 c 0,37,38
 939 -19 939 -19 813.5 -19 c 128,-1,39
 688 -19 688 -19 556 32.5 c 128,-1,40
 424 84 424 84 325 180.5 c 128,-1,23
 226 277 226 277 167.5 414.5 c 128,-1,24
844 1360 m 0,41,42
 789 1360 789 1360 741 1352 c 1,43,-1
 741 62 l 1,44,45
 787 54 787 54 844 54 c 0,46,47
 1111 54 1111 54 1294 232 c 0,48,49
 1485 417 1485 417 1485 710 c 0,50,51
 1485 989 1485 989 1306 1174 c 0,52,53
 1125 1360 1125 1360 844 1360 c 0,41,42
EndSplineSet
EndChar

StartChar: Ugrave
Encoding: 217 217 174
Width: 1570
GlyphClass: 2
Flags: W
LayerCount: 2
Fore
SplineSet
1424 1373 m 1,0,-1
 1418 1249 l 1,1,-1
 1418 651 l 2,2,3
 1418 355 1418 355 1248 170 c 0,4,5
 1074 -19 1074 -19 786 -19 c 0,6,7
 478 -19 478 -19 306 174 c 1,8,9
 146 351 146 351 146 628 c 2,10,-1
 146 1415 l 1,11,-1
 657 1415 l 1,12,-1
 657 66 l 1,13,14
 734 55 734 55 826.5 55 c 128,-1,15
 919 55 919 55 1014.5 92 c 128,-1,16
 1110 129 1110 129 1182 208 c 0,17,18
 1338 378 1338 378 1340 705 c 1,19,-1
 1340 1247 l 2,20,21
 1340 1277 1340 1277 1335.5 1318 c 128,-1,22
 1331 1359 1331 1359 1331 1374 c 0,23,24
 1331 1426 1331 1426 1380 1426 c 0,25,26
 1424 1426 1424 1426 1424 1373 c 1,0,-1
473 1700 m 1,27,-1
 754 1700 l 1,28,-1
 871 1416 l 1,29,-1
 717 1416 l 1,30,-1
 473 1700 l 1,27,-1
EndSplineSet
EndChar

StartChar: Uacute
Encoding: 218 218 175
Width: 1570
GlyphClass: 2
Flags: W
LayerCount: 2
Fore
SplineSet
1424 1373 m 1,0,-1
 1418 1249 l 1,1,-1
 1418 651 l 2,2,3
 1418 355 1418 355 1248 170 c 0,4,5
 1074 -19 1074 -19 786 -19 c 0,6,7
 478 -19 478 -19 306 174 c 1,8,9
 146 351 146 351 146 628 c 2,10,-1
 146 1415 l 1,11,-1
 657 1415 l 1,12,-1
 657 66 l 1,13,14
 734 55 734 55 826.5 55 c 128,-1,15
 919 55 919 55 1014.5 92 c 128,-1,16
 1110 129 1110 129 1182 208 c 0,17,18
 1338 378 1338 378 1340 705 c 1,19,-1
 1340 1247 l 2,20,21
 1340 1277 1340 1277 1335.5 1318 c 128,-1,22
 1331 1359 1331 1359 1331 1374 c 0,23,24
 1331 1426 1331 1426 1380 1426 c 0,25,26
 1424 1426 1424 1426 1424 1373 c 1,0,-1
963 1812 m 1,27,-1
 1243 1812 l 1,28,-1
 1000 1528 l 1,29,-1
 845 1528 l 1,30,-1
 963 1812 l 1,27,-1
EndSplineSet
EndChar

StartChar: Ucircumflex
Encoding: 219 219 176
Width: 1570
GlyphClass: 2
Flags: W
LayerCount: 2
Fore
SplineSet
1424 1373 m 1,0,-1
 1418 1249 l 1,1,-1
 1418 651 l 2,2,3
 1418 355 1418 355 1248 170 c 0,4,5
 1074 -19 1074 -19 786 -19 c 0,6,7
 478 -19 478 -19 306 174 c 1,8,9
 146 351 146 351 146 628 c 2,10,-1
 146 1415 l 1,11,-1
 657 1415 l 1,12,-1
 657 66 l 1,13,14
 734 55 734 55 826.5 55 c 128,-1,15
 919 55 919 55 1014.5 92 c 128,-1,16
 1110 129 1110 129 1182 208 c 0,17,18
 1338 378 1338 378 1340 705 c 1,19,-1
 1340 1247 l 2,20,21
 1340 1277 1340 1277 1335.5 1318 c 128,-1,22
 1331 1359 1331 1359 1331 1374 c 0,23,24
 1331 1426 1331 1426 1380 1426 c 0,25,26
 1424 1426 1424 1426 1424 1373 c 1,0,-1
615 1574 m 2,27,-1
 585 1544 l 2,28,29
 563 1522 563 1522 546 1522 c 128,-1,30
 529 1522 529 1522 518.5 1532.5 c 128,-1,31
 508 1543 508 1543 508 1557 c 0,32,33
 508 1583 508 1583 549 1618 c 1,34,35
 562 1631 562 1631 582 1648.5 c 128,-1,36
 602 1666 602 1666 640 1704 c 2,37,-1
 750 1814 l 1,38,-1
 1005 1814 l 1,39,-1
 1268 1530 l 1,40,-1
 960 1530 l 1,41,-1
 780 1744 l 1,42,43
 655 1618 655 1618 639 1600 c 128,-1,44
 623 1582 623 1582 615 1574 c 2,27,-1
EndSplineSet
EndChar

StartChar: Udieresis
Encoding: 220 220 177
Width: 1570
GlyphClass: 2
Flags: W
LayerCount: 2
Fore
SplineSet
1424 1373 m 1,0,-1
 1418 1249 l 1,1,-1
 1418 651 l 2,2,3
 1418 355 1418 355 1248 170 c 0,4,5
 1074 -19 1074 -19 786 -19 c 0,6,7
 478 -19 478 -19 306 174 c 1,8,9
 146 351 146 351 146 628 c 2,10,-1
 146 1415 l 1,11,-1
 657 1415 l 1,12,-1
 657 66 l 1,13,14
 734 55 734 55 826.5 55 c 128,-1,15
 919 55 919 55 1014.5 92 c 128,-1,16
 1110 129 1110 129 1182 208 c 0,17,18
 1338 378 1338 378 1340 705 c 1,19,-1
 1340 1247 l 2,20,21
 1340 1277 1340 1277 1335.5 1318 c 128,-1,22
 1331 1359 1331 1359 1331 1374 c 0,23,24
 1331 1426 1331 1426 1380 1426 c 0,25,26
 1424 1426 1424 1426 1424 1373 c 1,0,-1
1225.5 1564.5 m 128,-1,28
 1178 1530 1178 1530 1117 1530 c 128,-1,29
 1056 1530 1056 1530 1024 1540 c 128,-1,30
 992 1550 992 1550 969 1567 c 0,31,32
 921 1602 921 1602 921 1657 c 0,33,34
 921 1744 921 1744 1019 1773 c 0,35,36
 1053 1783 1053 1783 1097 1783 c 128,-1,37
 1141 1783 1141 1783 1173.5 1772.5 c 128,-1,38
 1206 1762 1206 1762 1228 1744 c 0,39,40
 1273 1707 1273 1707 1273 1653 c 128,-1,27
 1273 1599 1273 1599 1225.5 1564.5 c 128,-1,28
723 1564.5 m 128,-1,42
 676 1530 676 1530 615 1530 c 128,-1,43
 554 1530 554 1530 522 1540 c 128,-1,44
 490 1550 490 1550 467 1567 c 0,45,46
 418 1602 418 1602 418 1657 c 0,47,48
 418 1744 418 1744 517 1773 c 0,49,50
 550 1783 550 1783 594.5 1783 c 128,-1,51
 639 1783 639 1783 671 1772.5 c 128,-1,52
 703 1762 703 1762 725 1744 c 0,53,54
 770 1707 770 1707 770 1653 c 128,-1,41
 770 1599 770 1599 723 1564.5 c 128,-1,42
EndSplineSet
EndChar

StartChar: Yacute
Encoding: 221 221 178
Width: 1320
GlyphClass: 2
Flags: W
LayerCount: 2
Fore
SplineSet
482 -11 m 128,-1,1
 439 -11 439 -11 439 33 c 0,2,3
 439 60 439 60 465 92 c 0,4,5
 517 154 517 154 564 235 c 1,6,-1
 615 326 l 1,7,-1
 21 1415 l 1,8,-1
 604 1415 l 1,9,-1
 890 812 l 1,10,-1
 1146 1267 l 1,11,12
 1174 1319 1174 1319 1194 1372.5 c 128,-1,13
 1214 1426 1214 1426 1247 1426 c 0,14,15
 1288 1426 1288 1426 1288 1385 c 0,16,17
 1288 1361 1288 1361 1270 1330 c 2,18,-1
 586 110 l 2,19,20
 575 90 575 90 568 77 c 2,21,-1
 551 41 l 1,22,0
 525 -11 525 -11 482 -11 c 128,-1,1
921 1812 m 1,23,-1
 1201 1812 l 1,24,-1
 958 1528 l 1,25,-1
 803 1528 l 1,26,-1
 921 1812 l 1,23,-1
EndSplineSet
EndChar

StartChar: Thorn
Encoding: 222 222 179
Width: 1524
GlyphClass: 2
Flags: W
LayerCount: 2
Fore
SplineSet
846 286 m 1,0,-1
 935 282 l 1,1,2
 1129 282 1129 282 1258 398 c 1,3,4
 1391 516 1391 516 1391 701 c 0,5,6
 1391 932 1391 932 1234 1033 c 0,7,8
 1081 1131 1081 1131 778 1131 c 2,9,-1
 670 1131 l 1,10,-1
 670 0 l 1,11,-1
 160 0 l 1,12,-1
 160 1415 l 1,13,-1
 670 1415 l 1,14,-1
 670 1206 l 1,15,16
 916 1203 916 1203 973 1194.5 c 128,-1,17
 1030 1186 1030 1186 1098 1172.5 c 128,-1,18
 1166 1159 1166 1159 1242.5 1116 c 128,-1,19
 1319 1073 1319 1073 1369 1014 c 0,20,21
 1468 897 1468 897 1468 725 c 0,22,23
 1468 519 1468 519 1339 380 c 0,24,25
 1189 220 1189 220 922 199 c 0,26,27
 897 197 897 197 876 197 c 0,28,29
 787 197 787 197 787 246 c 0,30,31
 787 264 787 264 803 275 c 128,-1,32
 819 286 819 286 846 286 c 1,0,-1
EndSplineSet
EndChar

StartChar: germandbls
Encoding: 223 223 180
Width: 1469
GlyphClass: 2
Flags: W
LayerCount: 2
Fore
SplineSet
812 1357 m 128,-1,1
 756 1372 756 1372 700 1372 c 128,-1,2
 644 1372 644 1372 588 1355 c 1,3,-1
 588 0 l 1,4,-1
 160 0 l 1,5,-1
 160 936 l 2,6,7
 160 1168 160 1168 310 1301 c 0,8,9
 458 1433 458 1433 710 1433 c 0,10,11
 858 1433 858 1433 960 1367 c 0,12,13
 1062 1300 1062 1300 1062 1204 c 0,14,15
 1062 1114 1062 1114 1010 1052 c 1,16,-1
 998 1036 l 2,17,18
 986 1021 986 1021 986 1006.5 c 128,-1,19
 986 992 986 992 994.5 973.5 c 128,-1,20
 1003 955 1003 955 1023 927.5 c 128,-1,21
 1043 900 1043 900 1076 862 c 2,22,-1
 1157 771 l 1,23,24
 1340 574 1340 574 1370 435 c 0,25,26
 1379 390 1379 390 1379 331.5 c 128,-1,27
 1379 273 1379 273 1352 206.5 c 128,-1,28
 1325 140 1325 140 1272 89 c 0,29,30
 1155 -24 1155 -24 957 -24 c 0,31,32
 854 -24 854 -24 797 25 c 0,33,34
 789 32 789 32 780 38.5 c 128,-1,35
 771 45 771 45 764 52 c 0,36,37
 748 70 748 70 748 88 c 0,38,39
 748 132 748 132 789 132 c 0,40,41
 803 132 803 132 814 122 c 2,42,-1
 839 97 l 1,43,44
 898 45 898 45 965 45 c 0,45,46
 1008 45 1008 45 1033 65 c 0,47,48
 1079 101 1079 101 1079 132.5 c 128,-1,49
 1079 164 1079 164 1070.5 190 c 128,-1,50
 1062 216 1062 216 1042 248 c 0,51,52
 1004 312 1004 312 922 406 c 128,-1,53
 840 500 840 500 798 553.5 c 128,-1,54
 756 607 756 607 734 646 c 0,55,56
 700 707 700 707 700 770 c 0,57,58
 700 907 700 907 839 1000 c 0,59,60
 963 1083 963 1083 977 1158 c 0,61,62
 981 1180 981 1180 981 1205.5 c 128,-1,63
 981 1231 981 1231 962 1262 c 128,-1,64
 943 1293 943 1293 905.5 1317.5 c 128,-1,0
 868 1342 868 1342 812 1357 c 128,-1,1
EndSplineSet
EndChar

StartChar: agrave
Encoding: 224 224 181
Width: 1410
GlyphClass: 2
Flags: W
LayerCount: 2
Fore
SplineSet
842 66 m 1,0,1
 714 -19 714 -19 558 -19 c 0,2,3
 351 -19 351 -19 226 85 c 0,4,5
 96 192 96 192 96 382 c 0,6,7
 96 550 96 550 225 658 c 1,8,9
 357 767 357 767 572 767 c 0,10,11
 716 767 716 767 842 712 c 1,12,-1
 842 987 l 1,13,14
 751 1013 751 1013 681.5 1013 c 128,-1,15
 612 1013 612 1013 564 1007 c 128,-1,16
 516 1001 516 1001 473 989 c 0,17,18
 380 963 380 963 332 919 c 0,19,20
 304 893 304 893 281 893 c 128,-1,21
 258 893 258 893 246 904.5 c 128,-1,22
 234 916 234 916 234 930 c 128,-1,23
 234 944 234 944 239 955.5 c 128,-1,24
 244 967 244 967 258 979 c 0,25,26
 288 1005 288 1005 358 1031 c 0,27,28
 503 1086 503 1086 649 1086 c 0,29,30
 1093 1086 1093 1086 1216 874 c 0,31,32
 1270 780 1270 780 1270 627 c 2,33,-1
 1270 0 l 1,34,-1
 842 0 l 1,35,-1
 842 66 l 1,0,1
842 634 m 1,36,37
 716 695 716 695 591 695 c 0,38,39
 571 695 571 695 553 692 c 1,40,-1
 553 56 l 1,41,42
 558 55 558 55 564 55 c 128,-1,43
 570 55 570 55 576 55 c 0,44,45
 713 55 713 55 842 152 c 1,46,-1
 842 634 l 1,36,37
506 1479 m 1,47,-1
 787 1479 l 1,48,-1
 904 1195 l 1,49,-1
 750 1195 l 1,50,-1
 506 1479 l 1,47,-1
EndSplineSet
EndChar

StartChar: aacute
Encoding: 225 225 182
Width: 1410
GlyphClass: 2
Flags: W
LayerCount: 2
Fore
SplineSet
842 66 m 1,0,1
 714 -19 714 -19 558 -19 c 0,2,3
 351 -19 351 -19 226 85 c 0,4,5
 96 192 96 192 96 382 c 0,6,7
 96 550 96 550 225 658 c 1,8,9
 357 767 357 767 572 767 c 0,10,11
 716 767 716 767 842 712 c 1,12,-1
 842 987 l 1,13,14
 751 1013 751 1013 681.5 1013 c 128,-1,15
 612 1013 612 1013 564 1007 c 128,-1,16
 516 1001 516 1001 473 989 c 0,17,18
 380 963 380 963 332 919 c 0,19,20
 304 893 304 893 281 893 c 128,-1,21
 258 893 258 893 246 904.5 c 128,-1,22
 234 916 234 916 234 930 c 128,-1,23
 234 944 234 944 239 955.5 c 128,-1,24
 244 967 244 967 258 979 c 0,25,26
 288 1005 288 1005 358 1031 c 0,27,28
 503 1086 503 1086 649 1086 c 0,29,30
 1093 1086 1093 1086 1216 874 c 0,31,32
 1270 780 1270 780 1270 627 c 2,33,-1
 1270 0 l 1,34,-1
 842 0 l 1,35,-1
 842 66 l 1,0,1
842 634 m 1,36,37
 716 695 716 695 591 695 c 0,38,39
 571 695 571 695 553 692 c 1,40,-1
 553 56 l 1,41,42
 558 55 558 55 564 55 c 128,-1,43
 570 55 570 55 576 55 c 0,44,45
 713 55 713 55 842 152 c 1,46,-1
 842 634 l 1,36,37
765 1583 m 1,47,-1
 1046 1583 l 1,48,-1
 803 1299 l 1,49,-1
 647 1299 l 1,50,-1
 765 1583 l 1,47,-1
EndSplineSet
EndChar

StartChar: acircumflex
Encoding: 226 226 183
Width: 1410
GlyphClass: 2
Flags: W
LayerCount: 2
Fore
SplineSet
842 66 m 1,0,1
 714 -19 714 -19 558 -19 c 0,2,3
 351 -19 351 -19 226 85 c 0,4,5
 96 192 96 192 96 382 c 0,6,7
 96 550 96 550 225 658 c 1,8,9
 357 767 357 767 572 767 c 0,10,11
 716 767 716 767 842 712 c 1,12,-1
 842 987 l 1,13,14
 751 1013 751 1013 681.5 1013 c 128,-1,15
 612 1013 612 1013 564 1007 c 128,-1,16
 516 1001 516 1001 473 989 c 0,17,18
 380 963 380 963 332 919 c 0,19,20
 304 893 304 893 281 893 c 128,-1,21
 258 893 258 893 246 904.5 c 128,-1,22
 234 916 234 916 234 930 c 128,-1,23
 234 944 234 944 239 955.5 c 128,-1,24
 244 967 244 967 258 979 c 0,25,26
 288 1005 288 1005 358 1031 c 0,27,28
 503 1086 503 1086 649 1086 c 0,29,30
 1093 1086 1093 1086 1216 874 c 0,31,32
 1270 780 1270 780 1270 627 c 2,33,-1
 1270 0 l 1,34,-1
 842 0 l 1,35,-1
 842 66 l 1,0,1
842 634 m 1,36,37
 716 695 716 695 591 695 c 0,38,39
 571 695 571 695 553 692 c 1,40,-1
 553 56 l 1,41,42
 558 55 558 55 564 55 c 128,-1,43
 570 55 570 55 576 55 c 0,44,45
 713 55 713 55 842 152 c 1,46,-1
 842 634 l 1,36,37
475 1345 m 2,47,-1
 445 1315 l 2,48,49
 423 1292 423 1292 406 1292 c 128,-1,50
 389 1292 389 1292 378.5 1302.5 c 128,-1,51
 368 1313 368 1313 368 1327 c 0,52,53
 368 1353 368 1353 409 1388 c 1,54,55
 422 1401 422 1401 442 1418.5 c 128,-1,56
 462 1436 462 1436 500 1474 c 2,57,-1
 610 1584 l 1,58,-1
 865 1584 l 1,59,-1
 1128 1300 l 1,60,-1
 820 1300 l 1,61,-1
 640 1514 l 1,62,63
 515 1388 515 1388 499 1370 c 128,-1,64
 483 1352 483 1352 475 1345 c 2,47,-1
EndSplineSet
EndChar

StartChar: atilde
Encoding: 227 227 184
Width: 1410
GlyphClass: 2
Flags: W
LayerCount: 2
Fore
SplineSet
842 66 m 1,0,1
 714 -19 714 -19 558 -19 c 0,2,3
 351 -19 351 -19 226 85 c 0,4,5
 96 192 96 192 96 382 c 0,6,7
 96 550 96 550 225 658 c 1,8,9
 357 767 357 767 572 767 c 0,10,11
 716 767 716 767 842 712 c 1,12,-1
 842 987 l 1,13,14
 751 1013 751 1013 681.5 1013 c 128,-1,15
 612 1013 612 1013 564 1007 c 128,-1,16
 516 1001 516 1001 473 989 c 0,17,18
 380 963 380 963 332 919 c 0,19,20
 304 893 304 893 281 893 c 128,-1,21
 258 893 258 893 246 904.5 c 128,-1,22
 234 916 234 916 234 930 c 128,-1,23
 234 944 234 944 239 955.5 c 128,-1,24
 244 967 244 967 258 979 c 0,25,26
 288 1005 288 1005 358 1031 c 0,27,28
 503 1086 503 1086 649 1086 c 0,29,30
 1093 1086 1093 1086 1216 874 c 0,31,32
 1270 780 1270 780 1270 627 c 2,33,-1
 1270 0 l 1,34,-1
 842 0 l 1,35,-1
 842 66 l 1,0,1
842 634 m 1,36,37
 716 695 716 695 591 695 c 0,38,39
 571 695 571 695 553 692 c 1,40,-1
 553 56 l 1,41,42
 558 55 558 55 564 55 c 128,-1,43
 570 55 570 55 576 55 c 0,44,45
 713 55 713 55 842 152 c 1,46,-1
 842 634 l 1,36,37
387.5 1192 m 128,-1,48
 375 1192 375 1192 363.5 1205.5 c 128,-1,49
 352 1219 352 1219 352 1251.5 c 128,-1,50
 352 1284 352 1284 372 1327.5 c 128,-1,51
 392 1371 392 1371 427 1406 c 0,52,53
 505 1484 505 1484 606 1484 c 0,54,55
 690 1484 690 1484 796 1401 c 1,56,-1
 848 1361 l 2,57,58
 905 1318 905 1318 923 1318 c 128,-1,59
 941 1318 941 1318 957.5 1343 c 128,-1,60
 974 1368 974 1368 980.5 1408 c 128,-1,61
 987 1448 987 1448 994 1461.5 c 128,-1,62
 1001 1475 1001 1475 1018 1475 c 128,-1,63
 1035 1475 1035 1475 1046.5 1460 c 128,-1,64
 1058 1445 1058 1445 1058 1413.5 c 128,-1,65
 1058 1382 1058 1382 1038 1338.5 c 128,-1,66
 1018 1295 1018 1295 983 1260 c 0,67,68
 905 1182 905 1182 804 1182 c 0,69,70
 725 1182 725 1182 617 1260 c 1,71,-1
 545 1314 l 2,72,73
 513 1339 513 1339 498 1339 c 128,-1,74
 483 1339 483 1339 472.5 1332.5 c 128,-1,75
 462 1326 462 1326 452 1314 c 0,76,77
 430 1289 430 1289 425 1262 c 2,78,-1
 419 1224 l 2,79,80
 415 1200 415 1200 407.5 1196 c 128,-1,47
 400 1192 400 1192 387.5 1192 c 128,-1,48
EndSplineSet
EndChar

StartChar: adieresis
Encoding: 228 228 185
Width: 1410
GlyphClass: 2
Flags: W
LayerCount: 2
Fore
SplineSet
842 66 m 1,0,1
 714 -19 714 -19 558 -19 c 0,2,3
 351 -19 351 -19 226 85 c 0,4,5
 96 192 96 192 96 382 c 0,6,7
 96 550 96 550 225 658 c 1,8,9
 357 767 357 767 572 767 c 0,10,11
 716 767 716 767 842 712 c 1,12,-1
 842 987 l 1,13,14
 751 1013 751 1013 681.5 1013 c 128,-1,15
 612 1013 612 1013 564 1007 c 128,-1,16
 516 1001 516 1001 473 989 c 0,17,18
 380 963 380 963 332 919 c 0,19,20
 304 893 304 893 281 893 c 128,-1,21
 258 893 258 893 246 904.5 c 128,-1,22
 234 916 234 916 234 930 c 128,-1,23
 234 944 234 944 239 955.5 c 128,-1,24
 244 967 244 967 258 979 c 0,25,26
 288 1005 288 1005 358 1031 c 0,27,28
 503 1086 503 1086 649 1086 c 0,29,30
 1093 1086 1093 1086 1216 874 c 0,31,32
 1270 780 1270 780 1270 627 c 2,33,-1
 1270 0 l 1,34,-1
 842 0 l 1,35,-1
 842 66 l 1,0,1
842 634 m 1,36,37
 716 695 716 695 591 695 c 0,38,39
 571 695 571 695 553 692 c 1,40,-1
 553 56 l 1,41,42
 558 55 558 55 564 55 c 128,-1,43
 570 55 570 55 576 55 c 0,44,45
 713 55 713 55 842 152 c 1,46,-1
 842 634 l 1,36,37
1100.5 1337.5 m 128,-1,48
 1053 1303 1053 1303 992 1303 c 128,-1,49
 931 1303 931 1303 899 1313 c 128,-1,50
 867 1323 867 1323 844 1340 c 0,51,52
 796 1375 796 1375 796 1430 c 0,53,54
 796 1517 796 1517 894 1546 c 0,55,56
 928 1556 928 1556 972 1556 c 128,-1,57
 1016 1556 1016 1556 1048.5 1545.5 c 128,-1,58
 1081 1535 1081 1535 1103 1517 c 0,59,60
 1148 1480 1148 1480 1148 1426 c 128,-1,47
 1148 1372 1148 1372 1100.5 1337.5 c 128,-1,48
598 1337.5 m 128,-1,62
 551 1303 551 1303 490 1303 c 128,-1,63
 429 1303 429 1303 397 1313 c 128,-1,64
 365 1323 365 1323 342 1340 c 0,65,66
 293 1375 293 1375 293 1430 c 0,67,68
 293 1517 293 1517 392 1546 c 0,69,70
 425 1556 425 1556 469.5 1556 c 128,-1,71
 514 1556 514 1556 546 1545.5 c 128,-1,72
 578 1535 578 1535 600 1517 c 0,73,74
 645 1480 645 1480 645 1426 c 128,-1,61
 645 1372 645 1372 598 1337.5 c 128,-1,62
EndSplineSet
EndChar

StartChar: aring
Encoding: 229 229 186
Width: 1410
GlyphClass: 2
Flags: W
LayerCount: 2
Fore
SplineSet
842 66 m 1,0,1
 714 -19 714 -19 558 -19 c 0,2,3
 351 -19 351 -19 226 85 c 0,4,5
 96 192 96 192 96 382 c 0,6,7
 96 550 96 550 225 658 c 1,8,9
 357 767 357 767 572 767 c 0,10,11
 716 767 716 767 842 712 c 1,12,-1
 842 987 l 1,13,14
 751 1013 751 1013 681.5 1013 c 128,-1,15
 612 1013 612 1013 564 1007 c 128,-1,16
 516 1001 516 1001 473 989 c 0,17,18
 380 963 380 963 332 919 c 0,19,20
 304 893 304 893 281 893 c 128,-1,21
 258 893 258 893 246 904.5 c 128,-1,22
 234 916 234 916 234 930 c 128,-1,23
 234 944 234 944 239 955.5 c 128,-1,24
 244 967 244 967 258 979 c 0,25,26
 288 1005 288 1005 358 1031 c 0,27,28
 503 1086 503 1086 649 1086 c 0,29,30
 1093 1086 1093 1086 1216 874 c 0,31,32
 1270 780 1270 780 1270 627 c 2,33,-1
 1270 0 l 1,34,-1
 842 0 l 1,35,-1
 842 66 l 1,0,1
842 634 m 1,36,37
 716 695 716 695 591 695 c 0,38,39
 571 695 571 695 553 692 c 1,40,-1
 553 56 l 1,41,42
 558 55 558 55 564 55 c 128,-1,43
 570 55 570 55 576 55 c 0,44,45
 713 55 713 55 842 152 c 1,46,-1
 842 634 l 1,36,37
720 1284 m 0,47,48
 654 1284 654 1284 609 1325 c 0,49,50
 564 1367 564 1367 564 1436 c 0,51,52
 564 1536 564 1536 659 1575 c 0,53,54
 688 1587 688 1587 721.5 1587 c 128,-1,55
 755 1587 755 1587 783.5 1576 c 128,-1,56
 812 1565 812 1565 833 1545 c 0,57,58
 876 1503 876 1503 876 1436 c 256,59,60
 876 1369 876 1369 831 1326 c 0,61,62
 787 1284 787 1284 720 1284 c 0,47,48
689.5 1362 m 128,-1,64
 704 1356 704 1356 729 1356 c 128,-1,65
 754 1356 754 1356 777.5 1377.5 c 128,-1,66
 801 1399 801 1399 801 1434 c 128,-1,67
 801 1469 801 1469 778.5 1491 c 128,-1,68
 756 1513 756 1513 720.5 1513 c 128,-1,69
 685 1513 685 1513 662.5 1491 c 128,-1,70
 640 1469 640 1469 640 1444 c 128,-1,71
 640 1419 640 1419 646.5 1404.5 c 128,-1,72
 653 1390 653 1390 664 1379 c 128,-1,63
 675 1368 675 1368 689.5 1362 c 128,-1,64
EndSplineSet
EndChar

StartChar: ae
Encoding: 230 230 187
Width: 2012
GlyphClass: 2
Flags: W
LayerCount: 2
Fore
SplineSet
952 148 m 1,0,1
 775 -19 775 -19 558 -19 c 0,2,3
 351 -19 351 -19 226 85 c 0,4,5
 96 192 96 192 96 382 c 0,6,7
 96 550 96 550 225 658 c 1,8,9
 357 767 357 767 572 767 c 0,10,11
 699 767 699 767 822 720 c 1,12,-1
 823 987 l 1,13,14
 745 1013 745 1013 678.5 1013 c 128,-1,15
 612 1013 612 1013 564 1007 c 128,-1,16
 516 1001 516 1001 473 989 c 0,17,18
 380 963 380 963 332 919 c 0,19,20
 304 893 304 893 281 893 c 128,-1,21
 258 893 258 893 246 904.5 c 128,-1,22
 234 916 234 916 234 930 c 128,-1,23
 234 944 234 944 239 955.5 c 128,-1,24
 244 967 244 967 258 979 c 0,25,26
 288 1005 288 1005 358 1031 c 0,27,28
 503 1086 503 1086 689 1086 c 128,-1,29
 875 1086 875 1086 1064 1011 c 1,30,31
 1197 1086 1197 1086 1397 1086 c 0,32,33
 1619 1086 1619 1086 1770 951 c 0,34,35
 1934 805 1934 805 1934 570 c 0,36,37
 1934 536 1934 536 1930 498 c 1,38,-1
 1269 498 l 1,39,-1
 1269 69 l 1,40,41
 1339 55 1339 55 1424 55 c 0,42,43
 1599 55 1599 55 1731 174 c 1,44,-1
 1750 194 l 2,45,46
 1759 203 1759 203 1769 216 c 0,47,48
 1790 243 1790 243 1813 243 c 0,49,50
 1852 243 1852 243 1852 207 c 0,51,52
 1852 180 1852 180 1817 143 c 0,53,54
 1662 -19 1662 -19 1393.5 -19 c 128,-1,55
 1125 -19 1125 -19 952 148 c 1,0,1
1547 991 m 1,56,57
 1485 1013 1485 1013 1399 1013 c 128,-1,58
 1313 1013 1313 1013 1269 1002 c 1,59,-1
 1269 571 l 1,60,-1
 1547 571 l 1,61,-1
 1547 991 l 1,56,57
822 643 m 1,62,63
 705 695 705 695 591 695 c 0,64,65
 571 695 571 695 553 692 c 1,66,-1
 553 56 l 1,67,68
 558 55 558 55 564 55 c 128,-1,69
 570 55 570 55 576 55 c 0,70,71
 746 55 746 55 902 204 c 1,72,73
 822 316 822 316 822 554 c 2,74,-1
 822 643 l 1,62,63
EndSplineSet
EndChar

StartChar: ccedilla
Encoding: 231 231 188
Width: 1128
GlyphClass: 2
Flags: W
LayerCount: 2
Fore
SplineSet
712 -69 m 1,0,1
 928 -73 928 -73 928 -194 c 0,2,3
 928 -289 928 -289 798 -326 c 0,4,5
 755 -338 755 -338 710 -338 c 0,6,7
 559 -338 559 -338 490 -283 c 0,8,9
 461 -260 461 -260 461 -240 c 0,10,11
 461 -197 461 -197 501 -197 c 0,12,13
 522 -197 522 -197 543.5 -215.5 c 128,-1,14
 565 -234 565 -234 582 -241.5 c 128,-1,15
 599 -249 599 -249 620 -254 c 0,16,17
 659 -265 659 -265 719.5 -265 c 128,-1,18
 780 -265 780 -265 816 -243.5 c 128,-1,19
 852 -222 852 -222 852 -199.5 c 128,-1,20
 852 -177 852 -177 814.5 -160 c 128,-1,21
 777 -143 777 -143 719.5 -142 c 128,-1,22
 662 -141 662 -141 648 -130 c 128,-1,23
 634 -119 634 -119 634 -87 c 2,24,-1
 634 -18 l 1,25,26
 384 -8 384 -8 232 148 c 0,27,28
 81 303 81 303 81 544 c 0,29,30
 81 780 81 780 250 934 c 0,31,32
 418 1086 418 1086 672 1086 c 0,33,34
 817 1086 817 1086 951 1026 c 1,35,36
 1053 982 1053 982 1053 935 c 0,37,38
 1053 915 1053 915 1041.5 904.5 c 128,-1,39
 1030 894 1030 894 1016 894 c 0,40,41
 995 894 995 894 962 917 c 1,42,43
 897 979 897 979 769 1004 c 0,44,45
 723 1013 723 1013 668 1013 c 128,-1,46
 613 1013 613 1013 573 1005 c 1,47,-1
 573 64 l 1,48,49
 620 55 620 55 667.5 55 c 128,-1,50
 715 55 715 55 759.5 62.5 c 128,-1,51
 804 70 804 70 844 84 c 0,52,53
 929 114 929 114 981 160 c 0,54,55
 1018 192 1018 192 1035 192 c 0,56,57
 1073 192 1073 192 1073 158 c 128,-1,58
 1073 124 1073 124 1011 77 c 1,59,60
 882 -9 882 -9 712 -17 c 1,61,-1
 712 -69 l 1,0,1
EndSplineSet
EndChar

StartChar: egrave
Encoding: 232 232 189
Width: 1300
GlyphClass: 2
Flags: W
LayerCount: 2
Fore
SplineSet
1101 243 m 0,0,1
 1140 243 1140 243 1140 207 c 0,2,3
 1140 180 1140 180 1105 143 c 0,4,5
 947 -19 947 -19 672 -19 c 0,6,7
 425 -19 425 -19 256 130 c 0,8,9
 81 285 81 285 81 522 c 0,10,11
 81 764 81 764 239 920 c 0,12,13
 406 1086 406 1086 683 1086 c 0,14,15
 905 1086 905 1086 1056 951 c 0,16,17
 1219 806 1219 806 1219 570 c 0,18,19
 1219 536 1219 536 1217 498 c 1,20,-1
 557 498 l 1,21,-1
 557 69 l 1,22,23
 625 55 625 55 710 55 c 0,24,25
 890 55 890 55 1017 174 c 1,26,27
 1043 200 1043 200 1054 215 c 1,28,29
 1077 243 1077 243 1101 243 c 0,0,1
834 994 m 1,30,31
 769 1013 769 1013 687 1013 c 128,-1,32
 605 1013 605 1013 557 1002 c 1,33,-1
 557 571 l 1,34,-1
 834 571 l 1,35,-1
 834 994 l 1,30,31
451 1479 m 1,36,-1
 732 1479 l 1,37,-1
 849 1195 l 1,38,-1
 695 1195 l 1,39,-1
 451 1479 l 1,36,-1
EndSplineSet
EndChar

StartChar: eacute
Encoding: 233 233 190
Width: 1300
GlyphClass: 2
Flags: W
LayerCount: 2
Fore
SplineSet
1101 243 m 0,0,1
 1140 243 1140 243 1140 207 c 0,2,3
 1140 180 1140 180 1105 143 c 0,4,5
 947 -19 947 -19 672 -19 c 0,6,7
 425 -19 425 -19 256 130 c 0,8,9
 81 285 81 285 81 522 c 0,10,11
 81 764 81 764 239 920 c 0,12,13
 406 1086 406 1086 683 1086 c 0,14,15
 905 1086 905 1086 1056 951 c 0,16,17
 1219 806 1219 806 1219 570 c 0,18,19
 1219 536 1219 536 1217 498 c 1,20,-1
 557 498 l 1,21,-1
 557 69 l 1,22,23
 625 55 625 55 710 55 c 0,24,25
 890 55 890 55 1017 174 c 1,26,27
 1043 200 1043 200 1054 215 c 1,28,29
 1077 243 1077 243 1101 243 c 0,0,1
834 994 m 1,30,31
 769 1013 769 1013 687 1013 c 128,-1,32
 605 1013 605 1013 557 1002 c 1,33,-1
 557 571 l 1,34,-1
 834 571 l 1,35,-1
 834 994 l 1,30,31
721 1583 m 1,36,-1
 1002 1583 l 1,37,-1
 759 1299 l 1,38,-1
 603 1299 l 1,39,-1
 721 1583 l 1,36,-1
EndSplineSet
EndChar

StartChar: ecircumflex
Encoding: 234 234 191
Width: 1300
GlyphClass: 2
Flags: W
LayerCount: 2
Fore
SplineSet
1101 243 m 0,0,1
 1140 243 1140 243 1140 207 c 0,2,3
 1140 180 1140 180 1105 143 c 0,4,5
 947 -19 947 -19 672 -19 c 0,6,7
 425 -19 425 -19 256 130 c 0,8,9
 81 285 81 285 81 522 c 0,10,11
 81 764 81 764 239 920 c 0,12,13
 406 1086 406 1086 683 1086 c 0,14,15
 905 1086 905 1086 1056 951 c 0,16,17
 1219 806 1219 806 1219 570 c 0,18,19
 1219 536 1219 536 1217 498 c 1,20,-1
 557 498 l 1,21,-1
 557 69 l 1,22,23
 625 55 625 55 710 55 c 0,24,25
 890 55 890 55 1017 174 c 1,26,27
 1043 200 1043 200 1054 215 c 1,28,29
 1077 243 1077 243 1101 243 c 0,0,1
834 994 m 1,30,31
 769 1013 769 1013 687 1013 c 128,-1,32
 605 1013 605 1013 557 1002 c 1,33,-1
 557 571 l 1,34,-1
 834 571 l 1,35,-1
 834 994 l 1,30,31
431 1345 m 2,36,-1
 401 1315 l 2,37,38
 379 1292 379 1292 362 1292 c 128,-1,39
 345 1292 345 1292 334.5 1302.5 c 128,-1,40
 324 1313 324 1313 324 1327 c 0,41,42
 324 1353 324 1353 365 1388 c 1,43,44
 378 1401 378 1401 398 1418.5 c 128,-1,45
 418 1436 418 1436 456 1474 c 2,46,-1
 566 1584 l 1,47,-1
 821 1584 l 1,48,-1
 1084 1300 l 1,49,-1
 776 1300 l 1,50,-1
 596 1514 l 1,51,52
 471 1388 471 1388 455 1370 c 128,-1,53
 439 1352 439 1352 431 1345 c 2,36,-1
EndSplineSet
EndChar

StartChar: edieresis
Encoding: 235 235 192
Width: 1300
GlyphClass: 2
Flags: W
LayerCount: 2
Fore
SplineSet
1101 243 m 0,0,1
 1140 243 1140 243 1140 207 c 0,2,3
 1140 180 1140 180 1105 143 c 0,4,5
 947 -19 947 -19 672 -19 c 0,6,7
 425 -19 425 -19 256 130 c 0,8,9
 81 285 81 285 81 522 c 0,10,11
 81 764 81 764 239 920 c 0,12,13
 406 1086 406 1086 683 1086 c 0,14,15
 905 1086 905 1086 1056 951 c 0,16,17
 1219 806 1219 806 1219 570 c 0,18,19
 1219 536 1219 536 1217 498 c 1,20,-1
 557 498 l 1,21,-1
 557 69 l 1,22,23
 625 55 625 55 710 55 c 0,24,25
 890 55 890 55 1017 174 c 1,26,27
 1043 200 1043 200 1054 215 c 1,28,29
 1077 243 1077 243 1101 243 c 0,0,1
834 994 m 1,30,31
 769 1013 769 1013 687 1013 c 128,-1,32
 605 1013 605 1013 557 1002 c 1,33,-1
 557 571 l 1,34,-1
 834 571 l 1,35,-1
 834 994 l 1,30,31
1056.5 1337.5 m 128,-1,37
 1009 1303 1009 1303 948 1303 c 128,-1,38
 887 1303 887 1303 855 1313 c 128,-1,39
 823 1323 823 1323 800 1340 c 0,40,41
 752 1375 752 1375 752 1430 c 0,42,43
 752 1517 752 1517 850 1546 c 0,44,45
 884 1556 884 1556 928 1556 c 128,-1,46
 972 1556 972 1556 1004.5 1545.5 c 128,-1,47
 1037 1535 1037 1535 1059 1517 c 0,48,49
 1104 1480 1104 1480 1104 1426 c 128,-1,36
 1104 1372 1104 1372 1056.5 1337.5 c 128,-1,37
554 1337.5 m 128,-1,51
 507 1303 507 1303 446 1303 c 128,-1,52
 385 1303 385 1303 353 1313 c 128,-1,53
 321 1323 321 1323 298 1340 c 0,54,55
 249 1375 249 1375 249 1430 c 0,56,57
 249 1517 249 1517 348 1546 c 0,58,59
 381 1556 381 1556 425.5 1556 c 128,-1,60
 470 1556 470 1556 502 1545.5 c 128,-1,61
 534 1535 534 1535 556 1517 c 0,62,63
 601 1480 601 1480 601 1426 c 128,-1,50
 601 1372 601 1372 554 1337.5 c 128,-1,51
EndSplineSet
EndChar

StartChar: igrave
Encoding: 236 236 193
Width: 757
GlyphClass: 2
Flags: W
LayerCount: 2
Fore
SplineSet
173 1068 m 1,0,-1
 603 1068 l 1,1,-1
 603 0 l 1,2,-1
 173 0 l 1,3,-1
 173 1068 l 1,0,-1
179 1479 m 1,4,-1
 460 1479 l 1,5,-1
 577 1195 l 1,6,-1
 423 1195 l 1,7,-1
 179 1479 l 1,4,-1
EndSplineSet
EndChar

StartChar: iacute
Encoding: 237 237 194
Width: 757
GlyphClass: 2
Flags: W
LayerCount: 2
Fore
SplineSet
173 1068 m 1,0,-1
 603 1068 l 1,1,-1
 603 0 l 1,2,-1
 173 0 l 1,3,-1
 173 1068 l 1,0,-1
438 1583 m 1,4,-1
 719 1583 l 1,5,-1
 476 1299 l 1,6,-1
 320 1299 l 1,7,-1
 438 1583 l 1,4,-1
EndSplineSet
EndChar

StartChar: icircumflex
Encoding: 238 238 195
Width: 757
GlyphClass: 2
Flags: W
LayerCount: 2
Fore
SplineSet
173 1068 m 1,0,-1
 603 1068 l 1,1,-1
 603 0 l 1,2,-1
 173 0 l 1,3,-1
 173 1068 l 1,0,-1
149 1345 m 2,4,-1
 119 1315 l 2,5,6
 97 1292 97 1292 80 1292 c 128,-1,7
 63 1292 63 1292 52.5 1302.5 c 128,-1,8
 42 1313 42 1313 42 1327 c 0,9,10
 42 1353 42 1353 83 1388 c 1,11,12
 96 1401 96 1401 116 1418.5 c 128,-1,13
 136 1436 136 1436 174 1474 c 2,14,-1
 284 1584 l 1,15,-1
 539 1584 l 1,16,-1
 802 1300 l 1,17,-1
 494 1300 l 1,18,-1
 314 1514 l 1,19,20
 189 1388 189 1388 173 1370 c 128,-1,21
 157 1352 157 1352 149 1345 c 2,4,-1
EndSplineSet
EndChar

StartChar: idieresis
Encoding: 239 239 196
Width: 757
GlyphClass: 2
Flags: W
LayerCount: 2
Fore
SplineSet
173 1068 m 1,0,-1
 603 1068 l 1,1,-1
 603 0 l 1,2,-1
 173 0 l 1,3,-1
 173 1068 l 1,0,-1
774.5 1337.5 m 128,-1,5
 727 1303 727 1303 666 1303 c 128,-1,6
 605 1303 605 1303 573 1313 c 128,-1,7
 541 1323 541 1323 518 1340 c 0,8,9
 470 1375 470 1375 470 1430 c 0,10,11
 470 1517 470 1517 568 1546 c 0,12,13
 602 1556 602 1556 646 1556 c 128,-1,14
 690 1556 690 1556 722.5 1545.5 c 128,-1,15
 755 1535 755 1535 777 1517 c 0,16,17
 822 1480 822 1480 822 1426 c 128,-1,4
 822 1372 822 1372 774.5 1337.5 c 128,-1,5
272 1337.5 m 128,-1,19
 225 1303 225 1303 164 1303 c 128,-1,20
 103 1303 103 1303 71 1313 c 128,-1,21
 39 1323 39 1323 16 1340 c 0,22,23
 -33 1375 -33 1375 -33 1430 c 0,24,25
 -33 1517 -33 1517 66 1546 c 0,26,27
 99 1556 99 1556 143.5 1556 c 128,-1,28
 188 1556 188 1556 220 1545.5 c 128,-1,29
 252 1535 252 1535 274 1517 c 0,30,31
 319 1480 319 1480 319 1426 c 128,-1,18
 319 1372 319 1372 272 1337.5 c 128,-1,19
EndSplineSet
EndChar

StartChar: eth
Encoding: 240 240 197
Width: 1298
GlyphClass: 2
Flags: W
LayerCount: 2
Fore
SplineSet
875 1642 m 0,0,1
 912 1642 912 1642 914 1609 c 1,2,3
 914 1586 914 1586 874 1549 c 1,4,-1
 801 1477 l 1,5,6
 993 1343 993 1343 1106 1114 c 0,7,8
 1222 877 1222 877 1224 604 c 1,9,10
 1224 389 1224 389 1134 238 c 0,11,12
 980 -19 980 -19 655 -19 c 0,13,14
 399 -19 399 -19 240 138 c 0,15,16
 84 293 84 293 84 541 c 0,17,18
 84 771 84 771 238 924 c 0,19,20
 402 1086 402 1086 666 1086 c 0,21,22
 934 1086 934 1086 1086 891 c 0,23,24
 1112 857 1112 857 1133 814 c 1,25,26
 1084 1097 1084 1097 886 1314 c 0,27,28
 825 1382 825 1382 755 1431 c 1,29,-1
 699 1374 l 2,30,31
 677 1352 677 1352 664 1334 c 0,32,33
 638 1299 638 1299 619 1299 c 128,-1,34
 600 1299 600 1299 588 1310.5 c 128,-1,35
 576 1322 576 1322 576 1338 c 0,36,37
 576 1370 576 1370 654 1431 c 0,38,39
 675 1447 675 1447 696 1468 c 1,40,41
 583 1530 583 1530 500 1530 c 0,42,43
 490 1530 490 1530 477 1529 c 1,44,45
 388 1529 388 1529 388 1578 c 0,46,47
 388 1624 388 1624 464 1614 c 0,48,49
 612 1593 612 1593 741 1516 c 1,50,-1
 796 1575 l 2,51,52
 818 1599 818 1599 829 1614 c 0,53,54
 851 1642 851 1642 875 1642 c 0,0,1
841.5 977 m 128,-1,56
 754 1013 754 1013 686.5 1013 c 128,-1,57
 619 1013 619 1013 587 1009 c 1,58,-1
 587 61 l 1,59,60
 623 55 623 55 697.5 55 c 128,-1,61
 772 55 772 55 860 90.5 c 128,-1,62
 948 126 948 126 1010 192 c 1,63,64
 1141 328 1141 328 1145 558 c 1,65,66
 1141 743 1141 743 996 879 c 0,67,55
 929 941 929 941 841.5 977 c 128,-1,56
EndSplineSet
EndChar

StartChar: ntilde
Encoding: 241 241 198
Width: 1497
GlyphClass: 2
Flags: W
LayerCount: 2
Fore
SplineSet
913 959 m 1,0,1
 888 975 888 975 859 975 c 128,-1,2
 830 975 830 975 799 961.5 c 128,-1,3
 768 948 768 948 734 924 c 0,4,5
 663 873 663 873 603 788 c 1,6,-1
 603 0 l 1,7,-1
 173 0 l 1,8,-1
 173 1068 l 1,9,-1
 603 1068 l 1,10,-1
 603 897 l 1,11,12
 774 1086 774 1086 990 1086 c 0,13,14
 1343 1086 1343 1086 1343 744 c 2,15,-1
 1343 0 l 1,16,-1
 913 0 l 1,17,-1
 913 959 l 1,0,1
430.5 1192 m 128,-1,19
 418 1192 418 1192 406.5 1205.5 c 128,-1,20
 395 1219 395 1219 395 1251.5 c 128,-1,21
 395 1284 395 1284 415 1327.5 c 128,-1,22
 435 1371 435 1371 470 1406 c 0,23,24
 548 1484 548 1484 649 1484 c 0,25,26
 733 1484 733 1484 839 1401 c 1,27,-1
 891 1361 l 2,28,29
 948 1318 948 1318 966 1318 c 128,-1,30
 984 1318 984 1318 1000.5 1343 c 128,-1,31
 1017 1368 1017 1368 1023.5 1408 c 128,-1,32
 1030 1448 1030 1448 1037 1461.5 c 128,-1,33
 1044 1475 1044 1475 1061 1475 c 128,-1,34
 1078 1475 1078 1475 1089.5 1460 c 128,-1,35
 1101 1445 1101 1445 1101 1413.5 c 128,-1,36
 1101 1382 1101 1382 1081 1338.5 c 128,-1,37
 1061 1295 1061 1295 1026 1260 c 0,38,39
 948 1182 948 1182 847 1182 c 0,40,41
 768 1182 768 1182 660 1260 c 1,42,-1
 588 1314 l 2,43,44
 556 1339 556 1339 541 1339 c 128,-1,45
 526 1339 526 1339 515.5 1332.5 c 128,-1,46
 505 1326 505 1326 495 1314 c 0,47,48
 473 1289 473 1289 468 1262 c 2,49,-1
 462 1224 l 2,50,51
 458 1200 458 1200 450.5 1196 c 128,-1,18
 443 1192 443 1192 430.5 1192 c 128,-1,19
EndSplineSet
EndChar

StartChar: ograve
Encoding: 242 242 199
Width: 1303
GlyphClass: 2
Flags: W
LayerCount: 2
Fore
SplineSet
81 540 m 0,0,1
 81 660 81 660 124.5 758.5 c 128,-1,2
 168 857 168 857 244 930 c 0,3,4
 408 1086 408 1086 656 1086 c 0,5,6
 909 1086 909 1086 1068 924 c 1,7,8
 1220 771 1220 771 1220 537 c 0,9,10
 1220 302 1220 302 1064 144 c 0,11,12
 903 -19 903 -19 652 -19 c 0,13,14
 407 -19 407 -19 246 136 c 0,15,16
 81 296 81 296 81 540 c 0,0,1
624 56 m 1,17,18
 632 55 632 55 640 55 c 2,19,-1
 654 55 l 2,20,21
 856 55 856 55 993 180 c 1,22,23
 1139 315 1139 315 1139 534 c 0,24,25
 1139 748 1139 748 1002 881 c 0,26,27
 867 1013 867 1013 653 1013 c 2,28,-1
 638 1013 l 2,29,30
 631 1013 631 1013 624 1012 c 1,31,-1
 624 56 l 1,17,18
452 1479 m 1,32,-1
 733 1479 l 1,33,-1
 850 1195 l 1,34,-1
 696 1195 l 1,35,-1
 452 1479 l 1,32,-1
EndSplineSet
EndChar

StartChar: oacute
Encoding: 243 243 200
Width: 1303
GlyphClass: 2
Flags: W
LayerCount: 2
Fore
SplineSet
81 540 m 0,0,1
 81 660 81 660 124.5 758.5 c 128,-1,2
 168 857 168 857 244 930 c 0,3,4
 408 1086 408 1086 656 1086 c 0,5,6
 909 1086 909 1086 1068 924 c 1,7,8
 1220 771 1220 771 1220 537 c 0,9,10
 1220 302 1220 302 1064 144 c 0,11,12
 903 -19 903 -19 652 -19 c 0,13,14
 407 -19 407 -19 246 136 c 0,15,16
 81 296 81 296 81 540 c 0,0,1
624 56 m 1,17,18
 632 55 632 55 640 55 c 2,19,-1
 654 55 l 2,20,21
 856 55 856 55 993 180 c 1,22,23
 1139 315 1139 315 1139 534 c 0,24,25
 1139 748 1139 748 1002 881 c 0,26,27
 867 1013 867 1013 653 1013 c 2,28,-1
 638 1013 l 2,29,30
 631 1013 631 1013 624 1012 c 1,31,-1
 624 56 l 1,17,18
688 1583 m 1,32,-1
 969 1583 l 1,33,-1
 726 1299 l 1,34,-1
 570 1299 l 1,35,-1
 688 1583 l 1,32,-1
EndSplineSet
EndChar

StartChar: ocircumflex
Encoding: 244 244 201
Width: 1303
GlyphClass: 2
Flags: W
LayerCount: 2
Fore
SplineSet
81 540 m 0,0,1
 81 660 81 660 124.5 758.5 c 128,-1,2
 168 857 168 857 244 930 c 0,3,4
 408 1086 408 1086 656 1086 c 0,5,6
 909 1086 909 1086 1068 924 c 1,7,8
 1220 771 1220 771 1220 537 c 0,9,10
 1220 302 1220 302 1064 144 c 0,11,12
 903 -19 903 -19 652 -19 c 0,13,14
 407 -19 407 -19 246 136 c 0,15,16
 81 296 81 296 81 540 c 0,0,1
624 56 m 1,17,18
 632 55 632 55 640 55 c 2,19,-1
 654 55 l 2,20,21
 856 55 856 55 993 180 c 1,22,23
 1139 315 1139 315 1139 534 c 0,24,25
 1139 748 1139 748 1002 881 c 0,26,27
 867 1013 867 1013 653 1013 c 2,28,-1
 638 1013 l 2,29,30
 631 1013 631 1013 624 1012 c 1,31,-1
 624 56 l 1,17,18
398 1345 m 2,32,-1
 368 1315 l 2,33,34
 346 1292 346 1292 329 1292 c 128,-1,35
 312 1292 312 1292 301.5 1302.5 c 128,-1,36
 291 1313 291 1313 291 1327 c 0,37,38
 291 1353 291 1353 332 1388 c 1,39,40
 345 1401 345 1401 365 1418.5 c 128,-1,41
 385 1436 385 1436 423 1474 c 2,42,-1
 533 1584 l 1,43,-1
 788 1584 l 1,44,-1
 1051 1300 l 1,45,-1
 743 1300 l 1,46,-1
 563 1514 l 1,47,48
 438 1388 438 1388 422 1370 c 128,-1,49
 406 1352 406 1352 398 1345 c 2,32,-1
EndSplineSet
EndChar

StartChar: otilde
Encoding: 245 245 202
Width: 1303
GlyphClass: 2
Flags: W
LayerCount: 2
Fore
SplineSet
81 540 m 0,0,1
 81 660 81 660 124.5 758.5 c 128,-1,2
 168 857 168 857 244 930 c 0,3,4
 408 1086 408 1086 656 1086 c 0,5,6
 909 1086 909 1086 1068 924 c 1,7,8
 1220 771 1220 771 1220 537 c 0,9,10
 1220 302 1220 302 1064 144 c 0,11,12
 903 -19 903 -19 652 -19 c 0,13,14
 407 -19 407 -19 246 136 c 0,15,16
 81 296 81 296 81 540 c 0,0,1
624 56 m 1,17,18
 632 55 632 55 640 55 c 2,19,-1
 654 55 l 2,20,21
 856 55 856 55 993 180 c 1,22,23
 1139 315 1139 315 1139 534 c 0,24,25
 1139 748 1139 748 1002 881 c 0,26,27
 867 1013 867 1013 653 1013 c 2,28,-1
 638 1013 l 2,29,30
 631 1013 631 1013 624 1012 c 1,31,-1
 624 56 l 1,17,18
333.5 1192 m 128,-1,33
 321 1192 321 1192 309.5 1205.5 c 128,-1,34
 298 1219 298 1219 298 1251.5 c 128,-1,35
 298 1284 298 1284 318 1327.5 c 128,-1,36
 338 1371 338 1371 373 1406 c 0,37,38
 451 1484 451 1484 552 1484 c 0,39,40
 636 1484 636 1484 742 1401 c 1,41,-1
 794 1361 l 2,42,43
 851 1318 851 1318 869 1318 c 128,-1,44
 887 1318 887 1318 903.5 1343 c 128,-1,45
 920 1368 920 1368 926.5 1408 c 128,-1,46
 933 1448 933 1448 940 1461.5 c 128,-1,47
 947 1475 947 1475 964 1475 c 128,-1,48
 981 1475 981 1475 992.5 1460 c 128,-1,49
 1004 1445 1004 1445 1004 1413.5 c 128,-1,50
 1004 1382 1004 1382 984 1338.5 c 128,-1,51
 964 1295 964 1295 929 1260 c 0,52,53
 851 1182 851 1182 750 1182 c 0,54,55
 671 1182 671 1182 563 1260 c 1,56,-1
 491 1314 l 2,57,58
 459 1339 459 1339 444 1339 c 128,-1,59
 429 1339 429 1339 418.5 1332.5 c 128,-1,60
 408 1326 408 1326 398 1314 c 0,61,62
 376 1289 376 1289 371 1262 c 2,63,-1
 365 1224 l 2,64,65
 361 1200 361 1200 353.5 1196 c 128,-1,32
 346 1192 346 1192 333.5 1192 c 128,-1,33
EndSplineSet
EndChar

StartChar: odieresis
Encoding: 246 246 203
Width: 1303
GlyphClass: 2
Flags: W
LayerCount: 2
Fore
SplineSet
81 540 m 0,0,1
 81 660 81 660 124.5 758.5 c 128,-1,2
 168 857 168 857 244 930 c 0,3,4
 408 1086 408 1086 656 1086 c 0,5,6
 909 1086 909 1086 1068 924 c 1,7,8
 1220 771 1220 771 1220 537 c 0,9,10
 1220 302 1220 302 1064 144 c 0,11,12
 903 -19 903 -19 652 -19 c 0,13,14
 407 -19 407 -19 246 136 c 0,15,16
 81 296 81 296 81 540 c 0,0,1
624 56 m 1,17,18
 632 55 632 55 640 55 c 2,19,-1
 654 55 l 2,20,21
 856 55 856 55 993 180 c 1,22,23
 1139 315 1139 315 1139 534 c 0,24,25
 1139 748 1139 748 1002 881 c 0,26,27
 867 1013 867 1013 653 1013 c 2,28,-1
 638 1013 l 2,29,30
 631 1013 631 1013 624 1012 c 1,31,-1
 624 56 l 1,17,18
1023.5 1337.5 m 128,-1,33
 976 1303 976 1303 915 1303 c 128,-1,34
 854 1303 854 1303 822 1313 c 128,-1,35
 790 1323 790 1323 767 1340 c 0,36,37
 719 1375 719 1375 719 1430 c 0,38,39
 719 1517 719 1517 817 1546 c 0,40,41
 851 1556 851 1556 895 1556 c 128,-1,42
 939 1556 939 1556 971.5 1545.5 c 128,-1,43
 1004 1535 1004 1535 1026 1517 c 0,44,45
 1071 1480 1071 1480 1071 1426 c 128,-1,32
 1071 1372 1071 1372 1023.5 1337.5 c 128,-1,33
521 1337.5 m 128,-1,47
 474 1303 474 1303 413 1303 c 128,-1,48
 352 1303 352 1303 320 1313 c 128,-1,49
 288 1323 288 1323 265 1340 c 0,50,51
 216 1375 216 1375 216 1430 c 0,52,53
 216 1517 216 1517 315 1546 c 0,54,55
 348 1556 348 1556 392.5 1556 c 128,-1,56
 437 1556 437 1556 469 1545.5 c 128,-1,57
 501 1535 501 1535 523 1517 c 0,58,59
 568 1480 568 1480 568 1426 c 128,-1,46
 568 1372 568 1372 521 1337.5 c 128,-1,47
EndSplineSet
EndChar

StartChar: divide
Encoding: 247 247 204
Width: 1025
GlyphClass: 2
Flags: W
LayerCount: 2
Fore
SplineSet
498 728 m 0,0,1
 445 728 445 728 402.5 743.5 c 128,-1,2
 360 759 360 759 331 788 c 0,3,4
 272 845 272 845 272 943 c 0,5,6
 272 1023 272 1023 338 1083 c 0,7,8
 407 1145 407 1145 507 1145 c 0,9,10
 613 1145 613 1145 678 1076 c 0,11,12
 738 1013 738 1013 738 928 c 256,13,14
 738 843 738 843 670 786 c 0,15,16
 601 728 601 728 498 728 c 0,0,1
306 528 m 1,17,-1
 159 521 l 1,18,19
 131 521 131 521 114 533.5 c 128,-1,20
 97 546 97 546 97 566 c 0,21,22
 97 609 97 609 156 609 c 0,23,24
 168 609 168 609 202 605 c 256,25,26
 236 601 236 601 298 601 c 2,27,-1
 701 601 l 1,28,-1
 830 609 l 1,29,-1
 847 609 l 2,30,31
 871 609 871 609 887.5 597 c 128,-1,32
 904 585 904 585 904 565.5 c 128,-1,33
 904 546 904 546 886.5 534 c 128,-1,34
 869 522 869 522 843 522 c 1,35,-1
 695 528 l 1,36,-1
 306 528 l 1,17,-1
287 118 m 0,37,38
 272 158 272 158 272 201.5 c 128,-1,39
 272 245 272 245 289.5 281.5 c 128,-1,40
 307 318 307 318 338 346 c 0,41,42
 407 408 407 408 507 408 c 0,43,44
 613 408 613 408 678 339 c 0,45,46
 738 276 738 276 738 191 c 256,47,48
 738 106 738 106 670 49 c 0,49,50
 601 -9 601 -9 501 -9 c 0,51,52
 335 -9 335 -9 287 118 c 0,37,38
EndSplineSet
EndChar

StartChar: oslash
Encoding: 248 248 205
Width: 1303
GlyphClass: 2
Flags: W
LayerCount: 2
Fore
SplineSet
426.5 1044.5 m 128,-1,1
 532 1086 532 1086 660 1086 c 128,-1,2
 788 1086 788 1086 901 1038 c 1,3,4
 934 1091 934 1091 958 1136 c 2,5,-1
 1000 1212 l 2,6,7
 1037 1281 1037 1281 1051.5 1284 c 128,-1,8
 1066 1287 1066 1287 1081.5 1280.5 c 128,-1,9
 1097 1274 1097 1274 1101 1258 c 0,10,11
 1107 1232 1107 1232 1078.5 1192.5 c 128,-1,12
 1050 1153 1050 1153 1026 1104 c 1,13,-1
 972 1001 l 1,14,15
 1152 891 1152 891 1204 678 c 0,16,17
 1220 610 1220 610 1220 516 c 128,-1,18
 1220 422 1220 422 1179.5 321 c 128,-1,19
 1139 220 1139 220 1064 144 c 0,20,21
 903 -19 903 -19 652 -19 c 0,22,23
 519 -19 519 -19 407 30 c 1,24,-1
 312 -143 l 1,25,26
 271 -215 271 -215 251 -221 c 1,27,28
 209 -229 209 -229 200.5 -196.5 c 128,-1,29
 192 -164 192 -164 228 -118 c 0,30,31
 236 -109 236 -109 250 -86 c 1,32,-1
 332 62 l 1,33,-1
 335 67 l 1,34,35
 153 180 153 180 99 394 c 0,36,37
 81 465 81 465 81 562.5 c 128,-1,38
 81 660 81 660 124.5 758.5 c 128,-1,39
 168 857 168 857 244.5 930 c 128,-1,0
 321 1003 321 1003 426.5 1044.5 c 128,-1,1
624 56 m 1,40,41
 632 55 632 55 640 55 c 2,42,-1
 654 55 l 2,43,44
 856 55 856 55 993 180 c 1,45,46
 1139 315 1139 315 1139 534 c 0,47,48
 1139 748 1139 748 1002 881 c 0,49,50
 867 1013 867 1013 653 1013 c 2,51,-1
 638 1013 l 2,52,53
 631 1013 631 1013 624 1012 c 1,54,-1
 624 56 l 1,40,41
EndSplineSet
EndChar

StartChar: ugrave
Encoding: 249 249 206
Width: 1494
GlyphClass: 2
Flags: W
LayerCount: 2
Fore
SplineSet
523 -19 m 0,0,1
 172 -19 172 -19 172 324 c 2,2,-1
 172 1068 l 1,3,-1
 600 1068 l 1,4,-1
 600 89 l 1,5,6
 610 84 610 84 625 84 c 2,7,-1
 658 84 l 2,8,9
 738 84 738 84 848 192 c 0,10,11
 881 225 881 225 910 264 c 1,12,-1
 910 1068 l 1,13,-1
 1340 1068 l 1,14,-1
 1340 0 l 1,15,-1
 910 0 l 1,16,-1
 910 154 l 1,17,18
 747 -19 747 -19 523 -19 c 0,0,1
548 1479 m 1,19,-1
 829 1479 l 1,20,-1
 946 1195 l 1,21,-1
 792 1195 l 1,22,-1
 548 1479 l 1,19,-1
EndSplineSet
EndChar

StartChar: uacute
Encoding: 250 250 207
Width: 1494
GlyphClass: 2
Flags: W
LayerCount: 2
Fore
SplineSet
523 -19 m 0,0,1
 172 -19 172 -19 172 324 c 2,2,-1
 172 1068 l 1,3,-1
 600 1068 l 1,4,-1
 600 89 l 1,5,6
 610 84 610 84 625 84 c 2,7,-1
 658 84 l 2,8,9
 738 84 738 84 848 192 c 0,10,11
 881 225 881 225 910 264 c 1,12,-1
 910 1068 l 1,13,-1
 1340 1068 l 1,14,-1
 1340 0 l 1,15,-1
 910 0 l 1,16,-1
 910 154 l 1,17,18
 747 -19 747 -19 523 -19 c 0,0,1
795 1583 m 1,19,-1
 1076 1583 l 1,20,-1
 833 1299 l 1,21,-1
 677 1299 l 1,22,-1
 795 1583 l 1,19,-1
EndSplineSet
EndChar

StartChar: ucircumflex
Encoding: 251 251 208
Width: 1494
GlyphClass: 2
Flags: W
LayerCount: 2
Fore
SplineSet
523 -19 m 0,0,1
 172 -19 172 -19 172 324 c 2,2,-1
 172 1068 l 1,3,-1
 600 1068 l 1,4,-1
 600 89 l 1,5,6
 610 84 610 84 625 84 c 2,7,-1
 658 84 l 2,8,9
 738 84 738 84 848 192 c 0,10,11
 881 225 881 225 910 264 c 1,12,-1
 910 1068 l 1,13,-1
 1340 1068 l 1,14,-1
 1340 0 l 1,15,-1
 910 0 l 1,16,-1
 910 154 l 1,17,18
 747 -19 747 -19 523 -19 c 0,0,1
505 1345 m 2,19,-1
 475 1315 l 2,20,21
 453 1292 453 1292 436 1292 c 128,-1,22
 419 1292 419 1292 408.5 1302.5 c 128,-1,23
 398 1313 398 1313 398 1327 c 0,24,25
 398 1353 398 1353 439 1388 c 1,26,27
 452 1401 452 1401 472 1418.5 c 128,-1,28
 492 1436 492 1436 530 1474 c 2,29,-1
 640 1584 l 1,30,-1
 895 1584 l 1,31,-1
 1158 1300 l 1,32,-1
 850 1300 l 1,33,-1
 670 1514 l 1,34,35
 545 1388 545 1388 529 1370 c 128,-1,36
 513 1352 513 1352 505 1345 c 2,19,-1
EndSplineSet
EndChar

